<svg width="44" height="44" viewBox="0 0 44 44" fill="none" xmlns="http://www.w3.org/2000/svg">
<g clip-path="url(#clip0_500_10283)">
<path d="M8.06821 16.8674C8.87822 16.8674 9.53486 16.2107 9.53486 15.4007C9.53486 14.5907 8.87822 13.9341 8.06821 13.9341C7.2582 13.9341 6.60156 14.5907 6.60156 15.4007C6.60156 16.2107 7.2582 16.8674 8.06821 16.8674Z" fill="#C0F8E8"/>
<path d="M10.1953 21.2671H5.94066C5.49629 21.2671 5.13477 21.6015 5.13477 22.0121V25.1067C6.0455 25.4639 7.03255 25.6669 8.06797 25.6669C9.1034 25.6669 10.0904 25.4638 11.0012 25.1067V22.0121C11.0012 21.6015 10.6397 21.2671 10.1953 21.2671Z" fill="#C0F8E8"/>
<path d="M25.6668 7.33417C26.4768 7.33417 27.1335 6.67753 27.1335 5.86753C27.1335 5.05752 26.4768 4.40088 25.6668 4.40088C24.8568 4.40088 24.2002 5.05752 24.2002 5.86753C24.2002 6.67753 24.8568 7.33417 25.6668 7.33417Z" fill="#C0F8E8"/>
<path d="M27.7949 11.7339H23.5403C23.0959 11.7339 22.7344 12.0683 22.7344 12.4789V15.5735C23.6451 15.9307 24.6322 16.1337 25.6676 16.1337C26.703 16.1337 27.6901 15.9306 28.6008 15.5735V12.4789C28.6008 12.0683 28.2393 11.7339 27.7949 11.7339Z" fill="#C0F8E8"/>
<path d="M35.2 26.4001C36.0101 26.4001 36.6667 25.7434 36.6667 24.9334C36.6667 24.1234 36.0101 23.4668 35.2 23.4668C34.39 23.4668 33.7334 24.1234 33.7334 24.9334C33.7334 25.7434 34.39 26.4001 35.2 26.4001Z" fill="#C0F8E8"/>
<path d="M37.3271 30.8003H33.0725C32.6281 30.8003 32.2666 31.1347 32.2666 31.5453V34.6399C33.1773 34.9971 34.1644 35.2001 35.1998 35.2001C36.2352 35.2001 37.2223 34.997 38.133 34.6399V31.5453C38.133 31.1354 37.7715 30.8003 37.3271 30.8003Z" fill="#C0F8E8"/>
<path d="M35.2003 19.0672C35.1021 19.0672 35.0067 19.0782 34.9099 19.0819L31.7999 13.2903C32.9161 11.9836 33.6163 10.3181 33.7116 8.49221L38.3249 10.7193C38.2068 11.0368 38.1335 11.3763 38.1335 11.7342C38.1335 13.3519 39.4491 14.6674 41.0667 14.6674C42.6844 14.6674 43.9999 13.3518 43.9999 11.7342C43.9999 10.1165 42.6843 8.80097 41.0667 8.80097C40.3459 8.80097 39.694 9.07227 39.1828 9.50495L33.6258 6.82172C32.9482 2.48271 28.8117 -0.725488 24.1309 0.143484C20.9292 0.737464 18.3538 3.30476 17.7489 6.50419C17.6711 6.91488 17.6271 7.32109 17.6102 7.72146L13.2639 11.4401C12.0349 10.4018 10.4935 9.72417 8.801 9.57095V5.76284C10.0623 5.43508 11.0009 4.29696 11.0009 2.9337C11.0009 1.31598 9.68535 0.000488281 8.06772 0.000488281C6.45 0.000488281 5.13451 1.31606 5.13451 2.9337C5.13451 4.29688 6.07317 5.435 7.33444 5.76284V9.57095C3.22934 9.94347 0.00137495 13.3996 0.00137495 17.6C0.00137495 20.4247 1.46364 22.9106 3.66795 24.3523V22.0116C3.66795 20.7921 4.68799 19.7999 5.94049 19.7999H10.1951C11.4483 19.7999 12.4677 20.7921 12.4677 22.0116V24.3523C14.2994 23.1548 15.604 21.2306 15.9978 18.9955L19.3072 21.5752C19.1539 21.9309 19.0667 22.3218 19.0667 22.7331C19.0667 24.3508 20.3822 25.6663 21.9999 25.6663C23.6175 25.6663 24.9331 24.3508 24.9331 22.7331C24.9331 21.1154 23.6175 19.7999 21.9999 19.7999C21.3252 19.7999 20.7107 20.0382 20.2142 20.4225L16.1143 17.2268C16.0321 15.4324 15.37 13.7868 14.2986 12.4845L17.7378 9.54095C18.1477 11.7438 19.4552 13.6343 21.2664 14.8185V12.4779C21.2664 11.2584 22.2865 10.2662 23.539 10.2662H27.7936C29.0468 10.2662 30.0661 11.2584 30.0661 12.4779V13.2464C30.0661 13.5536 30.2436 13.7905 30.4775 13.913L33.3623 19.2859C29.7984 20.1211 27.1336 23.3184 27.1336 27.1331C27.1336 28.0446 27.3001 28.9142 27.5802 29.7312L24.6111 31.9583C23.2222 29.5186 20.6028 27.8664 17.5999 27.8664C13.3995 27.8664 9.94272 31.0945 9.57097 35.1995H5.76235C5.43459 33.9382 4.2957 32.9996 2.93321 32.9996C1.31557 32.9994 0 34.315 0 35.9327C0 37.5504 1.31557 38.8659 2.93321 38.8659C4.2957 38.8659 5.43451 37.9272 5.76235 36.666H9.58068C9.81021 39.1827 11.1895 41.3701 13.2003 42.685V40.3443C13.2003 39.1248 14.2204 38.1326 15.4729 38.1326H19.7275C20.9807 38.1326 22 39.1248 22 40.3443V42.685C23.7211 41.5601 24.978 39.7936 25.4517 37.7308L30.2578 40.0517C30.1397 40.3692 30.0664 40.7088 30.0664 41.0666C30.0664 42.6843 31.382 43.9998 32.9996 43.9998C34.6173 43.9998 35.9328 42.6842 35.9328 41.0666C35.9328 39.449 34.6172 38.1334 32.9996 38.1334C32.2788 38.1334 31.6269 38.4047 31.1157 38.8374L25.6497 36.1982C25.6526 36.1088 25.6665 36.023 25.6665 35.9335C25.6665 35.0213 25.5074 34.1478 25.2273 33.3295L28.1906 31.1068C28.8293 32.2258 29.7239 33.1813 30.8004 33.8853V31.5446C30.8004 30.3251 31.8205 29.3329 33.073 29.3329H37.3276C38.5808 29.3329 39.6001 30.3251 39.6001 31.5446V33.8853C41.8045 32.4436 43.2667 29.9577 43.2667 27.133C43.2667 22.6861 39.6478 19.0672 35.2003 19.0672ZM8.06789 18.334C6.45017 18.334 5.13468 17.0184 5.13468 15.4008C5.13468 13.7831 6.45025 12.4675 8.06789 12.4675C9.68552 12.4675 11.0011 13.7831 11.0011 15.4008C11.0011 17.0184 9.68483 18.334 8.06789 18.334ZM25.6673 8.80097C24.0496 8.80097 22.7341 7.4854 22.7341 5.86776C22.7341 4.25013 24.0497 2.93455 25.6673 2.93455C27.2849 2.93455 28.6005 4.25013 28.6005 5.86776C28.6005 7.4854 27.2842 8.80097 25.6673 8.80097ZM17.6009 36.6667C15.9832 36.6667 14.6677 35.3511 14.6677 33.7334C14.6677 32.1157 15.9832 30.8002 17.6009 30.8002C19.2185 30.8002 20.5341 32.1158 20.5341 33.7334C20.5341 35.3512 19.2178 36.6667 17.6009 36.6667ZM35.2003 27.8669C33.5826 27.8669 32.2671 26.5514 32.2671 24.9337C32.2671 23.316 33.5827 22.0005 35.2003 22.0005C36.8179 22.0005 38.1335 23.3161 38.1335 24.9337C38.1335 26.5521 36.8172 27.8669 35.2003 27.8669Z" fill="#C0F8E8"/>
<path d="M17.6004 35.1999C18.4104 35.1999 19.0671 34.5433 19.0671 33.7332C19.0671 32.9232 18.4104 32.2666 17.6004 32.2666C16.7904 32.2666 16.1338 32.9232 16.1338 33.7332C16.1338 34.5433 16.7904 35.1999 17.6004 35.1999Z" fill="#C0F8E8"/>
<path d="M19.7285 39.5996H15.4739C15.0295 39.5996 14.668 39.934 14.668 40.3447V43.4393C15.5787 43.7964 16.5657 43.9995 17.6012 43.9995C18.6366 43.9995 19.6236 43.7963 20.5344 43.4393V40.3447C20.5344 39.9348 20.1729 39.5996 19.7285 39.5996Z" fill="#C0F8E8"/>
</g>
<defs>
<clipPath id="clip0_500_10283">
<rect width="44" height="44" fill="white"/>
</clipPath>
</defs>
</svg>
