<svg width="34" height="34" viewBox="0 0 34 34" fill="none" xmlns="http://www.w3.org/2000/svg">
<g clip-path="url(#clip0_615_5629)">
<path d="M4.91069 25.0141C4.36085 25.0141 3.9146 24.5679 3.9146 24.018C3.9146 23.4681 4.36085 23.0219 4.91069 23.0219C5.4612 23.0219 5.90678 23.4681 5.90678 24.018C5.90678 24.5679 5.4612 25.0141 4.91069 25.0141ZM11.5387 30.5859L8.06897 20.4372C7.891 19.9165 7.32456 19.6389 6.8046 19.8169L0.673971 21.9128C0.423619 21.9985 0.217826 22.1798 0.101615 22.4168C-0.0145957 22.6539 -0.0319277 22.9276 0.0537363 23.1779L3.5228 33.326C3.66424 33.7397 4.05139 34 4.46577 34C4.57202 34 4.68092 33.9827 4.78784 33.9462L10.9185 31.851C11.1681 31.7653 11.374 31.584 11.4902 31.3469C11.607 31.1092 11.6244 30.8356 11.5387 30.5859" fill="#042181"/>
<path d="M33.3805 21.5255L26.1748 26.651C24.4058 27.9101 22.3226 28.5756 20.1505 28.5756C20.1405 28.5756 20.1299 28.5763 20.1199 28.5763L13.0331 28.7954L9.9552 19.7923C9.92392 19.7013 9.88879 19.6123 9.84961 19.526C10.8762 18.7948 12.2442 18.2575 14.0497 18.2575C15.7232 18.2575 17.2777 18.9276 18.4266 20.1442C18.5534 20.297 18.8449 20.4563 19.1511 20.4563H23.3267C24.0611 20.4563 24.6588 21.0534 24.6588 21.7879C24.6588 22.513 24.0724 23.1187 23.3267 23.1187H17.1688C16.619 23.1187 16.1727 23.565 16.1727 24.1148C16.1727 24.6654 16.619 25.111 17.1688 25.111H23.3267C24.2151 25.111 25.0499 24.765 25.6767 24.1374C26.1237 23.6905 26.4272 23.1387 26.5653 22.5376L31.6626 19.1268C31.6679 19.1235 31.6739 19.1196 31.6792 19.1155C32.3167 18.6699 33.2026 18.7914 33.6906 19.4197C34.2073 20.0858 34.0619 21.0414 33.3805 21.5255Z" fill="#042181"/>
<path d="M19.1191 15.3435H21.7754V9.41117H19.1191V15.3435Z" fill="#042181"/>
<path d="M29.7367 5.63312C26.6441 3.69804 20.9764 0.150352 20.9764 0.150352C20.5694 -0.103386 20.0932 0.00930601 19.9086 0.156994C11.7302 5.27605 13.8782 3.93166 11.1589 5.63312C10.6928 5.92531 10.5513 6.54029 10.8435 7.00647C11.0322 7.30861 11.3568 7.47397 11.6882 7.47397C12.0384 7.47397 12.1819 7.34328 12.8111 6.94936V14.3473C12.8111 14.8973 13.2574 15.3435 13.8072 15.3435H17.1275V8.41501C17.1275 7.8651 17.5738 7.41885 18.1236 7.41885H22.7721C23.3219 7.41885 23.7682 7.8651 23.7682 8.41501V15.3435H27.0884C27.6383 15.3435 28.0845 14.8973 28.0845 14.3473V6.94936C28.7044 7.3375 28.8531 7.47397 29.2074 7.47397C29.5388 7.47397 29.8635 7.30861 30.0521 7.00647C30.3443 6.54029 30.2029 5.92531 29.7367 5.63312Z" fill="#042181"/>
</g>
<defs>
<clipPath id="clip0_615_5629">
<rect width="34" height="34" fill="white"/>
</clipPath>
</defs>
</svg>
