<svg width="44" height="44" viewBox="0 0 44 44" fill="none" xmlns="http://www.w3.org/2000/svg">
<path d="M22.0001 8.75956C23.656 8.75956 24.9983 7.41722 24.9983 5.76137C24.9983 4.10552 23.656 2.76318 22.0001 2.76318C20.3443 2.76318 19.002 4.10552 19.002 5.76137C19.002 7.41722 20.3443 8.75956 22.0001 8.75956Z" fill="white"/>
<path d="M26.4688 11.6461V16.9399C26.4688 17.266 26.3461 17.5802 26.125 17.8199L25.3894 18.5899V25.6849C25.3926 26.0264 25.2607 26.3553 25.0225 26.5999C24.7842 26.8446 24.4589 26.9852 24.1175 26.9911H19.8825C19.5411 26.9852 19.2158 26.8446 18.9775 26.5999C18.7393 26.3553 18.6074 26.0264 18.6106 25.6849V18.5899L17.875 17.8199C17.6539 17.5802 17.5312 17.266 17.5313 16.9399V11.6461C17.5322 11.3675 17.5882 11.0918 17.6962 10.8349C17.8409 10.4861 18.0848 10.1874 18.3977 9.97594C18.7106 9.7645 19.0786 9.6496 19.4562 9.64551H24.5438C24.9214 9.6496 25.2894 9.7645 25.6023 9.97594C25.9152 10.1874 26.1591 10.4861 26.3037 10.8349C26.4118 11.0918 26.4678 11.3675 26.4688 11.6461V11.6461Z" fill="white"/>
<path d="M28.1874 10.0814C29.6242 10.0814 30.7889 8.91669 30.7889 7.47992C30.7889 6.04315 29.6242 4.87842 28.1874 4.87842C26.7507 4.87842 25.5859 6.04315 25.5859 7.47992C25.5859 8.91669 26.7507 10.0814 28.1874 10.0814Z" fill="white"/>
<path d="M15.8124 10.0814C17.2492 10.0814 18.4139 8.91669 18.4139 7.47992C18.4139 6.04315 17.2492 4.87842 15.8124 4.87842C14.3757 4.87842 13.2109 6.04315 13.2109 7.47992C13.2109 8.91669 14.3757 10.0814 15.8124 10.0814Z" fill="white"/>
<path d="M32.0098 12.6087V16.995C32.0104 17.2948 31.8945 17.5832 31.6867 17.7993L31.1092 18.4112V24.2343C31.1116 24.3901 31.0834 24.5449 31.0259 24.6897C30.9685 24.8346 30.8831 24.9667 30.7745 25.0785C30.6659 25.1902 30.5363 25.2795 30.3932 25.3411C30.2501 25.4027 30.0962 25.4354 29.9404 25.4375H26.7642V19.14L27.1217 18.7618C27.5894 18.2711 27.8482 17.6179 27.8435 16.94V11.6462C27.8444 11.3725 27.8098 11.0998 27.7404 10.835H30.291C30.7539 10.843 31.1947 11.0342 31.5169 11.3667C31.8391 11.6992 32.0163 12.1458 32.0098 12.6087V12.6087Z" fill="white"/>
<path d="M16.878 18.7618L17.2355 19.14V25.4375H14.0593C13.9035 25.4354 13.7496 25.4027 13.6065 25.3411C13.4634 25.2795 13.3338 25.1902 13.2252 25.0785C13.1166 24.9667 13.0312 24.8346 12.9738 24.6897C12.9163 24.5449 12.8881 24.3901 12.8905 24.2343V18.4112L12.313 17.7993C12.1052 17.5832 11.9893 17.2948 11.9899 16.995V12.6087C11.9834 12.1458 12.1606 11.6992 12.4828 11.3667C12.805 11.0342 13.2458 10.843 13.7087 10.835H16.2593C16.1899 11.0998 16.1553 11.3725 16.1562 11.6462V16.94C16.1528 17.6176 16.4114 18.2704 16.878 18.7618V18.7618Z" fill="white"/>
<path d="M19.3735 36.4238H10.7798C10.4001 36.4238 10.0923 36.7316 10.0923 37.1113V40.5488C10.0923 40.9285 10.4001 41.2363 10.7798 41.2363H19.3735C19.7532 41.2363 20.061 40.9285 20.061 40.5488V37.1113C20.061 36.7316 19.7532 36.4238 19.3735 36.4238Z" fill="white"/>
<path d="M19.1332 35.0488H10.7801C10.7045 35.0488 10.6288 35.0557 10.5532 35.0625C10.0032 34.4507 8.60071 33.1513 4.54446 29.1982C4.06592 28.7248 3.7587 28.1056 3.67133 27.4382C3.0939 22.9777 3.21684 18.4544 4.03571 14.0319C4.05119 13.9501 4.08549 13.8731 4.13591 13.8068C4.18633 13.7406 4.25147 13.687 4.32618 13.6504C4.40089 13.6137 4.48312 13.5949 4.56635 13.5955C4.64958 13.5961 4.73153 13.616 4.80571 13.6538C5.89675 14.1653 6.75819 15.0649 7.2221 16.177C7.68602 17.2891 7.71917 18.5342 7.31508 19.6694C7.16676 20.109 7.1814 20.5872 7.35633 21.0169C7.42131 21.3425 7.5133 21.6622 7.63133 21.9725C6.13946 22.2957 5.70633 24.3032 6.88196 25.63L10.3057 29.4938C10.4263 29.6296 10.5958 29.7121 10.7771 29.7232C10.9584 29.7344 11.1367 29.6733 11.273 29.5533C11.4094 29.4333 11.4926 29.2642 11.5046 29.083C11.5166 28.9018 11.4563 28.7232 11.337 28.5863L7.90633 24.7157C6.99883 23.6913 8.18133 22.1307 9.76258 23.6982C10.7182 24.64 11.7151 25.5407 12.6913 26.4619C13.1245 26.895 13.7707 26.7919 14.4032 26.9157C15.5361 27.1268 16.5786 27.6756 17.3938 28.49C19.2845 30.3669 19.1676 32.5325 19.1332 35.0488V35.0488Z" fill="white"/>
<path d="M33.2202 36.4238H24.6265C24.2468 36.4238 23.939 36.7316 23.939 37.1113V40.5488C23.939 40.9285 24.2468 41.2363 24.6265 41.2363H33.2202C33.5999 41.2363 33.9077 40.9285 33.9077 40.5488V37.1113C33.9077 36.7316 33.5999 36.4238 33.2202 36.4238Z" fill="white"/>
<path d="M40.3288 27.4382C40.2415 28.1056 39.9343 28.7248 39.4557 29.1982C35.3995 33.1513 33.997 34.4507 33.4538 35.0625H33.447C33.3713 35.0557 33.2957 35.0488 33.2201 35.0488H24.867C24.8326 32.5325 24.7157 30.3669 26.6063 28.49C27.4216 27.6756 28.4641 27.1268 29.597 26.9157C30.2088 26.7988 30.8826 26.8882 31.3088 26.4619C32.2851 25.5407 33.282 24.64 34.2376 23.6982C35.8188 22.1307 37.0013 23.6913 36.0938 24.7157L32.6632 28.5863C32.5439 28.7232 32.4836 28.9018 32.4956 29.083C32.5075 29.2642 32.5908 29.4333 32.7272 29.5533C32.8635 29.6733 33.0418 29.7344 33.2231 29.7232C33.4044 29.7121 33.5739 29.6296 33.6945 29.4938L37.1182 25.63C38.2938 24.3032 37.8607 22.2957 36.3688 21.9725C36.4869 21.6622 36.5789 21.3425 36.6438 21.0169C36.8188 20.5872 36.8334 20.109 36.6851 19.6694C36.281 18.5342 36.3142 17.2891 36.7781 16.177C37.242 15.0649 38.1034 14.1653 39.1945 13.6538C39.2686 13.616 39.3506 13.5961 39.4338 13.5955C39.5171 13.5949 39.5993 13.6137 39.674 13.6504C39.7487 13.687 39.8138 13.7406 39.8643 13.8068C39.9147 13.8731 39.949 13.9501 39.9645 14.0319C40.7833 18.4544 40.9063 22.9777 40.3288 27.4382V27.4382Z" fill="white"/>
</svg>
