<svg width="60" height="60" viewBox="0 0 60 60" fill="none" xmlns="http://www.w3.org/2000/svg">
<circle cx="41.5" cy="23.5" r="10.5" fill="#C0F8E8"/>
<path d="M34.1533 14.9144C33.6067 14.3683 32.8802 14.0671 32.1075 14.0671C31.3348 14.0671 30.6084 14.3683 30.0623 14.9144C29.5157 15.461 29.2145 16.1874 29.2145 16.9601C29.2145 17.7328 29.5157 18.4593 30.0618 19.0054L34.9901 23.9337C35.5362 24.4798 36.2631 24.781 37.0358 24.781C37.8085 24.781 38.5345 24.4798 39.0811 23.9337L49.6106 13.4042C50.1572 12.8577 50.4579 12.1312 50.4579 11.3589C50.4579 10.5862 50.1572 9.85977 49.6106 9.3132C49.0645 8.76663 48.3376 8.46588 47.5648 8.46588C46.7921 8.46588 46.0657 8.76663 45.5196 9.3132L44.3587 10.4741C43.4985 9.81766 42.5546 9.29123 41.5544 8.91037V7.5943C41.5544 5.99899 40.2567 4.70123 38.6618 4.70123H29.5908V3.6969C29.5908 1.65848 27.9323 0 25.8939 0H15.7777C13.7393 0 12.0808 1.65848 12.0808 3.6969V7.87399C12.0808 9.0065 13.0023 9.92798 14.1348 9.92798H27.5368C28.6693 9.92798 29.5908 9.0065 29.5908 7.87399V6.46179H38.6613C39.2857 6.46179 39.7939 6.96991 39.7939 7.5943V8.405C39.0692 8.25851 38.3276 8.18069 37.5774 8.18069C31.4117 8.18069 26.3956 13.1969 26.3956 19.3625C26.3956 25.5281 31.4117 30.5443 37.5774 30.5443C38.3295 30.5443 39.071 30.4688 39.7939 30.3236V57.1074C39.7939 57.7318 39.2857 58.2394 38.6613 58.2394H3.0098C2.38541 58.2394 1.87775 57.7318 1.87775 57.1074V7.5943C1.87775 6.96991 2.38541 6.46179 3.0098 6.46179H8.86139C9.34753 6.46179 9.74167 6.06766 9.74167 5.58151C9.74167 5.09537 9.34753 4.70123 8.86139 4.70123H3.0098C1.41495 4.70123 0.117188 5.99899 0.117188 7.5943V57.1074C0.117188 58.7022 1.41495 60 3.0098 60H38.6618C40.2567 60 41.5544 58.7022 41.5544 57.1074V29.8146C42.9561 29.2813 44.2488 28.4674 45.3548 27.3967C47.4458 25.372 48.653 22.6575 48.7527 19.753C48.7692 19.2673 48.3893 18.8599 47.9031 18.8429C47.4207 18.8269 47.01 19.2064 46.9931 19.6925C46.8526 23.7808 44.1641 27.1564 40.4723 28.3342C40.4214 28.3461 40.372 28.3617 40.3253 28.3823C39.4565 28.6436 38.5341 28.7837 37.5774 28.7837C32.3827 28.7837 28.1561 24.5572 28.1561 19.3625C28.1561 14.1678 32.3827 9.94125 37.5774 9.94125C39.5728 9.94125 41.5013 10.5721 43.1012 11.7316L37.0358 17.7974L34.1533 14.9144ZM27.8302 7.87399C27.8302 8.03604 27.6988 8.16742 27.5368 8.16742H14.1348C13.9728 8.16742 13.8414 8.03604 13.8414 7.87399V3.6969C13.8414 2.62894 14.7098 1.76056 15.7777 1.76056H25.8939C26.9614 1.76056 27.8302 2.62894 27.8302 3.6969V7.87399ZM46.7647 10.5583C46.9785 10.3441 47.2627 10.2264 47.5648 10.2264C47.8674 10.2264 48.1517 10.3445 48.3659 10.5583C48.8072 10.9996 48.8072 11.7183 48.3659 12.1596L37.836 22.6891C37.6222 22.9028 37.338 23.0209 37.0354 23.0209C36.7328 23.0209 36.4485 22.9028 36.2347 22.6891L31.3065 17.7608C31.0927 17.547 30.975 17.2627 30.975 16.9601C30.975 16.6576 31.0927 16.3733 31.3069 16.1595C31.5207 15.9457 31.805 15.8276 32.1075 15.8276C32.4097 15.8276 32.6944 15.9457 32.9082 16.1595L36.4133 19.6646C36.757 20.0084 37.3141 20.0084 37.6579 19.6646L46.7647 10.5583Z" fill="#042181"/>
<path d="M24.0744 22.0952H13.3486C12.8624 22.0952 12.4688 22.4893 12.4688 22.9755C12.4688 23.4612 12.8624 23.8553 13.3486 23.8553H24.0744C24.5606 23.8553 24.9547 23.4612 24.9547 22.9755C24.9547 22.4893 24.5606 22.0952 24.0744 22.0952Z" fill="#3AC19B"/>
<path d="M11.6685 13.0093H5.74551C5.25937 13.0093 4.86523 13.4034 4.86523 13.8896C4.86523 14.3757 5.25937 14.7698 5.74551 14.7698H11.6685C12.1547 14.7698 12.5488 14.3757 12.5488 13.8896C12.5488 13.4034 12.1547 13.0093 11.6685 13.0093Z" fill="#042181"/>
<path d="M13.3486 27.9393H24.0744C24.5606 27.9393 24.9547 27.5452 24.9547 27.059C24.9547 26.5733 24.5606 26.1792 24.0744 26.1792H13.3486C12.8624 26.1792 12.4688 26.5733 12.4688 27.059C12.4688 27.5452 12.8624 27.9393 13.3486 27.9393Z" fill="#3AC19B"/>
<path d="M27.7796 32.7715H13.3486C12.8624 32.7715 12.4688 33.1656 12.4688 33.6518C12.4688 34.1379 12.8624 34.532 13.3486 34.532H27.7796C28.2657 34.532 28.6599 34.1379 28.6599 33.6518C28.6599 33.1656 28.2657 32.7715 27.7796 32.7715Z" fill="#042181"/>
<path d="M13.3486 38.6155H20.5643C21.0504 38.6155 21.4441 38.2214 21.4441 37.7353C21.4441 37.2491 21.0504 36.855 20.5643 36.855H13.3486C12.8624 36.855 12.4688 37.2491 12.4688 37.7353C12.4688 38.2214 12.8624 38.6155 13.3486 38.6155Z" fill="#042181"/>
<path d="M13.3486 45.2191H24.0744C24.5606 45.2191 24.9547 44.8249 24.9547 44.3388C24.9547 43.8526 24.5606 43.4585 24.0744 43.4585H13.3486C12.8624 43.4585 12.4688 43.8526 12.4688 44.3388C12.4688 44.8249 12.8624 45.2191 13.3486 45.2191Z" fill="#3AC19B"/>
<path d="M13.3486 49.3026H27.7796C28.2657 49.3026 28.6599 48.9084 28.6599 48.4223C28.6599 47.9366 28.2657 47.5425 27.7796 47.5425H13.3486C12.8624 47.5425 12.4688 47.9366 12.4688 48.4223C12.4688 48.9084 12.8624 49.3026 13.3486 49.3026Z" fill="#3AC19B"/>
<path d="M7.61404 21.332C5.65344 21.332 4.05859 22.9269 4.05859 24.8875C4.05859 26.8481 5.65344 28.4429 7.61404 28.4429C9.57465 28.4429 11.1695 26.8481 11.1695 24.8875C11.1695 22.9269 9.57465 21.332 7.61404 21.332ZM7.61404 26.6824C6.62436 26.6824 5.81915 25.8772 5.81915 24.8875C5.81915 23.8978 6.62436 23.0926 7.61404 23.0926C8.60373 23.0926 9.40894 23.8978 9.40894 24.8875C9.40894 25.8772 8.60373 26.6824 7.61404 26.6824Z" fill="#3AC19B"/>
<path d="M7.61404 32.1377C5.65344 32.1377 4.05859 33.733 4.05859 35.6931C4.05859 37.6537 5.65344 39.2486 7.61404 39.2486C9.57465 39.2486 11.1695 37.6537 11.1695 35.6931C11.1695 33.733 9.57465 32.1377 7.61404 32.1377ZM7.61404 37.4885C6.62436 37.4885 5.81915 36.6833 5.81915 35.6936C5.81915 34.7035 6.62436 33.8983 7.61404 33.8983C8.60373 33.8983 9.40894 34.7035 9.40894 35.6936C9.40894 36.6833 8.60373 37.4885 7.61404 37.4885Z" fill="#042181"/>
<path d="M7.61404 42.8252C5.65344 42.8252 4.05859 44.42 4.05859 46.3806C4.05859 48.3412 5.65344 49.9361 7.61404 49.9361C9.57465 49.9361 11.1695 48.3412 11.1695 46.3806C11.1695 44.42 9.57465 42.8252 7.61404 42.8252ZM7.61404 48.1755C6.62436 48.1755 5.81915 47.3703 5.81915 46.3806C5.81915 45.391 6.62436 44.5858 7.61404 44.5858C8.60373 44.5858 9.40894 45.391 9.40894 46.3806C9.40894 47.3703 8.60373 48.1755 7.61404 48.1755Z" fill="#3AC19B"/>
</svg>
