<svg width="44" height="44" viewBox="0 0 44 44" fill="none" xmlns="http://www.w3.org/2000/svg">
<g clip-path="url(#clip0_655_4587)">
<path d="M38.2498 11.3535C41.3784 11.3535 43.9146 8.81197 43.9146 5.67677C43.9146 2.54158 41.3784 0 38.2498 0C35.1212 0 32.585 2.54158 32.585 5.67677C32.585 8.81197 35.1212 11.3535 38.2498 11.3535Z" fill="#C0F8E8"/>
<path d="M30.8857 31.8281H34.5299V35.48H30.8857V31.8281Z" fill="#C0F8E8"/>
<path d="M24.2524 11.9659C24.9593 11.3375 25.8689 10.9916 26.8137 10.9916C27.7585 10.9916 28.6682 11.3376 29.375 11.9659L30.3907 12.8688V9.64294C30.3907 4.33277 26.0796 0.0126953 20.7806 0.0126953C16.1389 0.0126953 12.2554 3.32756 11.3633 7.71897C12.8224 9.93985 15.3796 14.281 16.4733 18.8813L24.2524 11.9659Z" fill="#C0F8E8"/>
<path d="M42.7134 41.4052H40.9365V29.138L41.7739 29.8824C42.0188 30.1001 42.3236 30.2072 42.6271 30.2071C42.9823 30.2071 43.3359 30.0606 43.5901 29.7734C44.0616 29.2408 44.013 28.4259 43.4814 27.9534L39.7098 24.6007V17.9191C39.7098 17.2071 39.1338 16.6299 38.4233 16.6299C37.7127 16.6299 37.1367 17.2071 37.1367 17.9191V22.3134L27.6671 13.8953C27.1799 13.4622 26.4467 13.4622 25.9596 13.8953L10.1454 27.9533C9.61383 28.4258 9.56519 29.2407 10.0366 29.7733C10.5082 30.3061 11.3214 30.3547 11.8528 29.8822L12.6902 29.1378V41.4051H8.53806V35.7804C9.08763 35.6121 9.61649 35.3357 10.1172 34.9568V32.6831C9.3482 32.502 8.64505 32.0869 8.1119 31.4846C6.69969 29.8893 6.84587 27.4399 8.43777 26.0246L14.2447 20.8625C13.2673 14.6136 8.51099 8.09834 8.28635 7.79361C8.04375 7.46464 7.65978 7.27051 7.25158 7.27051C6.84338 7.27051 6.45941 7.46464 6.2168 7.79361C5.9663 8.13332 0.0827578 16.1917 0.0827578 22.9946C0.0827578 26.3149 0.743531 29.4568 1.94339 31.8414C3.0018 33.9449 4.3994 35.3018 5.96501 35.7805V41.4052H1.28657C0.576039 41.4052 0 41.9825 0 42.6945C0 43.4065 0.576039 43.9837 1.28657 44.0002H40.9366H42.7135C43.424 43.9837 44.0001 43.4065 44.0001 42.6945C44.0001 41.9825 43.424 41.4052 42.7134 41.4052ZM28.3125 30.5389C28.3125 29.827 28.8885 29.2497 29.599 29.2497H35.8163C36.5269 29.2497 37.1029 29.827 37.1029 30.5389V36.7693C37.1029 37.4813 36.5269 38.0586 35.8163 38.0586H29.599C28.8885 38.0586 28.3125 37.4813 28.3125 36.7693V30.5389ZM21.2674 41.4052V31.8282H18.6942V41.4052H16.1212V30.5389C16.1212 29.8269 16.6972 29.2497 17.4078 29.2497H22.554C23.2645 29.2497 23.8405 29.827 23.8405 30.5389V41.4052H21.2674Z" fill="#C0F8E8"/>
</g>
<defs>
<clipPath id="clip0_655_4587">
<rect width="44" height="44" fill="white"/>
</clipPath>
</defs>
</svg>
