<svg width="60" height="60" viewBox="0 0 60 60" fill="none" xmlns="http://www.w3.org/2000/svg">
<g clip-path="url(#clip0_299_1404)">
<path d="M48.6708 33.0648C49.1091 33.3302 49.6791 33.1713 49.9439 32.7334L58.0102 19.0834C58.4208 18.3405 58.7527 17.545 58.9655 16.6956C59.1773 15.873 59.2969 15.0241 59.2969 14.1484C59.2969 11.3491 58.1555 8.81594 56.325 6.97141C54.4809 5.14094 51.9473 4 49.1484 4C46.3359 4 43.8023 5.14094 41.9714 6.97094C40.1278 8.81547 39 11.3486 39 14.148C39 15.0241 39.1059 15.8725 39.3188 16.6952C39.5306 17.4911 39.8752 18.393 40.2867 19.0961L48.3258 32.7203C48.4055 32.853 48.5245 32.972 48.6708 33.0648Z" fill="#C0F8E8"/>
<path d="M23.3977 55.1848C23.3977 55.7023 22.9866 56.1265 22.4691 56.1265C21.9516 56.1265 21.5273 55.7023 21.5273 55.1848V43.391C21.5273 42.5955 21.8719 41.8788 22.4292 41.3618C22.9734 40.8579 23.7033 40.5527 24.5123 40.5527H35.483C36.292 40.5527 37.035 40.8574 37.5652 41.3618C38.122 41.8793 38.468 42.5955 38.468 43.391V55.1848C38.468 55.7023 38.0564 56.1265 37.5389 56.1265C37.0214 56.1265 36.5972 55.7023 36.5972 55.1848V43.391C36.5972 43.1393 36.4908 42.9002 36.3052 42.7282C36.0933 42.5426 35.8144 42.423 35.483 42.423H30.9323V55.1852C30.9323 55.7027 30.5217 56.127 30.0042 56.127C29.4872 56.127 29.0625 55.7027 29.0625 55.1852V42.4226H24.5123C24.1941 42.4226 23.9152 42.5426 23.7033 42.7277C23.5177 42.8998 23.3981 43.1388 23.3981 43.3905V55.1848H23.3977Z" fill="#042181"/>
<path d="M20.7577 27.9771H26.8861C27.4036 27.9771 27.8147 28.3887 27.8147 28.9057V34.6104C27.8147 35.1279 27.4036 35.538 26.8861 35.538H20.7577C20.2402 35.538 19.8291 35.1274 19.8291 34.6104V28.9057C19.8286 28.3887 20.2402 27.9771 20.7577 27.9771V27.9771ZM20.7577 16.6348H26.8861C27.4036 16.6348 27.8147 17.0463 27.8147 17.5634V23.2676C27.8147 23.7851 27.4036 24.1962 26.8861 24.1962H20.7577C20.2402 24.1962 19.8291 23.7846 19.8291 23.2676V17.5638C19.8286 17.0463 20.2402 16.6348 20.7577 16.6348V16.6348ZM25.9444 18.506H21.6994V22.3259H25.9444V18.506ZM36.1852 22.3259C36.7027 22.3259 37.1133 22.7505 37.1133 23.268C37.1133 23.7855 36.7022 24.1966 36.1852 24.1966H33.121C32.6035 24.1966 32.1788 23.7851 32.1788 23.268V17.5638C32.1788 17.0463 32.603 16.6352 33.121 16.6352C33.6385 16.6352 34.0496 17.0468 34.0496 17.5638V22.3259H36.1852ZM33.121 27.9771H39.2363C39.7538 27.9771 40.178 28.3887 40.178 28.9057V34.6104C40.178 35.1279 39.7538 35.538 39.2363 35.538H33.121C32.6035 35.538 32.1788 35.1274 32.1788 34.6104V28.9057C32.1788 28.3887 32.6035 27.9771 33.121 27.9771ZM38.3082 29.8479H34.05V33.6682H38.3082V29.8479ZM25.9444 29.8479H21.6994V33.6682H25.9444V29.8479Z" fill="#3AC19B"/>
<path d="M45.7632 28.7334C45.4984 29.1713 44.9284 29.3302 44.4901 29.0648C44.3439 28.972 44.2248 28.853 44.1451 28.7203L36.1061 15.0961C35.6945 14.393 35.35 13.4911 35.1381 12.6952C34.9253 11.8725 34.8193 11.0241 34.8193 10.148C34.8193 7.34859 35.9472 4.81547 37.7907 2.97094C39.6217 1.14094 42.1553 0 44.9678 0C47.7667 0 50.3003 1.14094 52.1443 2.97141C53.9748 4.81594 55.1162 7.34906 55.1162 10.1484C55.1162 11.0241 54.9967 11.873 54.7848 12.6956C54.572 13.545 54.2401 14.3405 53.8295 15.0834L45.7632 28.7334ZM44.9678 26.4248L52.2104 14.1539C52.5423 13.5572 52.8076 12.907 52.9801 12.2306C53.1522 11.5669 53.245 10.8773 53.245 10.148C53.245 7.86609 52.3173 5.79703 50.8178 4.29797C49.3187 2.79937 47.2492 1.87031 44.9678 1.87031C42.6728 1.87031 40.6032 2.79891 39.1046 4.29797C37.6182 5.79703 36.6901 7.86609 36.6901 10.148C36.6901 10.8778 36.7825 11.5669 36.9423 12.2306C37.1143 12.8934 37.3796 13.5305 37.6979 14.1272L44.9678 26.4248Z" fill="#042181"/>
<path d="M44.9679 4.73584C46.4538 4.73584 47.8066 5.34662 48.7877 6.32771C49.7697 7.29615 50.38 8.64896 50.38 10.148C50.38 11.6466 49.7693 13.0004 48.7877 13.9819C47.8061 14.9504 46.4538 15.5602 44.9679 15.5602C43.4688 15.5602 42.1155 14.9504 41.1339 13.9819C40.1524 13.0004 39.5557 11.6471 39.5557 10.148C39.5557 8.64896 40.1524 7.29615 41.1339 6.32771C42.1155 5.34615 43.4683 4.73584 44.9679 4.73584V4.73584ZM47.4616 7.64115C46.8246 7.00459 45.9363 6.60662 44.9679 6.60662C43.9863 6.60662 43.0971 7.00459 42.4605 7.64115C41.8235 8.29131 41.426 9.16646 41.426 10.1485C41.426 11.1301 41.8235 12.0188 42.4605 12.6558C43.0966 13.2924 43.9863 13.6904 44.9679 13.6904C45.9363 13.6904 46.8246 13.2924 47.4616 12.6558C48.1113 12.0193 48.5093 11.1301 48.5093 10.1485C48.5093 9.16646 48.1113 8.29131 47.4616 7.64115Z" fill="#042181"/>
<path d="M49.2912 45.5671C48.7737 45.5671 48.3635 45.1428 48.3635 44.6253C48.3635 44.1078 48.7741 43.6963 49.2912 43.6963H52.6873C53.8549 43.6963 54.8899 44.3732 55.3408 45.4475L59.7316 56.1397C59.9173 56.5907 59.9833 57.0421 59.9304 57.493C59.8376 58.4085 59.2268 59.2569 58.4177 59.6816C58.0066 59.8939 57.5557 60.0004 57.0785 60.0004H2.92897C2.45131 60.0004 2.00038 59.8939 1.58928 59.6816C0.766627 59.2569 0.169908 58.4085 0.0639704 57.493C0.0241266 57.0421 0.0902204 56.5907 0.26272 56.1397L4.6671 45.4475C5.11803 44.3732 6.15256 43.6963 7.32022 43.6963H10.6896C11.2071 43.6963 11.6182 44.1083 11.6182 44.6253C11.6182 45.1424 11.2071 45.5671 10.6896 45.5671H7.32022C6.90913 45.5671 6.55053 45.7658 6.39163 46.1638L2.00085 56.8555C1.93428 57.0022 1.90803 57.1475 1.92116 57.2938C1.961 57.5989 2.17335 57.8774 2.43866 58.0236C2.58444 58.0902 2.74335 58.13 2.92944 58.13H57.0794C57.2651 58.13 57.424 58.0902 57.5571 58.0236C57.836 57.8774 58.0479 57.5994 58.0746 57.2938C58.0877 57.1475 58.0746 57.0022 58.008 56.8555L53.6173 46.1638C53.4579 45.7654 53.0998 45.5671 52.6887 45.5671H49.2912Z" fill="#042181"/>
<path d="M44.0255 32.7524C44.0255 32.2349 44.4498 31.8102 44.9673 31.8102C45.4848 31.8102 45.8959 32.2349 45.8959 32.7524V55.1844C45.8959 55.7019 45.4843 56.1261 44.9673 56.1261H15.0399C14.5224 56.1261 14.1113 55.7019 14.1113 55.1844V14.181C14.1113 13.385 14.4563 12.6683 15.0137 12.1513C15.5443 11.6469 16.2873 11.3286 17.0963 11.3286H31.8605C32.378 11.3286 32.7891 11.7528 32.7891 12.2708C32.7891 12.7883 32.3776 13.2125 31.8605 13.2125H17.0963C16.7645 13.2125 16.486 13.3189 16.2741 13.5177C16.0885 13.6897 15.9821 13.9288 15.9821 14.181V54.2553H44.026V32.7524H44.0255Z" fill="#042181"/>
</g>
<defs>
<clipPath id="clip0_299_1404">
<rect width="60" height="60" fill="white"/>
</clipPath>
</defs>
</svg>
