<svg width="34" height="34" viewBox="0 0 34 34" fill="none" xmlns="http://www.w3.org/2000/svg">
<g clip-path="url(#clip0_615_3112)">
<path d="M24.9162 11.194C24.9162 11.8568 24.6586 12.4797 24.1898 12.9478C23.7216 13.416 23.0987 13.6743 22.4366 13.6743H22.3145V8.71509H22.4366C23.8039 8.71509 24.9162 9.82739 24.9162 11.194Z" fill="#042181"/>
<path d="M4.67406 8.71509V13.6743H4.55188C3.8898 13.6743 3.26691 13.416 2.79875 12.9478C2.32992 12.4797 2.07227 11.8568 2.07227 11.194C2.07227 9.82739 3.18457 8.71509 4.55188 8.71509H4.67406Z" fill="#042181"/>
<path d="M16.4045 9.76166C15.3686 9.76166 14.3678 9.48541 13.4939 8.97607C12.62 9.48541 11.6193 9.76166 10.5833 9.76166H6.66602V13.426C6.66602 17.1905 9.72934 20.2538 13.4939 20.2538C17.2585 20.2538 20.3218 17.1905 20.3218 13.426V9.76166H16.4045ZM15.6168 16.3618C14.9993 16.8226 14.2648 17.0663 13.4938 17.0663C12.7229 17.0663 11.9884 16.8226 11.3708 16.3618C10.9299 16.0331 10.8389 15.4088 11.1683 14.9679C11.497 14.527 12.1212 14.436 12.5622 14.7654C12.8331 14.9672 13.1552 15.0742 13.4938 15.0742C13.8325 15.0742 14.1546 14.9672 14.4255 14.7654C14.8665 14.436 15.4907 14.527 15.8194 14.9679C16.1488 15.4088 16.0578 16.0331 15.6168 16.3618Z" fill="#042181"/>
<path d="M33.8076 29.0846C33.5208 29.56 32.9025 29.7041 32.4397 29.4219L32.2119 29.2844V33.0038C32.2119 33.5537 31.7656 33.9999 31.2158 33.9999H28.1983V30.0554C28.1983 29.5056 27.752 29.0593 27.2022 29.0593C26.6517 29.0593 26.2061 29.5056 26.2061 30.0554V33.9999H23.1885C22.638 33.9999 22.1924 33.5537 22.1924 33.0038V29.2844L21.9647 29.4219C21.5012 29.7041 20.8829 29.56 20.5967 29.0846C20.3125 28.6144 20.4632 28.0015 20.934 27.7172L26.6868 24.2389C26.9996 24.0483 27.4047 24.0483 27.7174 24.2389L33.4702 27.7172C33.941 28.0015 34.0918 28.6144 33.8076 29.0846Z" fill="#042181"/>
<path d="M14.6928 0H13.4955H12.2982C8.51367 0 5.43375 3.07926 5.43375 6.86441C5.42452 7.3608 5.82621 7.77006 6.32293 7.76953H10.5849C11.7516 7.76953 12.7975 7.23961 13.4955 6.40754C14.1934 7.23961 15.2393 7.76953 16.4061 7.76953H20.668C21.1647 7.77006 21.5664 7.3608 21.5572 6.86441C21.5572 3.07926 18.4773 0 14.6928 0Z" fill="#042181"/>
<path d="M12.4995 27.36V33.9999H4.73064V30.9638C4.73064 30.3984 4.25936 29.9425 3.6874 29.9688C3.15123 29.9935 2.73845 30.4552 2.73845 30.9919V33.9999H1.04503C0.458527 33.9999 -0.00107087 33.4957 0.053183 32.9117L0.551097 27.5525C0.722425 25.7117 1.86926 24.0828 3.54403 23.3005L4.572 22.821L12.4995 27.36Z" fill="#042181"/>
<path d="M11.1502 24.292L6.64453 21.7114L8.49926 20.6914C8.88375 20.9564 9.29016 21.1921 9.71516 21.394L11.1502 24.292Z" fill="#042181"/>
<path d="M14.6691 22.1685L13.4957 24.5378L12.3223 22.1685C12.7061 22.2196 13.0972 22.2462 13.495 22.2462C13.8928 22.2462 14.2853 22.2196 14.6691 22.1685Z" fill="#042181"/>
<path d="M20.3455 21.7116L15.8398 24.2921L17.2749 21.3942C17.6999 21.1916 18.1063 20.9565 18.4908 20.6909L20.3455 21.7116Z" fill="#042181"/>
<path d="M20.1998 33.004C20.1998 33.3533 20.2603 33.6887 20.3712 34.0001H14.4902V27.3602L22.4171 22.8213L23.4451 23.3007C23.6171 23.3804 23.7838 23.4701 23.9452 23.5684L19.903 26.0128C19.2204 26.4245 18.7389 27.0793 18.5477 27.8549C18.3571 28.6285 18.4786 29.43 18.8896 30.112C19.1982 30.6261 19.6589 31.0322 20.1998 31.2821V33.004Z" fill="#042181"/>
</g>
<defs>
<clipPath id="clip0_615_3112">
<rect width="34" height="34" fill="white"/>
</clipPath>
</defs>
</svg>
