<svg width="60" height="60" viewBox="0 0 60 60" fill="none" xmlns="http://www.w3.org/2000/svg">
<g clip-path="url(#clip0_299_1429)">
<circle cx="34" cy="18" r="13" fill="#C0F8E8"/>
<path d="M59.9415 43.2669L53.379 26.12C53.2971 25.9061 53.1348 25.7326 52.9269 25.6365C52.719 25.5404 52.4817 25.5293 52.2657 25.6055L45.3516 28.0723C45.2406 28.1121 45.1387 28.1739 45.0519 28.2538C44.9652 28.3338 44.8954 28.4303 44.8466 28.5377C44.7979 28.6452 44.7712 28.7613 44.7682 28.8792C44.7651 28.9971 44.7858 29.1145 44.829 29.2243L45.4302 30.7477L40.7122 32.9883L32.9684 31.534C32.2143 31.393 31.4391 31.4092 30.6914 31.5813C29.9438 31.7535 29.2396 32.0781 28.6231 32.5348L27.2391 33.5614L26.3227 32.9016C25.631 32.4063 24.8356 32.075 23.9969 31.9329C23.1581 31.7908 22.298 31.8415 21.4817 32.0813L18.5098 32.9661L14.6169 30.6387L15.1759 29.2254C15.219 29.1157 15.2397 28.9983 15.2367 28.8804C15.2336 28.7625 15.207 28.6463 15.1582 28.5389C15.1095 28.4315 15.0397 28.3349 14.9529 28.255C14.8662 28.175 14.7642 28.1133 14.6532 28.0735L7.73445 25.6055C7.51814 25.5286 7.28031 25.5393 7.07183 25.6355C6.86334 25.7316 6.70075 25.9055 6.61883 26.12L0.0586696 43.2669C-0.0226704 43.478 -0.0193205 43.7124 0.0680201 43.9212C0.155361 44.1299 0.319943 44.2969 0.52742 44.3872L7.08992 47.2149C7.19802 47.2616 7.31441 47.2861 7.43217 47.2869C7.54992 47.2878 7.66665 47.265 7.77541 47.2198C7.88418 47.1747 7.98276 47.1081 8.0653 47.0241C8.14785 46.9402 8.21268 46.8404 8.25593 46.7309L8.91687 45.0586L14.3567 48.1243C13.9901 48.6565 13.8213 49.3002 13.8795 49.9438C13.9378 50.5874 14.2193 51.1903 14.6755 51.6481C14.932 51.9048 15.2368 52.1083 15.5722 52.2468C15.9077 52.3854 16.2672 52.4563 16.6302 52.4555H16.6993C16.7608 53.1431 17.0777 53.7827 17.5875 54.2482C18.0972 54.7137 18.7629 54.9714 19.4532 54.9704H19.5247C19.5804 55.6164 19.8626 56.222 20.3216 56.6801C20.5781 56.9368 20.8829 57.1403 21.2183 57.2789C21.5538 57.4174 21.9133 57.4884 22.2762 57.4876H22.3454C22.3919 58.0113 22.5868 58.511 22.9074 58.9278C23.228 59.3446 23.6608 59.6613 24.1551 59.8407C24.6494 60.0201 25.1846 60.0548 25.6978 59.9406C26.2111 59.8264 26.6812 59.5682 27.0528 59.1962L28.0969 58.1532L29.5102 59.2079C30.109 59.6541 30.8487 59.869 31.5934 59.813C32.338 59.757 33.0373 59.4339 33.5626 58.9032L33.6622 58.8024C34.1059 58.3495 34.4003 57.7717 34.5059 57.1465C35.0347 57.2958 35.5936 57.3017 36.1254 57.1635C36.6572 57.0253 37.1426 56.7481 37.5317 56.3602L37.6044 56.2876C38.0975 55.7954 38.409 55.1505 38.488 54.4583C39.0208 54.617 39.5867 54.6284 40.1255 54.4911C40.6642 54.3539 41.1557 54.0732 41.5477 53.679L41.597 53.6297C42.0777 53.1533 42.3861 52.5303 42.4735 51.859C42.9479 51.9722 43.4424 51.9714 43.9164 51.8568C44.3905 51.7421 44.8306 51.5169 45.2009 51.1994C45.5711 50.882 45.861 50.4814 46.0467 50.0304C46.2323 49.5794 46.3086 49.0909 46.2692 48.6047C46.2539 48.4162 46.2213 48.2295 46.172 48.0469L51.2802 45.5461L51.7489 46.7274C51.7919 46.8371 51.8566 46.9371 51.9391 47.0212C52.0216 47.1054 52.1202 47.1721 52.229 47.2173C52.3379 47.2624 52.4547 47.2852 52.5726 47.2842C52.6904 47.2832 52.8069 47.2584 52.9149 47.2114L59.4774 44.3836C59.6832 44.2925 59.8461 44.1258 59.9325 43.9179C60.0188 43.7101 60.0221 43.477 59.9415 43.2669ZM6.95281 45.2426L2.00164 43.1075L7.95125 27.5508L9.41023 28.07L6.59773 36.0645C6.52003 36.2846 6.53293 36.5265 6.63358 36.737C6.73424 36.9475 6.9144 37.1095 7.13445 37.1872C7.3545 37.2649 7.5964 37.252 7.80694 37.1513C8.01748 37.0507 8.17941 36.8705 8.25711 36.6504L11.0626 28.6641L13.2012 29.427L6.95281 45.2426ZM17.3438 50.4047C17.1541 50.5869 16.9005 50.6876 16.6375 50.6852C16.3744 50.6827 16.1228 50.5774 15.9364 50.3918C15.75 50.2062 15.6437 49.955 15.6402 49.6919C15.6367 49.4289 15.7363 49.1749 15.9177 48.9844L17.7927 47.1094C17.9337 46.9689 18.1131 46.8733 18.3084 46.8347C18.5036 46.7961 18.706 46.8161 18.8898 46.8923C19.0737 46.9686 19.2309 47.0975 19.3416 47.2629C19.4523 47.4284 19.5115 47.6229 19.5118 47.8219C19.5122 47.9542 19.4864 48.0852 19.4357 48.2073C19.385 48.3294 19.3105 48.4402 19.2165 48.5333L17.3438 50.4047ZM20.3227 52.7672C20.27 52.8188 20.2231 52.8739 20.1762 52.929L20.1669 52.9184C20.0742 53.0154 19.9632 53.0929 19.8402 53.1464C19.7172 53.1998 19.5848 53.2282 19.4507 53.2297C19.3166 53.2313 19.1835 53.2061 19.0593 53.1555C18.9351 53.1049 18.8223 53.03 18.7274 52.9353C18.6325 52.8405 18.5576 52.7277 18.5069 52.6035C18.4562 52.4793 18.4309 52.3463 18.4323 52.2122C18.4338 52.0781 18.462 51.9457 18.5154 51.8226C18.5687 51.6996 18.6461 51.5885 18.743 51.4958L20.4634 49.7766C20.5149 49.7251 20.5641 49.6712 20.611 49.6161L20.6192 49.6243C20.8093 49.4424 21.063 49.3422 21.326 49.3451C21.589 49.3479 21.8405 49.4537 22.0266 49.6396C22.2127 49.8255 22.3186 50.0769 22.3216 50.3399C22.3247 50.6029 22.2247 50.8567 22.043 51.0469L20.3227 52.7672ZM22.9852 55.4297C22.7937 55.6018 22.5434 55.6938 22.2861 55.687C22.0287 55.6802 21.7837 55.575 21.6015 55.3931C21.4193 55.2112 21.3137 54.9664 21.3065 54.709C21.2992 54.4517 21.3909 54.2013 21.5626 54.0094L23.4376 52.1344C23.5285 52.0314 23.6396 51.9481 23.764 51.8897C23.8883 51.8312 24.0234 51.7988 24.1607 51.7945C24.2981 51.7903 24.4348 51.8141 24.5626 51.8647C24.6904 51.9153 24.8065 51.9915 24.9037 52.0886C25.0009 52.1857 25.0772 52.3017 25.1279 52.4295C25.1785 52.5572 25.2025 52.694 25.1983 52.8313C25.1942 52.9687 25.1619 53.1037 25.1036 53.2281C25.0452 53.3526 24.962 53.4637 24.8591 53.5547L22.9852 55.4297ZM27.6821 56.0696L25.8071 57.9446C25.617 58.1264 25.3633 58.2266 25.1003 58.2238C24.8373 58.2209 24.5858 58.1152 24.3997 57.9293C24.2137 57.7434 24.1078 57.492 24.1047 57.229C24.1016 56.9659 24.2016 56.7122 24.3833 56.5219L26.1036 54.8028C26.1552 54.7512 26.2044 54.6973 26.2512 54.6422L26.2595 54.6504C26.4495 54.4686 26.7032 54.3684 26.9663 54.3713C27.2293 54.3741 27.4807 54.4798 27.6668 54.6658C27.8529 54.8517 27.9588 55.103 27.9619 55.3661C27.965 55.6291 27.865 55.8829 27.6833 56.0731L27.6821 56.0696ZM44.1305 49.7883C43.8969 50.0245 43.5829 50.1641 43.251 50.179C42.9192 50.194 42.5938 50.0834 42.3399 49.8692L41.6544 49.2985C41.6065 49.2289 41.5489 49.1665 41.4833 49.1133L39.9024 47.843C39.7202 47.7061 39.492 47.6453 39.2658 47.6735C39.0397 47.7017 38.8333 47.8166 38.6903 47.994C38.5472 48.1714 38.4787 48.3974 38.4991 48.6244C38.5195 48.8514 38.6273 49.0616 38.7997 49.2106L40.1637 50.311C40.2016 50.3634 40.2448 50.4117 40.2927 50.4551C40.4282 50.5751 40.5377 50.7215 40.6145 50.8854C40.6913 51.0493 40.7337 51.2272 40.7392 51.4081C40.7447 51.589 40.7131 51.7691 40.6464 51.9374C40.5797 52.1056 40.4792 52.2584 40.3512 52.3864L40.302 52.4356C40.0798 52.6588 39.7852 52.7956 39.4713 52.8213C39.1573 52.8471 38.8444 52.7602 38.5887 52.5762L37.2305 51.6036L37.2165 51.593L36.7032 51.2262C36.5136 51.0906 36.2779 51.0358 36.0479 51.0739C35.8179 51.112 35.6125 51.24 35.4768 51.4295C35.3412 51.6191 35.2864 51.8549 35.3245 52.0848C35.3626 52.3148 35.4906 52.5202 35.6802 52.6559L36.2028 53.0297C36.3579 53.1428 36.4867 53.2881 36.5803 53.4556C36.6739 53.6232 36.73 53.8091 36.7448 54.0005C36.7596 54.1918 36.7328 54.3841 36.6661 54.5641C36.5995 54.7441 36.4946 54.9075 36.3587 55.043L36.286 55.1157C36.0469 55.3545 35.7258 55.4934 35.388 55.5041C35.0502 55.5147 34.721 55.3964 34.4673 55.1731L33.0024 53.884C32.9183 53.7968 32.817 53.7279 32.705 53.6816C32.5929 53.6354 32.4725 53.6128 32.3513 53.6154C32.2301 53.6179 32.1108 53.6455 32.0008 53.6964C31.8907 53.7473 31.7924 53.8203 31.712 53.911C31.6316 54.0018 31.5708 54.1081 31.5335 54.2234C31.4962 54.3388 31.4831 54.4606 31.4951 54.5812C31.5071 54.7018 31.544 54.8186 31.6033 54.9243C31.6626 55.03 31.7432 55.1223 31.8399 55.1954L32.338 55.636C32.4737 55.7553 32.5836 55.9011 32.661 56.0643C32.7384 56.2276 32.7817 56.405 32.7881 56.5856C32.7946 56.7661 32.7641 56.9461 32.6986 57.1145C32.6331 57.2829 32.5339 57.4362 32.4071 57.5649L32.3075 57.6657C32.0813 57.8942 31.7802 58.0334 31.4596 58.0575C31.1389 58.0816 30.8204 57.9891 30.5626 57.7969L29.2969 56.8524C29.5644 56.4346 29.7146 55.9526 29.7316 55.4568C29.7487 54.9611 29.632 54.4699 29.3939 54.0347C29.1558 53.5995 28.8049 53.2365 28.3782 52.9836C27.9514 52.7307 27.4645 52.5973 26.9684 52.5973H26.8993C26.8375 51.9099 26.5208 51.2705 26.0114 50.8049C25.5019 50.3393 24.8367 50.0812 24.1466 50.0813H24.0751C24.0113 49.3839 23.6843 48.7369 23.1605 48.2719C22.6368 47.8069 21.9556 47.5589 21.2555 47.5782C21.2004 46.9321 20.9176 46.3266 20.4575 45.8696C19.9388 45.3518 19.2358 45.0609 18.5028 45.0609C17.7699 45.0609 17.0669 45.3518 16.5481 45.8696L15.6024 46.8141L9.56726 43.4157L13.9595 32.3016L17.9368 34.6794C18.0415 34.742 18.1581 34.7822 18.2791 34.7973C18.4002 34.8124 18.523 34.8022 18.6399 34.7672L21.9821 33.7723C22.5405 33.6078 23.129 33.5727 23.7031 33.6695C24.2771 33.7664 24.8215 33.9927 25.295 34.3313L25.7567 34.6641L21.0587 38.1504C20.7101 38.4092 20.4265 38.7457 20.2305 39.133C20.0345 39.5204 19.9314 39.9481 19.9294 40.3823C19.9273 40.8164 20.0264 41.2451 20.2187 41.6343C20.4111 42.0235 20.6914 42.3626 21.0376 42.6247C21.6904 43.1148 22.4762 43.3962 23.2917 43.4319C24.1073 43.4677 24.9146 43.2562 25.6079 42.8251L29.2969 40.5036C29.7259 41.359 30.5274 42.5215 31.9196 43.2376C33.5333 44.0672 35.495 44.0883 37.7567 43.3008L43.9677 47.7739C44.1237 47.8866 44.2535 48.0318 44.3479 48.1995C44.4424 48.3672 44.4994 48.5534 44.5149 48.7453C44.5303 48.9371 44.504 49.1301 44.4377 49.3108C44.3713 49.4915 44.2665 49.6556 44.1305 49.7919V49.7883ZM45.2602 46.5352L38.4059 41.6016C38.287 41.5162 38.1486 41.4618 38.0033 41.4434C37.858 41.425 37.7104 41.4431 37.5739 41.4961C35.6169 42.2555 33.9915 42.3165 32.7399 41.6825C31.0829 40.8399 30.5755 38.9977 30.5708 38.9872C30.5366 38.8531 30.4711 38.729 30.3799 38.6249C30.2886 38.5209 30.1741 38.4399 30.0456 38.3885C29.9171 38.3371 29.7783 38.3168 29.6405 38.3292C29.5026 38.3416 29.3697 38.3863 29.2524 38.4598L24.6727 41.3321C24.2815 41.5752 23.8257 41.6942 23.3655 41.6733C22.9053 41.6524 22.4622 41.4926 22.0946 41.2149C21.9661 41.1178 21.8619 40.9921 21.7905 40.8477C21.7191 40.7033 21.6823 40.5442 21.6831 40.3832C21.6839 40.2221 21.7222 40.0634 21.7951 39.9197C21.8679 39.776 21.9733 39.6513 22.1028 39.5555L29.6661 33.9422C30.088 33.6299 30.5697 33.4079 31.0813 33.2902C31.5928 33.1724 32.1231 33.1614 32.6391 33.2579L40.6641 34.7649C40.8466 34.7999 41.0355 34.7757 41.2032 34.6958L46.0735 32.3825L50.6286 43.909L45.2602 46.5352ZM53.0473 45.2391L46.7954 29.4188L48.9352 28.6559L51.7395 36.6422C51.8172 36.8623 51.9792 37.0425 52.1897 37.1431C52.4002 37.2438 52.6421 37.2567 52.8622 37.179C53.0822 37.1013 53.2624 36.9393 53.3631 36.7288C53.4637 36.5183 53.4766 36.2764 53.3989 36.0563L50.5864 28.0618L52.0454 27.5426L57.995 43.0993L53.0473 45.2391Z" fill="#042181"/>
<path d="M30 27.5391C32.7234 27.5391 35.3856 26.7315 37.6499 25.2185C39.9143 23.7055 41.6792 21.555 42.7214 19.0389C43.7636 16.5229 44.0363 13.7543 43.505 11.0832C42.9737 8.41221 41.6622 5.95871 39.7365 4.03301C37.8108 2.1073 35.3573 0.795884 32.6863 0.264584C30.0153 -0.266717 27.2467 0.00596613 24.7306 1.04815C22.2146 2.09033 20.0641 3.85521 18.5511 6.1196C17.038 8.38398 16.2305 11.0462 16.2305 13.7695C16.2345 17.4202 17.6865 20.9202 20.2679 23.5016C22.8493 26.083 26.3493 27.535 30 27.5391ZM30 1.75782C32.3757 1.75782 34.698 2.46229 36.6734 3.78216C38.6487 5.10202 40.1882 6.978 41.0974 9.17285C42.0065 11.3677 42.2444 13.7829 41.7809 16.1129C41.3174 18.443 40.1734 20.5832 38.4936 22.2631C36.8137 23.943 34.6734 25.087 32.3434 25.5505C30.0133 26.0139 27.5982 25.7761 25.4033 24.8669C23.2085 23.9578 21.3325 22.4182 20.0126 20.4429C18.6928 18.4676 17.9883 16.1452 17.9883 13.7695C17.9917 10.5849 19.2583 7.53163 21.5102 5.27974C23.7621 3.02784 26.8153 1.76123 30 1.75782Z" fill="#042181"/>
<path d="M30 24.0234C32.028 24.0234 34.0105 23.4221 35.6968 22.2953C37.383 21.1686 38.6973 19.5672 39.4734 17.6935C40.2495 15.8199 40.4525 13.7582 40.0569 11.7691C39.6612 9.78004 38.6846 7.95296 37.2506 6.51893C35.8166 5.08489 33.9895 4.1083 32.0004 3.71266C30.0114 3.31701 27.9497 3.52007 26.076 4.29616C24.2023 5.07226 22.6009 6.38652 21.4742 8.07277C20.3475 9.75902 19.7461 11.7415 19.7461 13.7695C19.7492 16.4881 20.8305 19.0944 22.7528 21.0167C24.6751 22.939 27.2814 24.0203 30 24.0234ZM30 5.27344C31.6804 5.27344 33.323 5.77173 34.7202 6.70529C36.1174 7.63885 37.2063 8.96576 37.8494 10.5182C38.4924 12.0707 38.6607 13.779 38.3328 15.427C38.005 17.0751 37.1958 18.589 36.0076 19.7772C34.8194 20.9654 33.3056 21.7746 31.6575 22.1024C30.0094 22.4302 28.3011 22.262 26.7487 21.6189C25.1962 20.9759 23.8693 19.8869 22.9358 18.4897C22.0022 17.0925 21.5039 15.4499 21.5039 13.7695C21.5064 11.517 22.4023 9.35742 23.9951 7.76463C25.5879 6.17184 27.7475 5.27592 30 5.27344Z" fill="#042181"/>
<path d="M47.6885 13.7695C47.6885 13.885 47.7112 13.9992 47.7554 14.1059C47.7995 14.2125 47.8643 14.3094 47.9459 14.391C48.0275 14.4726 48.1244 14.5374 48.231 14.5815C48.3377 14.6257 48.452 14.6484 48.5674 14.6484H53.4377C53.6708 14.6484 53.8944 14.5558 54.0592 14.391C54.224 14.2262 54.3166 14.0026 54.3166 13.7695C54.3166 13.5364 54.224 13.3129 54.0592 13.1481C53.8944 12.9832 53.6708 12.8906 53.4377 12.8906H48.5674C48.3343 12.8906 48.1107 12.9832 47.9459 13.1481C47.7811 13.3129 47.6885 13.5364 47.6885 13.7695Z" fill="#3AC19B"/>
<path d="M46.7413 9.7631C46.8975 9.76431 47.0512 9.72385 47.1866 9.64591L50.8381 7.50021C51.0402 7.38226 51.187 7.18889 51.2465 6.96264C51.3059 6.73638 51.2731 6.49578 51.1551 6.29376C51.0372 6.09174 50.8438 5.94485 50.6176 5.8854C50.3913 5.82596 50.1507 5.85882 49.9487 5.97677L46.2959 8.12599C46.1277 8.22285 45.9962 8.3727 45.9221 8.55216C45.8479 8.73162 45.8353 8.93058 45.8862 9.11797C45.937 9.30535 46.0485 9.47062 46.2032 9.58797C46.3579 9.70532 46.5471 9.76813 46.7413 9.76661V9.7631Z" fill="#3AC19B"/>
<path d="M46.296 19.4131L49.9488 21.5623C50.0488 21.6207 50.1594 21.6589 50.2741 21.6745C50.3889 21.6902 50.5056 21.6831 50.6176 21.6537C50.7297 21.6243 50.8348 21.5731 50.927 21.503C51.0193 21.4329 51.0968 21.3454 51.1552 21.2453C51.2136 21.1453 51.2517 21.0348 51.2674 20.92C51.2831 20.8052 51.276 20.6885 51.2466 20.5765C51.2171 20.4644 51.1659 20.3593 51.0959 20.2671C51.0258 20.1748 50.9383 20.0973 50.8382 20.0389L47.1867 17.8944C47.0871 17.8337 46.9765 17.7935 46.8612 17.776C46.7459 17.7586 46.6284 17.7642 46.5153 17.7926C46.4022 17.821 46.296 17.8716 46.2026 17.9415C46.1093 18.0114 46.0309 18.0992 45.9718 18.1997C45.9127 18.3002 45.8742 18.4114 45.8586 18.5269C45.8429 18.6424 45.8504 18.7599 45.8805 18.8725C45.9107 18.9851 45.963 19.0906 46.0343 19.1828C46.1057 19.275 46.1946 19.3521 46.296 19.4096V19.4131Z" fill="#3AC19B"/>
<path d="M6.5625 14.6484H11.4328C11.6659 14.6484 11.8895 14.5558 12.0543 14.391C12.2191 14.2262 12.3117 14.0026 12.3117 13.7695C12.3117 13.5364 12.2191 13.3129 12.0543 13.1481C11.8895 12.9832 11.6659 12.8906 11.4328 12.8906H6.5625C6.3294 12.8906 6.10585 12.9832 5.94102 13.1481C5.77619 13.3129 5.68359 13.5364 5.68359 13.7695C5.68359 14.0026 5.77619 14.2262 5.94102 14.391C6.10585 14.5558 6.3294 14.6484 6.5625 14.6484Z" fill="#3AC19B"/>
<path d="M9.16193 7.50021L12.8135 9.64474C12.9131 9.70538 13.0237 9.7456 13.1389 9.76307C13.2542 9.78054 13.3718 9.77491 13.4849 9.74649C13.5979 9.71808 13.7042 9.66746 13.7975 9.59758C13.8908 9.5277 13.9693 9.43996 14.0284 9.33946C14.0874 9.23895 14.1259 9.1277 14.1416 9.01218C14.1573 8.89666 14.1498 8.77918 14.1196 8.66658C14.0894 8.55398 14.0372 8.4485 13.9658 8.3563C13.8945 8.26409 13.8055 8.187 13.7041 8.1295L10.0514 5.97677C9.95135 5.91837 9.8408 5.88024 9.72603 5.86456C9.61126 5.84888 9.49454 5.85597 9.38251 5.8854C9.15625 5.94485 8.96288 6.09174 8.84493 6.29376C8.72699 6.49578 8.69412 6.73638 8.75357 6.96263C8.81302 7.18889 8.95991 7.38226 9.16193 7.50021Z" fill="#3AC19B"/>
<path d="M12.8135 17.8982L9.16193 20.0392C8.95991 20.1571 8.81302 20.3505 8.75357 20.5768C8.69412 20.803 8.72699 21.0436 8.84493 21.2456C8.96288 21.4477 9.15625 21.5946 9.38251 21.654C9.60876 21.7134 9.84936 21.6806 10.0514 21.5626L13.7041 19.4169C13.8055 19.3594 13.8945 19.2823 13.9658 19.1901C14.0372 19.0979 14.0894 18.9925 14.1196 18.8799C14.1498 18.7673 14.1573 18.6498 14.1416 18.5342C14.1259 18.4187 14.0874 18.3075 14.0284 18.207C13.9693 18.1065 13.8908 18.0187 13.7975 17.9488C13.7042 17.879 13.5979 17.8283 13.4849 17.7999C13.3718 17.7715 13.2542 17.7659 13.1389 17.7834C13.0237 17.8008 12.9131 17.8411 12.8135 17.9017V17.8982Z" fill="#3AC19B"/>
<path d="M28.0278 17.5924C28.1102 17.681 28.21 17.7516 28.3209 17.8C28.4317 17.8483 28.5514 17.8732 28.6724 17.8732C28.7933 17.8732 28.913 17.8483 29.0239 17.8C29.1348 17.7516 29.2345 17.681 29.3169 17.5924L35.3333 11.1471C35.4121 11.0624 35.4735 10.9631 35.5139 10.8548C35.5543 10.7464 35.5729 10.6312 35.5688 10.5156C35.5647 10.4 35.5378 10.2864 35.4898 10.1812C35.4417 10.076 35.3734 9.98135 35.2888 9.90255C35.2041 9.82376 35.1048 9.76241 34.9965 9.722C34.8881 9.6816 34.7729 9.66293 34.6573 9.66707C34.5417 9.6712 34.4281 9.69806 34.3229 9.7461C34.2177 9.79415 34.123 9.86244 34.0443 9.94708L28.6712 15.7033L25.9548 12.7936C25.7957 12.6226 25.5752 12.5219 25.3418 12.5136C25.1084 12.5052 24.8812 12.5899 24.7103 12.749C24.5393 12.9082 24.4386 13.1287 24.4303 13.3621C24.4219 13.5955 24.5066 13.8226 24.6657 13.9936L28.0278 17.5924Z" fill="#042181"/>
</g>
<defs>
<clipPath id="clip0_299_1429">
<rect width="60" height="60" fill="white"/>
</clipPath>
</defs>
</svg>
