<svg width="44" height="44" viewBox="0 0 44 44" fill="none" xmlns="http://www.w3.org/2000/svg">
<g clip-path="url(#clip0_655_3345)">
<path d="M10.3971 0C7.55299 0 5.24023 2.31276 5.24023 5.15684C5.24023 8.00093 7.55299 10.3996 10.3971 10.3996C13.2412 10.3996 15.5539 8.00093 15.5539 5.15684C15.5539 2.31276 13.2412 0 10.3971 0Z" fill="#C0F8E8"/>
<path d="M38.76 5.15684C38.76 2.31276 36.4472 0 33.6031 0C30.759 0 28.4463 2.31276 28.4463 5.15684C28.4463 8.00093 30.759 10.3996 33.6031 10.3996C36.4472 10.3996 38.76 8.00093 38.76 5.15684Z" fill="#C0F8E8"/>
<path d="M15.0557 39.1127C18.0565 41.6307 18.7952 42.34 19.5984 43.0229C20.3639 43.6738 21.3194 43.9999 22.2751 43.9999C23.2395 43.9999 24.2038 43.6675 24.9694 43.0053C26.3678 41.7946 27.8833 40.3977 29.2464 39.2028C28.5147 38.957 27.8256 38.5646 27.2507 37.9891C25.7198 36.4602 25.2947 34.144 26.2623 32.1169C23.6336 30.7252 20.3725 30.7288 17.7423 32.1227C18.7052 34.1475 18.2808 36.4609 16.7494 37.9904C16.2528 38.4868 15.6749 38.8613 15.0557 39.1127Z" fill="#C0F8E8"/>
<path d="M22.0003 25.8702C23.4243 25.8702 24.5787 24.7158 24.5787 23.2918C24.5787 21.8678 23.4243 20.7134 22.0003 20.7134C20.5763 20.7134 19.4219 21.8678 19.4219 23.2918C19.4219 24.7158 20.5763 25.8702 22.0003 25.8702Z" fill="#C0F8E8"/>
<path d="M22.0003 16.5236C20.2352 13.3433 17.1884 10.5899 12.8675 10.5899C6.92503 10.5899 2.44434 15.4069 2.44434 21.7937C2.44434 27.4355 6.28146 31.5723 12.3457 36.8056C13.2384 37.0739 14.2388 36.853 14.9273 36.1663C15.9838 35.1125 15.8982 33.3968 14.8228 32.4195C9.28824 27.3911 7.60127 25.0508 7.60127 22.4296H10.1797C10.1797 24.0539 11.764 26.1076 16.1108 30.0968C19.6965 27.9927 24.3057 27.9973 27.89 30.097C32.2367 26.1077 33.8212 24.0539 33.8212 22.4296H36.3996C36.3996 25.0508 34.7125 27.3911 29.178 32.4195C28.1087 33.3915 28.0121 35.1075 29.0723 36.165C29.9417 37.032 31.2949 37.1297 32.3136 36.4673C38.7618 30.5926 41.5565 26.948 41.5565 21.7936C41.5565 15.4067 37.0757 10.5898 31.1333 10.5898C26.8109 10.5899 23.7654 13.3433 22.0003 16.5236ZM27.1571 23.2919C27.1571 26.136 24.8444 28.4488 22.0003 28.4488C19.1562 28.4488 16.8434 26.136 16.8434 23.2919C16.8434 20.4478 19.1562 18.1351 22.0003 18.1351C24.8444 18.1351 27.1571 20.4478 27.1571 23.2919Z" fill="#C0F8E8"/>
</g>
<defs>
<clipPath id="clip0_655_3345">
<rect width="44" height="44" fill="white"/>
</clipPath>
</defs>
</svg>
