<svg width="34" height="34" viewBox="0 0 34 34" fill="none" xmlns="http://www.w3.org/2000/svg">
<path d="M33.6445 7.72206C33.0783 5.50134 31.8713 3.58646 30.1541 2.1844C28.4812 0.818665 26.4319 0.0664062 24.3837 0.0664062C22.8133 0.0664062 21.3155 0.489227 19.9317 1.32294C18.8388 1.98155 17.8557 2.87726 16.9971 3.99527C15.044 1.44978 12.4656 0.0664062 9.61378 0.0664062C7.56634 0.0664062 5.51787 0.818665 3.84526 2.1844C2.12855 3.58646 0.921827 5.50108 0.355558 7.7218C-0.0597404 9.35057 -0.248842 11.6364 0.5706 14.3855H5.71631L7.57438 10.6691C7.74325 10.3316 8.08799 10.1184 8.46516 10.1184C8.84259 10.1184 9.18733 10.3316 9.35594 10.6691L12.7323 17.4215L16.1086 10.6691C16.2772 10.3316 16.622 10.1184 16.9994 10.1184C17.3766 10.1184 17.7213 10.3316 17.8902 10.6691L19.7483 14.3855H26.6859C27.2361 14.3855 27.6817 14.8314 27.6817 15.3813C27.6817 15.9315 27.2361 16.3774 26.6859 16.3774H19.1327C18.7555 16.3774 18.4108 16.1642 18.2419 15.8267L16.9994 13.3414L13.6231 20.0939C13.4542 20.4313 13.1094 20.6443 12.7323 20.6443C12.3549 20.6443 12.0101 20.4313 11.8415 20.0939L8.46542 13.3414L7.22264 15.827C7.05377 16.1642 6.70903 16.3774 6.33186 16.3774H1.31663C1.64944 17.1157 2.05618 17.8799 2.55008 18.6672C5.26132 22.9911 9.96164 26.9975 16.5198 30.5749C16.6684 30.6561 16.8326 30.6965 16.9968 30.6965C17.161 30.6965 17.3249 30.6561 17.4736 30.5751C24.0338 26.9973 28.7354 22.9911 31.4479 18.6674C34.3786 13.9956 34.2601 10.1368 33.6445 7.72206Z" fill="#042181"/>
</svg>
