<svg width="34" height="34" viewBox="0 0 34 34" fill="none" xmlns="http://www.w3.org/2000/svg">
<g clip-path="url(#clip0_615_1075)">
<path d="M19.3119 22.5853C19.1849 22.4463 19.0242 22.3423 18.8582 22.2556C18.4968 22.0671 18.1015 21.9528 17.709 21.8496V24.891C18.3461 24.819 19.0774 24.5878 19.4119 23.9931C19.5716 23.709 19.6034 23.3599 19.5384 23.0437C19.5031 22.8723 19.4302 22.715 19.3119 22.5853Z" fill="#042181"/>
<path d="M19.4102 23.999C19.4114 23.9968 19.4122 23.9955 19.4135 23.9932C19.4124 23.9951 19.4113 23.997 19.4102 23.999Z" fill="#042181"/>
<path d="M14.7211 17.7234C14.6115 17.8833 14.5428 18.065 14.5239 18.2581C14.5049 18.4516 14.5155 18.6669 14.5891 18.8491C14.6591 19.0227 14.8057 19.1509 14.9571 19.2541C15.1269 19.3696 15.3137 19.4598 15.504 19.5363C15.6636 19.6006 15.8431 19.662 16.0367 19.7214V16.9692C15.5477 17.0736 15.0136 17.2963 14.7211 17.7234Z" fill="#042181"/>
<path d="M19.4247 23.9707C19.4207 23.9778 19.4163 23.9853 19.4121 23.9931C19.4171 23.984 19.421 23.9773 19.4247 23.9707Z" fill="#042181"/>
<path d="M19.4414 23.9422C19.4424 23.9403 19.4426 23.9401 19.4414 23.9422V23.9422Z" fill="#042181"/>
<path d="M18.7804 7.39785C21.3668 5.22511 23.0951 0.330241 22.0315 0.116151C20.6183 -0.168423 17.5495 1.0794 16.0662 1.29925C13.9625 1.55326 11.6712 -0.982061 10.385 0.431126C9.33929 1.58014 11.1347 5.75874 13.9437 7.57914C5.56319 11.6981 -6.21624 32.3754 14.3336 33.8757C42.7678 35.9517 28.5298 11.4116 18.7804 7.39785ZM21.2223 23.7049C21.1349 24.5111 20.7077 25.2401 20.0691 25.735C19.3948 26.2575 18.5491 26.5006 17.7088 26.5687V27.4594C17.7088 27.6977 17.6047 27.9282 17.4263 28.0859C17.1811 28.3029 16.8208 28.3564 16.5231 28.2193C16.2293 28.0841 16.0362 27.7827 16.0362 27.4594V26.4859C15.8922 26.4585 15.7491 26.426 15.6077 26.3871C14.8224 26.1714 14.094 25.7508 13.5619 25.1285C13.2968 24.8184 13.0807 24.4664 12.9313 24.0865C12.8923 23.9872 12.8575 23.8861 12.827 23.7838C12.7994 23.6913 12.7709 23.5972 12.761 23.5007C12.7445 23.3388 12.7766 23.1737 12.852 23.0295C13.0071 22.733 13.3338 22.5538 13.6674 22.5836C13.9957 22.6127 14.2835 22.8406 14.3869 23.1536C14.4187 23.25 14.4403 23.3488 14.4761 23.4441C14.5115 23.5389 14.5543 23.6309 14.6047 23.7186C14.704 23.8913 14.8285 24.0505 14.9719 24.1886C15.2674 24.4734 15.6438 24.6584 16.0362 24.7685V21.4594C15.2689 21.2607 14.4769 21.0042 13.8433 20.5115C13.5353 20.272 13.274 19.9744 13.1029 19.6221C12.9223 19.2503 12.8475 18.8362 12.8445 18.4248C12.8414 18.0071 12.9207 17.5931 13.095 17.2125C13.2582 16.8561 13.4932 16.5362 13.7813 16.271C14.3973 15.704 15.2156 15.3878 16.0363 15.2716V15.1988V14.347C16.0363 14.1087 16.1404 13.8782 16.3188 13.7204C16.5641 13.5035 16.9243 13.4499 17.222 13.587C17.5158 13.7223 17.7089 14.0236 17.7089 14.347V15.1988V15.2665C17.8182 15.2803 17.9273 15.2968 18.0358 15.3165C18.8417 15.4623 19.63 15.7951 20.2194 16.3762C20.4986 16.6514 20.7272 16.9793 20.8879 17.337C20.9328 17.4367 20.9721 17.5388 21.0061 17.6429C21.0378 17.7399 21.0696 17.8399 21.0847 17.9412C21.1089 18.1028 21.0842 18.2699 21.015 18.4178C20.8733 18.7209 20.5553 18.9138 20.2208 18.8995C19.8922 18.8852 19.5944 18.6712 19.4767 18.364C19.4417 18.2726 19.4242 18.1759 19.3884 18.0848C19.3523 17.9925 19.3056 17.9045 19.2518 17.8214C19.1471 17.6598 19.0115 17.5212 18.8567 17.407C18.5215 17.1595 18.1149 17.0305 17.7086 16.9585V20.1252C18.1915 20.2408 18.6747 20.3669 19.1373 20.5493C19.8364 20.825 20.4989 21.2477 20.8805 21.9143C20.8213 21.8105 20.7637 21.7092 20.8825 21.9177C20.9992 22.1225 20.9435 22.0249 20.8849 21.9223C21.1886 22.4574 21.2883 23.0972 21.2223 23.7049Z" fill="#042181"/>
<path d="M19.4012 24.0146C19.3963 24.0234 19.392 24.031 19.3887 24.0369C19.3916 24.0318 19.3959 24.0242 19.4012 24.0146Z" fill="#042181"/>
</g>
<defs>
<clipPath id="clip0_615_1075">
<rect width="34" height="34" fill="white"/>
</clipPath>
</defs>
</svg>
