<svg width="44" height="44" viewBox="0 0 44 44" fill="none" xmlns="http://www.w3.org/2000/svg">
<g clip-path="url(#clip0_655_3379)">
<path d="M44 21.2573C44 31.3624 36.5465 39.7592 26.8486 41.2397C26.9304 40.7912 26.9534 40.3268 26.8983 39.8562C26.8983 39.8562 26.8404 39.3609 26.7646 38.7128C30.2077 38.1262 33.3163 36.5463 35.7803 34.2742C35.6324 34.1512 35.4851 33.9916 35.3398 33.7798C34.6854 32.825 35.5411 31.8776 35.5411 31.0426C35.5411 30.2235 33.8899 30.2909 33.8295 29.7485C33.6208 27.8698 34.9823 27.8442 35.7082 27.1184C36.434 26.3925 34.9907 24.7423 34.0584 24.8488C33.1198 24.949 30.4779 24.4153 30.7193 22.394C31.0135 19.9321 27.5827 20.1493 27.0915 19.0002C26.3753 17.3252 27.5659 15.2707 29.1187 14.804C31.3181 14.1429 33.4848 12.3486 33.3155 10.3512C33.1238 8.08902 32.0999 6.04885 30.4134 4.83691C28.6584 4.12593 26.7661 3.68629 24.7862 3.57536C23.0193 3.64524 21.4657 4.03793 21.5366 4.8469C21.7104 6.82934 27.3478 7.34426 26.4018 9.19744C25.9086 10.1635 22.2071 11.527 22.8984 12.9648C23.348 13.8998 24.4546 13.0984 24.0415 14.8934C23.8514 15.7194 23.1272 17.2712 22.0134 17.3714C20.8745 17.4777 19.9262 14.4605 16.8262 14.3616C15.3607 14.3147 13.296 16.6482 15.0491 18.3036C16.1108 19.3061 18.1029 17.0987 18.6909 18.8231C19.1052 20.0382 18.6351 22.5908 20.5688 23.6575C21.2738 24.0464 22.3544 24.3854 23.4232 24.9285C21.8369 25.2525 19.8876 25.857 17.5859 26.7436L15.6466 26.2319C16.4584 25.5561 17.7775 25.0804 17.4456 23.6036C16.9581 21.434 13.191 22.2523 10.5939 19.6553C9.79719 18.8587 8.09779 16.2134 8.10477 13.0354C6.81022 15.4943 6.07343 18.2908 6.07343 21.2574C6.07343 22.1705 6.1431 23.0678 6.27704 23.9441C6.24649 23.9436 6.21629 23.9383 6.18581 23.9383C5.36792 23.9383 4.56579 24.1101 3.82239 24.435C3.65818 23.3994 3.57054 22.3386 3.57054 21.2575C3.57054 10.1112 12.6389 1.04248 23.7852 1.04248C34.9316 1.04234 44 10.111 44 21.2573ZM28.8365 27.1493L23.8994 29.4187L23.976 28.3429L27.1743 26.8991C26.7181 26.8665 26.2455 26.854 25.7736 26.854C24.0065 26.854 21.0209 27.7485 17.7187 29.0593L7.128 26.2658C6.13828 26.0046 5.08458 26.1655 4.21774 26.7101L3.697 27.0372C3.18863 27.3566 3.18324 28.0957 3.68686 28.4225L10.0531 32.5527C8.53233 33.3305 7.08946 34.1204 5.81749 34.8748L2.5507 33.1453C2.01709 32.8628 1.38621 32.8293 0.825787 33.0538L0.516564 33.1777C0.055427 33.3623 -0.137756 33.9107 0.105969 34.3436L1.90558 37.5409L1.90637 37.5406C1.22739 38.1248 0.840453 38.6092 0.840453 38.9445C0.840453 39.9478 2.07519 40.1986 3.16354 40.1986C5.10471 40.1986 30.7403 34.329 30.7403 29.0113C30.7401 27.9582 30.0199 27.4315 28.8365 27.1493ZM18.0278 37.5316L23.669 35.5444C23.9174 35.4569 24.183 35.6225 24.2136 35.8842L24.7082 40.1128C24.8317 41.1694 24.2634 42.1862 23.2987 42.6347L22.7696 42.8806C22.4392 43.0342 22.0472 42.9518 21.8065 42.6784L17.8559 38.1907C17.6636 37.9721 17.7532 37.6284 18.0278 37.5316Z" fill="#C0F8E8"/>
</g>
<defs>
<clipPath id="clip0_655_3379">
<rect width="44" height="44" fill="white"/>
</clipPath>
</defs>
</svg>
