<svg width="34" height="34" viewBox="0 0 34 34" fill="none" xmlns="http://www.w3.org/2000/svg">
<g clip-path="url(#clip0_615_1160)">
<path d="M29.3108 21.1649C28.4892 21.6749 27.71 22.0716 27.0158 22.3549C26.5342 22.5674 26.01 22.6666 25.5 22.6666C24.99 22.6666 24.4658 22.5674 23.9842 22.3549C22.7517 21.8449 21.25 20.9949 19.7908 19.8333H6.26167L8.35833 15.0166C8.585 14.5066 9.095 14.1666 9.6475 14.1666H15.2292C14.8325 13.2883 14.5208 12.3391 14.3508 11.3333H9.6475C7.96167 11.3333 6.43167 12.3391 5.75167 13.8833L2.94667 20.3291C2.9325 20.3574 2.94667 20.3858 2.9325 20.4283C1.20417 21.3066 0 23.0774 0 25.1458V30.4583C0 32.4133 1.58667 33.9999 3.54167 33.9999C5.49667 33.9999 7.08333 32.4133 7.08333 30.4583V29.7499H24.0833V30.4583C24.0833 32.4133 25.67 33.9999 27.625 33.9999C29.58 33.9999 31.1667 32.4133 31.1667 30.4583V25.1458C31.1667 23.5449 30.4442 22.1141 29.3108 21.1649ZM8.5 26.9166H5.66667C4.8875 26.9166 4.25 26.2791 4.25 25.4999C4.25 24.7208 4.8875 24.0833 5.66667 24.0833H8.5C9.27917 24.0833 9.91667 24.7208 9.91667 25.4999C9.91667 26.2791 9.27917 26.9166 8.5 26.9166ZM25.5 26.9166H22.6667C21.8875 26.9166 21.25 26.2791 21.25 25.4999C21.25 24.7208 21.8875 24.0833 22.6667 24.0833H25.5C26.2792 24.0833 26.9167 24.7208 26.9167 25.4999C26.9167 26.2791 26.2792 26.9166 25.5 26.9166Z" fill="#042181"/>
<path d="M33.2789 2.58681L25.8414 0.0566426C25.6204 -0.0198574 25.3796 -0.0198574 25.1586 0.0566426L17.7211 2.58681C17.289 2.73273 17 3.13789 17 3.59264V9.28481C17 16.2321 24.7548 19.6095 25.0849 19.7497C25.3513 19.8616 25.6487 19.8616 25.9151 19.7497C26.2452 19.6095 34 16.2321 34 9.28481V3.59264C34 3.13789 33.711 2.73273 33.2789 2.58681ZM30.1552 7.95881L26.2593 12.9171C25.7635 13.5504 24.8342 13.6425 24.225 13.1183L21.7458 10.9933C21.1508 10.4847 21.0814 9.58939 21.5928 8.99581C22.1014 8.40223 22.9967 8.33423 23.5889 8.84281L24.9461 10.0059L27.9282 6.21064C28.4113 5.59581 29.3009 5.48673 29.9172 5.97264C30.532 6.45289 30.6397 7.34398 30.1552 7.95881Z" fill="#042181"/>
</g>
<defs>
<clipPath id="clip0_615_1160">
<rect width="34" height="34" fill="white"/>
</clipPath>
</defs>
</svg>
