<svg width="34" height="34" viewBox="0 0 34 34" fill="none" xmlns="http://www.w3.org/2000/svg">
<g clip-path="url(#clip0_615_3100)">
<path d="M14.0117 5.04688H12.0195C11.4694 5.04688 11.0234 5.49274 11.0234 6.04298V8.03518H9.03125C8.48114 8.03518 8.03516 8.48103 8.03516 9.03127V11.0235C8.03516 11.5736 8.48114 12.0196 9.03125 12.0196H18.3199C19.1814 14.8928 21.8152 17.0001 24.9688 17.0001C28.8197 17.0001 31.9415 13.8783 31.9415 10.0274C31.9415 6.17646 28.8197 3.05469 24.9688 3.05469C21.8152 3.05469 19.1814 5.1619 18.3199 8.03518H15.0078V6.04298C15.0078 5.4928 14.5619 5.04688 14.0117 5.04688ZM24.9688 7.03908C26.6192 7.03908 27.9571 8.37697 27.9571 10.0274C27.9571 11.6778 26.6192 13.0157 24.9688 13.0157C23.3184 13.0157 21.9805 11.6778 21.9805 10.0274C21.9805 8.37697 23.3184 7.03908 24.9688 7.03908Z" fill="#042181"/>
<path d="M24.9688 11.0234C25.5189 11.0234 25.9648 10.5775 25.9648 10.0273C25.9648 9.47722 25.5189 9.03125 24.9688 9.03125C24.4186 9.03125 23.9727 9.47722 23.9727 10.0273C23.9727 10.5775 24.4186 11.0234 24.9688 11.0234Z" fill="#042181"/>
<path d="M8.03516 29.2166C15.4993 30.9424 20.912 30.9454 22.9103 30.9454C23.1358 30.9454 23.344 30.8695 23.5204 30.7295L33.6236 22.7607C33.883 22.5547 34.0101 22.2482 33.9994 21.9443C33.9836 21.5014 33.6412 21.2144 33.6318 21.2063C32.2205 19.9872 30.073 20.1434 28.6396 21.3365L25.5936 23.8167C24.6991 24.5611 23.5722 24.9688 22.4085 24.9688H15.0078C14.4573 24.9688 14.0117 24.5233 14.0117 23.9727C14.0117 23.4221 14.4573 22.9766 15.0078 22.9766H22.9766C22.9766 20.776 21.1927 18.9922 18.9922 18.9922C17.1314 18.9922 15.2491 18.5301 13.5497 17.6566C12.7015 17.2208 11.8513 17 11.0234 17C9.86904 17 8.84352 17.4376 8.03516 17.9308V29.2166Z" fill="#042181"/>
<path d="M0.996094 30.9453H5.04688C5.59698 30.9453 6.04297 30.4993 6.04297 29.9492V18.9922H0.996094C0.445984 18.9922 0 19.438 0 19.9883V29.9492C0 30.4993 0.445984 30.9453 0.996094 30.9453Z" fill="#042181"/>
</g>
<defs>
<clipPath id="clip0_615_3100">
<rect width="34" height="34" fill="white"/>
</clipPath>
</defs>
</svg>
