<svg width="120" height="120" viewBox="0 0 120 120" fill="none" xmlns="http://www.w3.org/2000/svg">
<path d="M95.8204 50.6023H85.1407C82.5602 50.6023 80.4609 48.5061 80.4609 45.9295V43.731C80.4609 41.8223 81.6048 40.1236 83.3753 39.4033L94.055 35.0587C97.0038 33.7589 100.594 36.1692 100.5 39.3864V45.9295C100.5 48.5059 98.4009 50.6023 95.8204 50.6023V50.6023ZM95.2158 37.9043L84.5361 42.2489C83.9297 42.4956 83.5381 43.0771 83.5381 43.7307V45.9292C83.5381 46.8115 84.2571 47.5295 85.1407 47.5295H95.8204C96.704 47.5295 97.423 46.8115 97.423 45.9292V39.3861C97.4476 38.5256 96.7871 37.2677 95.2158 37.9043V37.9043Z" fill="#3AC19B"/>
<path d="M56.7014 107.115C57.6928 107.115 58.4965 106.312 58.4965 105.322C58.4965 104.332 57.6928 103.53 56.7014 103.53C55.71 103.53 54.9062 104.332 54.9062 105.322C54.9062 106.312 55.71 107.115 56.7014 107.115Z" fill="#3AC19B"/>
<path d="M118.626 75.0301C114.764 71.5622 109.051 71.1534 104.734 74.0352L80.1676 90.4365L62.8668 90.6534L75.8409 85.6183C79.4676 84.2106 81.307 80.2296 80.0281 76.5542C78.7968 73.0168 75.1291 71.0345 71.495 71.9447L52.4535 76.7145C49.5214 75.5401 34.8963 70.3465 24.5153 78.9388L15.5804 84.9693L14.9647 84.056C14.516 83.3616 13.5037 83.1645 12.8265 83.6411L0.677044 91.8409C-0.0260331 92.3152 -0.211418 93.2688 0.262428 93.9716L17.3522 119.324C17.8014 120.018 18.8117 120.216 19.4904 119.739L31.6399 111.539C32.3429 111.064 32.5283 110.111 32.0545 109.408L31.4404 108.497L36.2329 105.262L49.5824 106.31C50.4301 106.375 51.1704 105.745 51.2368 104.899C51.3035 104.053 50.6706 103.313 49.8235 103.247L35.9376 102.157C35.5919 102.129 35.244 102.221 34.9553 102.416L29.7222 105.948L17.2986 87.5183L26.3022 81.4416C26.3453 81.4127 26.3868 81.3811 26.4268 81.3478C36.2904 73.1186 51.5596 79.6673 51.7117 79.7342C52.0247 79.8719 52.3747 79.9019 52.707 79.8188L72.2435 74.9252C74.3181 74.4073 76.4165 75.5393 77.1212 77.5634C77.854 79.6688 76.8017 81.9488 74.7258 82.7542L53.8294 90.8645C53.136 91.1337 52.7347 91.8598 52.8763 92.5891C53.0168 93.3119 53.6509 93.8329 54.3865 93.8329H54.406L80.6624 93.5039C80.9604 93.5001 81.2506 93.4101 81.4983 93.245L106.444 76.5904C109.59 74.4896 113.753 74.7878 116.569 77.3157C117.117 77.9796 117.094 78.4296 116.483 79.0363L83.6881 103.07C81.4358 104.721 78.6635 105.509 75.8778 105.292L63.1504 104.293C62.3063 104.229 61.5627 104.858 61.496 105.704C61.4294 106.55 62.0622 107.29 62.9094 107.356L75.6368 108.355C79.1381 108.633 82.664 107.635 85.5086 105.547L118.304 81.5129C120.421 80.0434 120.587 76.7016 118.626 75.0301V75.0301ZM19.0442 116.331L3.67269 93.5278L13.2727 87.0488L28.6442 109.852L19.0442 116.331Z" fill="#042181"/>
<path d="M22.6019 59.2021C10.595 57.5975 1.07476 46.4226 1.26451 34.3491V16.1539C1.26451 14.3467 2.33784 12.7162 3.99887 12.0003C15.8214 6.90366 29.383 6.90341 41.205 12.0003C42.866 12.7162 43.9394 14.3467 43.9394 16.1539V34.3491C44.1294 46.4232 34.6089 57.5973 22.6019 59.2021Z" fill="#C0F8E8"/>
<path d="M29.0238 53.1567C17.0169 51.5521 7.49664 40.3772 7.68638 28.3036V10.1085C7.68638 8.30133 8.75971 6.67082 10.4207 5.95492C22.2433 0.858254 35.8048 0.857997 47.6269 5.95492C49.2879 6.67082 50.3613 8.30133 50.3613 10.1085V28.3036C50.5513 40.3777 41.0307 51.5518 29.0238 53.1567V53.1567ZM29.0238 5.20389C23.0941 5.20389 17.1643 6.39466 11.6407 8.7762C11.1079 9.00569 10.7638 9.52877 10.7638 10.1085V28.3036C10.7638 39.0793 18.4274 48.1893 29.0238 50.0618C39.6205 48.1893 47.2841 39.0793 47.2841 28.3036V10.1085C47.2841 9.52851 46.94 9.00569 46.4074 8.7762C40.8838 6.39466 34.9538 5.20389 29.0238 5.20389V5.20389Z" fill="#042181"/>
<path d="M53.1494 50.6022H46.3161C45.4663 50.6022 44.7773 49.9143 44.7773 49.0658C44.7773 48.2174 45.4663 47.5294 46.3161 47.5294H53.1494C54.033 47.5294 54.752 46.8115 54.752 45.9292V43.7307C54.752 43.0774 54.3602 42.4953 53.7538 42.2489L51.3545 41.2728C50.5673 40.9525 50.1897 40.0558 50.5102 39.2702C50.8307 38.4846 51.7286 38.1074 52.5155 38.4269L54.915 39.403C56.6853 40.1235 57.8294 41.822 57.8294 43.7307V45.9292C57.8291 48.5058 55.7299 50.6022 53.1494 50.6022V50.6022Z" fill="#3AC19B"/>
<path d="M103.255 25.19H101.93L99.7641 19.5592H103.104C103.954 19.5592 104.643 18.8713 104.643 18.0228C104.643 17.1744 103.954 16.4864 103.104 16.4864H98.5821L94.1674 5.00923C93.0146 2.01308 90.0808 0 86.8667 0H51.9359C51.0862 0 50.3972 0.687949 50.3972 1.53641C50.3972 2.38487 51.0862 3.07282 51.9359 3.07282H86.8667C88.8159 3.07282 90.5959 4.29385 91.2949 6.11103L98.6334 25.19H56.5182C55.6685 25.19 54.9795 25.878 54.9795 26.7264C54.9795 27.5749 55.6685 28.2628 56.5182 28.2628H103.255C105.235 28.2628 106.845 29.871 106.845 31.8477V57.0023H29.9059C29.0562 57.0023 28.3672 57.6903 28.3672 58.5387V64.2603C28.3672 67.0841 30.668 69.3815 33.4959 69.3815H41.388C44.2162 69.3815 46.5167 67.0841 46.5167 64.2603V60.0751H91.7723V64.2603C91.7723 67.0841 94.0731 69.3815 96.901 69.3815H104.793C107.621 69.3815 109.922 67.0841 109.922 64.2603V31.8477C109.922 28.1764 106.931 25.19 103.255 25.19V25.19ZM43.4397 64.2603C43.4397 65.3897 42.5195 66.3087 41.3882 66.3087H33.4962C32.3649 66.3087 31.4446 65.3897 31.4446 64.2603V60.0751H43.4397V64.2603ZM106.845 64.2603C106.845 65.3897 105.925 66.3087 104.793 66.3087H96.9013C95.77 66.3087 94.8498 65.3897 94.8498 64.2603V60.0751H106.845V64.2603Z" fill="#042181"/>
<path d="M26.3188 33.4519L19.647 27.896C18.9944 27.3526 18.9065 26.3839 19.4508 25.7321C19.9954 25.0806 20.9657 24.9926 21.6177 25.5362L27.0752 30.0808L36.6475 17.9624C37.1736 17.2962 38.1416 17.1821 38.8085 17.7075C39.4757 18.2329 39.5898 19.199 39.0637 19.8652L28.5124 33.2237C28.2234 33.5911 27.1772 33.9801 26.3188 33.4519V33.4519Z" fill="#042181"/>
</svg>
