<svg width="120" height="123" viewBox="0 0 120 123" fill="none" xmlns="http://www.w3.org/2000/svg">
<path d="M15.1817 109.291C14.966 109.291 14.5346 109.291 14.3189 109.068C2.45523 102.62 0.945312 94.3931 0.945312 93.9484V93.7261V77.7166C0.945312 77.2719 0.945312 76.8272 1.37672 76.6048C1.59242 76.1601 2.02382 76.1601 2.45523 76.1601C10.6519 77.0495 14.1032 73.9366 14.1032 73.9366C14.7503 73.2695 15.6131 73.2695 16.0445 73.9366C16.2602 73.9366 19.4957 77.0495 27.6924 76.1601C28.1238 76.1601 28.5552 76.1601 28.7709 76.6048C29.2023 76.8272 29.418 77.2719 29.418 77.7166V93.7261V93.9484C29.2023 94.3931 27.6924 102.62 15.8288 109.068C15.6131 109.291 15.3974 109.291 15.1817 109.291Z" fill="#C0F8E8"/>
<path d="M18.9922 105.781C18.7656 105.781 18.3125 105.781 18.0859 105.555C5.625 98.9844 4.03906 90.6016 4.03906 90.1484V89.9219V73.6094C4.03906 73.1562 4.03906 72.7031 4.49219 72.4766C4.71875 72.0234 5.17188 72.0234 5.625 72.0234C14.2344 72.9297 17.8594 69.7578 17.8594 69.7578C18.5391 69.0781 19.4453 69.0781 19.8984 69.7578C20.125 69.7578 23.5234 72.9297 32.1328 72.0234C32.5859 72.0234 33.0391 72.0234 33.2656 72.4766C33.7188 72.7031 33.9453 73.1562 33.9453 73.6094V89.9219V90.1484C33.7188 90.6016 32.1328 98.9844 19.6719 105.555C19.4453 105.781 19.2188 105.781 18.9922 105.781ZM7.21094 89.6953C7.4375 90.6016 9.25 96.9453 18.9922 102.383C28.7344 96.9453 30.5469 90.6016 30.7734 89.6953V75.1953C24.4297 75.6484 20.5781 73.8359 18.9922 72.9297C17.1797 73.8359 13.5547 75.6484 7.21094 75.1953V89.6953Z" fill="#042181"/>
<path d="M15.8184 94C15.3652 94 14.9121 93.7734 14.6855 93.5469L11.0605 89.9219C10.3809 89.2422 10.3809 88.3359 11.0605 87.6562C11.5137 86.9766 12.6465 86.9766 13.3262 87.6562L15.8184 90.1484L24.4277 81.5391C25.1074 80.8594 26.0137 80.8594 26.6934 81.5391C27.1465 82.2188 27.1465 83.125 26.6934 83.8047L16.9512 93.5469C16.498 93.7734 16.0449 94 15.8184 94Z" fill="#042181"/>
<path d="M114.375 123H5.625C4.71875 123 4.03906 122.32 4.03906 121.414V113.031C4.03906 112.125 4.71875 111.445 5.625 111.445H114.375C115.281 111.445 115.961 112.125 115.961 113.031V121.414C115.961 122.32 115.281 123 114.375 123ZM7.21094 119.828H112.789V114.617H7.21094V119.828Z" fill="#042181"/>
<path d="M108.938 114.617C108.031 114.617 107.352 113.938 107.352 113.031V10.1719H48.6719V113.031C48.6719 113.938 47.9922 114.617 47.0859 114.617C46.1797 114.617 45.5 113.938 45.5 113.031V8.58594C45.5 7.67969 46.1797 7 47.0859 7H108.938C109.844 7 110.523 7.67969 110.523 8.58594V113.031C110.523 113.938 109.844 114.617 108.938 114.617Z" fill="#042181"/>
<path d="M94.4375 114.617H60.6797C59.7734 114.617 59.0938 113.938 59.0938 113.031V77.9141C59.0938 75.6484 60.9062 73.8359 63.1719 73.8359H91.9453C94.2109 73.8359 96.0234 75.6484 96.0234 77.9141V113.031C96.0234 113.938 95.1172 114.617 94.4375 114.617ZM62.2656 111.445H92.8516V77.9141C92.8516 77.4609 92.3984 77.0078 91.9453 77.0078H63.1719C62.4922 77.0078 62.2656 77.4609 62.2656 77.9141V111.445Z" fill="#042181"/>
<path d="M77.4453 114.617C76.5391 114.617 75.8594 113.938 75.8594 113.031V75.4219C75.8594 74.5156 76.5391 73.8359 77.4453 73.8359C78.3516 73.8359 79.0312 74.5156 79.0312 75.4219V113.031C79.0312 113.938 78.125 114.617 77.4453 114.617Z" fill="#042181"/>
<path d="M64.9844 26.2578H55.6953C54.7891 26.2578 54.1094 25.5781 54.1094 24.6719V17.1953C54.1094 16.2891 54.7891 15.6094 55.6953 15.6094H64.9844C65.8906 15.6094 66.5703 16.2891 66.5703 17.1953V24.6719C66.5703 25.5781 65.8906 26.2578 64.9844 26.2578ZM57.2812 23.0859H63.3984V18.7812H57.2812V23.0859Z" fill="#3AC19B"/>
<path d="M82.6562 26.2578H73.3672C72.4609 26.2578 71.7812 25.5781 71.7812 24.6719V17.1953C71.7812 16.2891 72.4609 15.6094 73.3672 15.6094H82.6562C83.5625 15.6094 84.2422 16.2891 84.2422 17.1953V24.6719C84.2422 25.5781 83.5625 26.2578 82.6562 26.2578ZM74.9531 23.0859H81.0703V18.7812H74.9531V23.0859Z" fill="#3AC19B"/>
<path d="M100.328 26.2578H91.0391C90.1328 26.2578 89.4531 25.5781 89.4531 24.6719V17.1953C89.4531 16.2891 90.1328 15.6094 91.0391 15.6094H100.328C101.234 15.6094 101.914 16.2891 101.914 17.1953V24.6719C101.914 25.5781 101.234 26.2578 100.328 26.2578ZM92.625 23.0859H98.7422V18.7812H92.625V23.0859Z" fill="#3AC19B"/>
<path d="M64.9844 40.3047H55.6953C54.7891 40.3047 54.1094 39.625 54.1094 38.7188V31.2422C54.1094 30.3359 54.7891 29.6562 55.6953 29.6562H64.9844C65.8906 29.6562 66.5703 30.3359 66.5703 31.2422V38.7188C66.5703 39.625 65.8906 40.3047 64.9844 40.3047ZM57.2812 37.1328H63.3984V32.8281H57.2812V37.1328Z" fill="#3AC19B"/>
<path d="M82.6562 40.3047H73.3672C72.4609 40.3047 71.7812 39.625 71.7812 38.7188V31.2422C71.7812 30.3359 72.4609 29.6562 73.3672 29.6562H82.6562C83.5625 29.6562 84.2422 30.3359 84.2422 31.2422V38.7188C84.2422 39.625 83.5625 40.3047 82.6562 40.3047ZM74.9531 37.1328H81.0703V32.8281H74.9531V37.1328Z" fill="#3AC19B"/>
<path d="M100.328 40.3047H91.0391C90.1328 40.3047 89.4531 39.625 89.4531 38.7188V31.2422C89.4531 30.3359 90.1328 29.6562 91.0391 29.6562H100.328C101.234 29.6562 101.914 30.3359 101.914 31.2422V38.7188C101.914 39.625 101.234 40.3047 100.328 40.3047ZM92.625 37.1328H98.7422V32.8281H92.625V37.1328Z" fill="#3AC19B"/>
<path d="M64.9844 54.3516H55.6953C54.7891 54.3516 54.1094 53.6719 54.1094 52.7656V45.2891C54.1094 44.3828 54.7891 43.7031 55.6953 43.7031H64.9844C65.8906 43.7031 66.5703 44.3828 66.5703 45.2891V52.7656C66.5703 53.6719 65.8906 54.3516 64.9844 54.3516ZM57.2812 51.1797H63.3984V46.875H57.2812V51.1797Z" fill="#3AC19B"/>
<path d="M82.6562 54.3516H73.3672C72.4609 54.3516 71.7812 53.6719 71.7812 52.7656V45.2891C71.7812 44.3828 72.4609 43.7031 73.3672 43.7031H82.6562C83.5625 43.7031 84.2422 44.3828 84.2422 45.2891V52.7656C84.2422 53.6719 83.5625 54.3516 82.6562 54.3516ZM74.9531 51.1797H81.0703V46.875H74.9531V51.1797Z" fill="#3AC19B"/>
<path d="M100.328 54.3516H91.0391C90.1328 54.3516 89.4531 53.6719 89.4531 52.7656V45.2891C89.4531 44.3828 90.1328 43.7031 91.0391 43.7031H100.328C101.234 43.7031 101.914 44.3828 101.914 45.2891V52.7656C101.914 53.6719 101.234 54.3516 100.328 54.3516ZM92.625 51.1797H98.7422V46.875H92.625V51.1797Z" fill="#3AC19B"/>
<path d="M64.9844 68.3984H55.6953C54.7891 68.3984 54.1094 67.7188 54.1094 66.8125V59.3359C54.1094 58.4297 54.7891 57.75 55.6953 57.75H64.9844C65.8906 57.75 66.5703 58.4297 66.5703 59.3359V66.8125C66.5703 67.7188 65.8906 68.3984 64.9844 68.3984ZM57.2812 65.2266H63.3984V60.9219H57.2812V65.2266Z" fill="#3AC19B"/>
<path d="M82.6562 68.3984H73.3672C72.4609 68.3984 71.7812 67.7188 71.7812 66.8125V59.3359C71.7812 58.4297 72.4609 57.75 73.3672 57.75H82.6562C83.5625 57.75 84.2422 58.4297 84.2422 59.3359V66.8125C84.2422 67.7188 83.5625 68.3984 82.6562 68.3984ZM74.9531 65.2266H81.0703V60.9219H74.9531V65.2266Z" fill="#3AC19B"/>
<path d="M100.328 68.3984H91.0391C90.1328 68.3984 89.4531 67.7188 89.4531 66.8125V59.3359C89.4531 58.4297 90.1328 57.75 91.0391 57.75H100.328C101.234 57.75 101.914 58.4297 101.914 59.3359V66.8125C101.914 67.7188 101.234 68.3984 100.328 68.3984ZM92.625 65.2266H98.7422V60.9219H92.625V65.2266Z" fill="#3AC19B"/>
<path d="M11.0625 114.617C10.1562 114.617 9.47656 113.938 9.47656 113.031V98.7578C9.47656 97.8516 10.1562 97.1719 11.0625 97.1719C11.9688 97.1719 12.6484 97.8516 12.6484 98.7578V113.031C12.6484 113.938 11.9688 114.617 11.0625 114.617ZM11.0625 75.1953C10.1562 75.1953 9.47656 74.5156 9.47656 73.6094V29.8828C9.47656 28.9766 10.1562 28.2969 11.0625 28.2969H47.0859C47.9922 28.2969 48.6719 28.9766 48.6719 29.8828C48.6719 30.7891 47.9922 31.4688 47.0859 31.4688H12.6484V73.6094C12.6484 74.5156 11.9688 75.1953 11.0625 75.1953Z" fill="#042181"/>
<path d="M39.8359 46.6484H18.0859C17.1797 46.6484 16.5 45.9688 16.5 45.0625V36.6797C16.5 35.7734 17.1797 35.0938 18.0859 35.0938H39.8359C40.7422 35.0938 41.4219 35.7734 41.4219 36.6797V45.0625C41.4219 45.9688 40.7422 46.6484 39.8359 46.6484ZM19.6719 43.4766H38.25V38.2656H19.6719V43.4766Z" fill="#3AC19B"/>
<path d="M39.8359 62.2812H18.0859C17.1797 62.2812 16.5 61.6016 16.5 60.6953V52.3125C16.5 51.4062 17.1797 50.7266 18.0859 50.7266H39.8359C40.7422 50.7266 41.4219 51.4062 41.4219 52.3125V60.6953C41.4219 61.6016 40.7422 62.2812 39.8359 62.2812ZM19.6719 59.1094H38.25V53.8984H19.6719V59.1094Z" fill="#3AC19B"/>
</svg>
