<svg width="11" height="11" viewBox="0 0 11 11" fill="none" xmlns="http://www.w3.org/2000/svg">
<path fill-rule="evenodd" clip-rule="evenodd" d="M2.58838 5.26111e-10H2.53701C2.44821 0.00282098 2.36057 0.0209929 2.27797 0.0537109L2.2552 0.0627344C1.89912 0.203736 0.849025 0.592303 0.59016 0.851211C0.203806 1.2375 0.026324 1.71725 0.00269119 2.26003C-0.0236916 2.86653 0.147152 3.49787 0.372631 4.05571C0.944115 5.46962 2.01709 6.84086 3.08815 7.91194C4.15921 8.98303 5.53047 10.0561 6.9444 10.6276C7.46707 10.8389 8.04852 11 8.61603 11C8.65744 11 8.69884 10.9991 8.74021 10.9974C9.28293 10.9737 9.76287 10.7963 10.149 10.41C10.4138 10.1452 10.7957 9.10916 10.9366 8.74739L10.9455 8.72453C11.0137 8.55351 11.0179 8.36361 10.9573 8.18977C10.8966 8.01592 10.7752 7.86983 10.6154 7.77835L8.73426 6.69238C8.55792 6.59098 8.34858 6.56361 8.15209 6.61626C7.95561 6.66891 7.78799 6.79728 7.68598 6.97327C7.4999 7.29554 7.21811 7.55696 6.84379 7.63344C6.66786 7.67185 6.48565 7.67131 6.30996 7.63185C6.13426 7.59238 5.96932 7.51496 5.82672 7.405C5.40891 7.09145 5.01044 6.72781 4.64125 6.35871C4.27207 5.98961 3.90864 5.59118 3.59512 5.17346C3.48514 5.03085 3.4077 4.86591 3.36822 4.6902C3.32875 4.51449 3.3282 4.33227 3.36661 4.15632C3.44311 3.78217 3.70469 3.50023 4.02689 3.31414C4.20272 3.21199 4.33097 3.04439 4.38359 2.84797C4.43622 2.65155 4.40894 2.44228 4.30773 2.26591L3.22172 0.384764C3.15776 0.271914 3.06598 0.177312 2.95512 0.109963C2.84426 0.0426131 2.71801 0.0047578 2.58838 5.26109e-10V5.26111e-10ZM5.57963 0.438711C5.57963 0.381096 5.59098 0.324045 5.61303 0.270817C5.63508 0.217589 5.6674 0.169225 5.70814 0.128487C5.74889 0.0877485 5.79725 0.0554341 5.85048 0.0333883C5.90371 0.0113425 5.96077 -2.82091e-06 6.01838 5.26111e-10C6.67251 -5.64276e-06 7.32024 0.128833 7.92457 0.379159C8.52891 0.629485 9.07802 0.996395 9.54055 1.45894C10.0031 1.92149 10.37 2.47061 10.6203 3.07495C10.8706 3.67929 10.9994 4.32702 10.9994 4.98115C10.9994 5.09751 10.9532 5.20909 10.8709 5.29137C10.7886 5.37364 10.677 5.41986 10.5607 5.41986C10.4443 5.41986 10.3328 5.37364 10.2505 5.29137C10.1682 5.20909 10.122 5.09751 10.122 4.98115C10.122 4.44226 10.0159 3.90864 9.80966 3.41077C9.60344 2.91289 9.30118 2.46051 8.92014 2.07945C8.53909 1.69839 8.08671 1.39611 7.58884 1.18988C7.09097 0.983653 6.55736 0.877508 6.01847 0.877508C5.96084 0.877522 5.90377 0.866182 5.85052 0.844136C5.79728 0.82209 5.7489 0.78977 5.70814 0.749021C5.66739 0.708273 5.63507 0.659895 5.61302 0.606651C5.59096 0.553407 5.57962 0.496341 5.57963 0.438711ZM5.57963 2.21618C5.57962 2.15856 5.59096 2.1015 5.61301 2.04827C5.63505 1.99504 5.66737 1.94667 5.7081 1.90592C5.74884 1.86517 5.79721 1.83285 5.85044 1.8108C5.90367 1.78874 5.96072 1.77739 6.01834 1.77738C6.43906 1.77736 6.85566 1.86021 7.24436 2.02121C7.63305 2.1822 7.98623 2.41818 8.28372 2.71568C8.58121 3.01317 8.81719 3.36635 8.97818 3.75505C9.13917 4.14374 9.22202 4.56035 9.222 4.98107C9.22119 5.09689 9.17461 5.2077 9.09242 5.28931C9.01023 5.37093 8.89911 5.41673 8.78328 5.41673C8.66745 5.41673 8.55632 5.37093 8.47414 5.28931C8.39195 5.2077 8.34537 5.09689 8.34456 4.98107C8.34457 4.67559 8.2844 4.3731 8.16751 4.09087C8.05061 3.80864 7.87926 3.5522 7.66326 3.33619C7.44725 3.12018 7.19081 2.94884 6.90858 2.83194C6.62635 2.71504 6.32386 2.65488 6.01838 2.65489C5.96077 2.65489 5.90371 2.64355 5.85048 2.6215C5.79725 2.59945 5.74889 2.56714 5.70814 2.5264C5.6674 2.48566 5.63508 2.4373 5.61303 2.38407C5.59098 2.33084 5.57963 2.27379 5.57963 2.21618ZM5.57963 3.99354C5.57964 3.87718 5.62587 3.7656 5.70815 3.68333C5.79043 3.60106 5.90203 3.55484 6.01838 3.55485C6.20567 3.55484 6.39114 3.59172 6.56417 3.6634C6.73721 3.73507 6.89444 3.84012 7.02687 3.97256C7.15931 4.105 7.26436 4.26223 7.33603 4.43527C7.40769 4.60831 7.44457 4.79377 7.44456 4.98107C7.44456 5.09743 7.39833 5.20902 7.31605 5.2913C7.23378 5.37358 7.12218 5.4198 7.00582 5.4198C6.88946 5.4198 6.77787 5.37358 6.69559 5.2913C6.61332 5.20902 6.56709 5.09743 6.56709 4.98107C6.56711 4.909 6.55292 4.83764 6.52535 4.77105C6.49779 4.70447 6.45737 4.64396 6.40642 4.593C6.35546 4.54204 6.29497 4.50161 6.22839 4.47403C6.16181 4.44644 6.09045 4.43225 6.01838 4.43225C5.96077 4.43225 5.90371 4.42091 5.85048 4.39886C5.79725 4.37681 5.74889 4.3445 5.70814 4.30376C5.6674 4.26302 5.63508 4.21466 5.61303 4.16143C5.59098 4.1082 5.57963 4.05115 5.57963 3.99354Z" fill="#042181"/>
</svg>
