<svg width="40" height="40" viewBox="0 0 40 40" fill="none" xmlns="http://www.w3.org/2000/svg">
<g clip-path="url(#clip0_655_2196)">
<path d="M15.9712 0.00146484H6.88721V5.54084L15.9712 4.02686V0.00146484Z" fill="white"/>
<path d="M35.9697 37.6546V11.4291H21.1719V37.6546H18.8281V9.08535V5.92676L4.03031 8.39301V37.6546H0V39.9984H40V37.6546H35.9697ZM30.183 14.7992H32.6724V17.1429H30.183V14.7992ZM30.183 20.5131H32.6724V22.8568H30.183V20.5131ZM30.183 26.2269H32.6724V28.5707H30.183V26.2269ZM30.183 31.9408H32.6724V34.2846H30.183V31.9408ZM24.4691 14.7992H26.9586V17.1429H24.4691V14.7992ZM24.4691 20.5131H26.9586V22.8568H24.4691V20.5131ZM24.4691 26.2269H26.9586V28.5707H24.4691V26.2269ZM24.4691 31.9408H26.9586V34.2846H24.4691V31.9408ZM13.0414 9.08535H15.5309V11.4291H13.0414V9.08535ZM13.0414 14.7992H15.5309V17.1429H13.0414V14.7992ZM13.0414 20.5131H15.5309V22.8568H13.0414V20.5131ZM13.0414 26.2269H15.5309V28.5707H13.0414V26.2269ZM7.32758 14.7992H9.81703V17.1429H7.32758V14.7992ZM7.32758 20.5131H9.81703V22.8568H7.32758V20.5131ZM7.32758 26.2269H9.81703V28.5707H7.32758V26.2269ZM7.40039 31.9408H15.458V37.6546H13.1143V34.2846H9.74414V37.6546H7.40039V31.9408Z" fill="white"/>
</g>
<defs>
<clipPath id="clip0_655_2196">
<rect width="40" height="40" fill="white"/>
</clipPath>
</defs>
</svg>
