<svg width="34" height="34" viewBox="0 0 34 34" fill="none" xmlns="http://www.w3.org/2000/svg">
<g clip-path="url(#clip0_332_777)">
<path d="M20.1875 0H3.89583C1.7425 0 0 1.7425 0 3.89583V25.8542C0 28.0075 1.7425 29.75 3.89583 29.75H14.3508L14.6625 28.0075C14.8042 27.2142 15.1725 26.5058 15.7392 25.925L24.0833 17.595V3.89583C24.0833 1.7425 22.3408 0 20.1875 0V0ZM5.66667 5.66667H11.3333C12.1125 5.66667 12.75 6.30417 12.75 7.08333C12.75 7.8625 12.1125 8.5 11.3333 8.5H5.66667C4.8875 8.5 4.25 7.8625 4.25 7.08333C4.25 6.30417 4.8875 5.66667 5.66667 5.66667ZM12.75 19.8333H5.66667C4.8875 19.8333 4.25 19.1958 4.25 18.4167C4.25 17.6375 4.8875 17 5.66667 17H12.75C13.5292 17 14.1667 17.6375 14.1667 18.4167C14.1667 19.1958 13.5292 19.8333 12.75 19.8333ZM18.4167 14.1667H5.66667C4.8875 14.1667 4.25 13.5292 4.25 12.75C4.25 11.9708 4.8875 11.3333 5.66667 11.3333H18.4167C19.1958 11.3333 19.8333 11.9708 19.8333 12.75C19.8333 13.5292 19.1958 14.1667 18.4167 14.1667Z" fill="#042181"/>
<path d="M17.7485 33.9999C17.4694 33.9999 17.1974 33.8894 16.9976 33.6883C16.7526 33.4432 16.6421 33.0947 16.703 32.7519L17.4538 28.4948C17.4906 28.2809 17.5955 28.0825 17.7485 27.9281L28.2672 17.4108C29.5592 16.1159 30.8286 16.4659 31.5227 17.16L33.2751 18.9124C34.2427 19.8786 34.2427 21.4511 33.2751 22.4187L22.7564 32.9374C22.6034 33.0919 22.4051 33.1953 22.1897 33.2321L17.9326 33.9829C17.8717 33.9943 17.8094 33.9999 17.7485 33.9999ZM22.0056 32.1866H22.0197H22.0056Z" fill="#042181"/>
</g>
<defs>
<clipPath id="clip0_332_777">
<rect width="34" height="34" fill="white"/>
</clipPath>
</defs>
</svg>
