<svg width="34" height="34" viewBox="0 0 34 34" fill="none" xmlns="http://www.w3.org/2000/svg">
<g clip-path="url(#clip0_333_789)">
<path d="M24.8795 13.1584L30.0018 15.0399L25.7419 26.6386C25.3433 27.7295 23.1814 31.143 21.6759 31.8393L21.3105 32.8358C21.2175 33.0883 20.9783 33.2464 20.7245 33.2464C20.6528 33.2464 20.581 33.2331 20.5093 33.2079C20.1864 33.0883 20.019 32.7309 20.1385 32.4053L20.484 31.4633C19.72 29.979 20.29 25.6686 20.6249 24.7571L24.8795 13.1584ZM32.2926 0.886103C30.8841 0.370549 29.2352 1.4362 28.7634 2.72376L25.6781 11.1294L30.7991 13.0083L33.8805 4.60394C34.2685 3.55157 33.7037 1.40299 32.2926 0.886103ZM23.0246 12.7239C23.1681 12.7771 23.3156 12.8023 23.4591 12.8023C23.9667 12.8023 24.4437 12.4914 24.631 11.9865L27.8865 3.2061C28.127 2.559 27.7961 1.84014 27.149 1.60097C26.4966 1.36445 25.7831 1.69132 25.5426 2.33842L22.2871 11.1188C22.0466 11.7659 22.3775 12.4847 23.0246 12.7239ZM17.784 29.1884C17.4478 28.8709 17.0293 28.4749 16.3516 28.1733C15.7935 27.9248 15.2501 27.9128 14.8528 27.9035C14.8116 27.9035 14.7638 27.9022 14.7159 27.9009C14.4675 27.2206 13.9639 26.7927 13.2078 26.6253C12.2073 26.414 11.4087 26.8857 10.8546 27.2498C10.9038 26.9708 10.9848 26.6386 11.0446 26.3994C11.2359 25.6287 11.4326 24.8315 11.2864 24.0847C11.1708 23.4947 10.6725 23.0563 10.072 23.0137C8.52396 22.9274 7.259 23.7605 6.14418 24.5139C4.97355 25.3045 4.22281 25.7762 3.47605 25.5091C2.56453 25.1849 2.47285 22.7174 2.91133 20.5197C3.30331 18.5398 4.0328 14.8539 5.90234 13.1797C6.53217 12.6163 7.44369 12.0064 8.1931 12.3027C9.07406 12.6482 9.80222 14.0992 9.96433 15.8279C10.0321 16.5574 10.6686 17.0928 11.4113 17.0264C12.1421 16.9586 12.679 16.3102 12.6099 15.5794C12.3468 12.7625 11.026 10.5594 9.16442 9.82725C8.0496 9.39408 6.27705 9.27715 4.12847 11.1998C1.7912 13.2926 0.927512 16.8417 0.301671 20.0028C-0.0119132 21.5814 -0.775943 26.8193 2.58313 28.0138C4.6294 28.7433 6.29167 27.6179 7.62706 26.717C7.87155 26.5522 8.11205 26.3901 8.34591 26.2453C8.12401 27.2086 7.98582 28.2397 8.56781 29.1087C9.43548 30.4135 10.6619 30.5557 12.2112 29.5352C12.271 29.4967 12.3401 29.4515 12.4052 29.4063C12.5487 29.7066 12.8025 30.0375 13.2636 30.2634C13.8217 30.5371 14.3798 30.5504 14.7864 30.561C14.9604 30.565 15.1983 30.5703 15.27 30.6022C15.5198 30.7125 15.6673 30.848 15.9543 31.1191C16.1696 31.3224 16.3968 31.5337 16.6851 31.7516C16.9243 31.931 17.2033 32.016 17.4797 32.016C17.8837 32.016 18.2836 31.8313 18.5441 31.4845C18.9839 30.8972 18.8643 30.0641 18.277 29.6243C18.0843 29.4754 17.9315 29.328 17.784 29.1884Z" fill="#042181"/>
</g>
<defs>
<clipPath id="clip0_333_789">
<rect width="34" height="34" fill="white"/>
</clipPath>
</defs>
</svg>
