<svg width="36" height="36" viewBox="0 0 36 36" fill="none" xmlns="http://www.w3.org/2000/svg">
<path d="M9.22225 0H21.2675L31.4639 10.6379V31.3168C31.4639 33.9035 29.3673 36 26.7807 36H9.22225C6.63555 36 4.53906 33.9035 4.53906 31.3168V4.68318C4.53906 2.09654 6.63555 0 9.22225 0V0Z" fill="#0263D1"/>
<path opacity="0.302" fill-rule="evenodd" clip-rule="evenodd" d="M21.252 0V10.5505H31.4628L21.252 0Z" fill="white"/>
<path d="M8.88672 25.6872V19.7276H10.9978C11.42 19.7276 11.8131 19.7907 12.1771 19.9072C12.5411 20.0285 12.8711 20.2032 13.1672 20.4362C13.4632 20.6691 13.6962 20.9798 13.866 21.368C14.0359 21.7562 14.1232 22.2027 14.1232 22.7074C14.1232 23.2121 14.0359 23.6586 13.866 24.0468C13.6962 24.4351 13.4632 24.7457 13.1672 24.9786C12.8711 25.2115 12.5411 25.3863 12.1771 25.5076C11.8131 25.6241 11.4201 25.6872 10.9978 25.6872H8.88672ZM10.3766 24.3914H10.8182C11.056 24.3914 11.2793 24.3623 11.4782 24.3089C11.6821 24.2507 11.8665 24.1585 12.0412 24.0371C12.2159 23.9158 12.3517 23.7411 12.4488 23.513C12.5507 23.2898 12.5992 23.018 12.5992 22.7074C12.5992 22.3968 12.5507 22.125 12.4488 21.8969C12.3517 21.6737 12.2159 21.499 12.0412 21.3777C11.8665 21.2515 11.6821 21.1642 11.4782 21.1059C11.2793 21.0525 11.056 21.0234 10.8182 21.0234H10.3766V24.3914ZM17.7387 25.7551C16.8409 25.7551 16.0984 25.4639 15.5112 24.8865C14.924 24.3089 14.6328 23.581 14.6328 22.7075C14.6328 21.8339 14.924 21.1059 15.5112 20.5284C16.0984 19.9509 16.8409 19.6598 17.7387 19.6598C18.622 19.6598 19.3548 19.951 19.942 20.5284C20.5244 21.106 20.8156 21.8339 20.8156 22.7075C20.8156 23.581 20.5244 24.309 19.942 24.8865C19.3548 25.4639 18.622 25.7551 17.7387 25.7551ZM16.5934 23.9644C16.8894 24.2944 17.268 24.4594 17.729 24.4594C18.19 24.4594 18.5637 24.2944 18.8598 23.9644C19.1558 23.6295 19.3014 23.2121 19.3014 22.7074C19.3014 22.2027 19.1558 21.7853 18.8598 21.4504C18.5638 21.1204 18.19 20.9554 17.729 20.9554C17.268 20.9554 16.8894 21.1204 16.5934 21.4504C16.2974 21.7853 16.1469 22.2027 16.1469 22.7074C16.1469 23.2121 16.2974 23.6295 16.5934 23.9644ZM24.3583 25.7551C23.4896 25.7551 22.7665 25.4834 22.1938 24.9495C21.6163 24.4109 21.33 23.6635 21.33 22.7074C21.33 21.7562 21.6212 21.0088 22.2036 20.4701C22.7908 19.9314 23.5042 19.6597 24.3583 19.6597C25.13 19.6597 25.7608 19.8489 26.2607 20.2323C26.7558 20.6109 27.0421 21.1156 27.1149 21.7465L25.6104 22.0522C25.5473 21.7222 25.3969 21.4553 25.1639 21.2563C24.931 21.0573 24.6592 20.9554 24.3486 20.9554C23.9215 20.9554 23.5672 21.1059 23.2809 21.4116C22.9946 21.7222 22.849 22.1492 22.849 22.7074C22.849 23.2655 22.9946 23.6925 23.276 23.9983C23.5624 24.3089 23.9167 24.4593 24.3486 24.4593C24.6591 24.4593 24.9261 24.372 25.1445 24.1973C25.3628 24.0226 25.4988 23.7897 25.557 23.4985L27.0954 23.8479C26.9547 24.4497 26.644 24.9156 26.1588 25.2504C25.6783 25.5853 25.0766 25.7551 24.3583 25.7551Z" fill="white"/>
</svg>
