<svg width="34" height="34" viewBox="0 0 34 34" fill="none" xmlns="http://www.w3.org/2000/svg">
<path d="M31.2908 9.95575L31.2483 9.99829C30.855 10.4019 30.3134 10.625 29.75 10.625H27.8802L27.1996 11.3051C28.1459 12.984 28.6875 14.9279 28.6875 17C28.6875 23.4492 23.4497 28.6875 17 28.6875C10.5508 28.6875 5.3125 23.4492 5.3125 17C5.3125 10.5508 10.5508 5.3125 17 5.3125C19.0721 5.3125 21.0165 5.85413 22.6954 6.7999L23.375 6.11975V4.25C23.375 3.6871 23.5981 3.14496 24.0017 2.75171L24.0443 2.70917C21.9193 1.65756 19.5286 1.0625 17 1.0625C8.2131 1.0625 1.0625 8.2131 1.0625 17C1.0625 25.7869 8.2131 32.9375 17 32.9375C25.7864 32.9375 32.9375 25.7869 32.9375 17C32.9375 14.4714 32.343 12.0807 31.2908 9.95575ZM25.6276 12.8776L22.2492 16.256C22.2917 16.5004 22.3125 16.7448 22.3125 17C22.3125 19.9323 19.9323 22.3125 17 22.3125C14.0677 22.3125 11.6875 19.9323 11.6875 17C11.6875 14.0677 14.0677 11.6875 17 11.6875C17.2552 11.6875 17.4996 11.7088 17.744 11.7513L21.1224 8.37238C19.869 7.77731 18.4765 7.4375 17 7.4375C11.73 7.4375 7.4375 11.73 7.4375 17C7.4375 22.27 11.73 26.5625 17 26.5625C22.27 26.5625 26.5625 22.27 26.5625 17C26.5625 15.523 26.2222 14.131 25.6276 12.8776ZM19.7195 18.6576C19.1572 19.5712 18.1476 20.1875 17 20.1875C15.247 20.1875 13.8125 18.753 13.8125 17C13.8125 15.8524 14.4288 14.8434 15.3424 14.2799C15.0343 14.7686 14.875 15.3424 14.875 15.9375C14.875 16.7873 15.2044 17.5842 15.8099 18.1901C16.4158 18.7956 17.2127 19.125 18.0625 19.125C18.657 19.125 19.2308 18.9657 19.7195 18.6576ZM29.75 8.5H27.0024L18.8137 16.6887C18.6062 16.8962 18.3344 17 18.0625 17C17.7906 17 17.5188 16.8962 17.3113 16.6887C16.8962 16.2737 16.8962 15.6013 17.3113 15.1863L25.5 6.99756V4.25L28.6875 1.0625V5.3125H32.9375L29.75 8.5Z" fill="#042181"/>
</svg>
