<svg width="40" height="40" viewBox="0 0 40 40" fill="none" xmlns="http://www.w3.org/2000/svg">
<g clip-path="url(#clip0_442_6271)">
<path d="M16.4082 20.3906H18.7522V22.7346H16.4082V20.3906Z" fill="#042181"/>
<path d="M2.37445 18.0385H22.2937C22.7109 11.6697 28.9377 7.25365 35.1593 9.08279V7.49888C35.1593 6.85162 34.6346 6.32693 33.9873 6.32693H23.4415V2.81099C23.4415 2.16373 22.9168 1.63904 22.2695 1.63904H12.8898C12.2426 1.63904 11.7179 2.16373 11.7179 2.81099V6.32693H1.17195C0.524688 6.32693 0 6.85162 0 7.49888V16.0181C0.185 17.162 1.17914 18.0385 2.37445 18.0385ZM14.0618 3.98294H21.0976V6.32693H14.0618V3.98294Z" fill="#042181"/>
<path d="M27.229 27.3746C24.7487 25.917 22.9109 23.401 22.4091 20.3824H21.0957V23.9065C21.0957 24.5538 20.571 25.0785 19.9237 25.0785H15.2359C14.5886 25.0785 14.0639 24.5538 14.0639 23.9065V20.3824H2.37445C1.50977 20.3824 0.699062 20.149 0 19.7437V35.1185C0 35.7658 0.524688 36.2905 1.17195 36.2905H27.2738C27.1928 35.6736 27.2452 36.0574 27.229 27.3746Z" fill="#042181"/>
<path d="M37.7499 13.269C34.7492 10.2683 29.8668 10.2683 26.8661 13.269C22.9161 17.2189 24.3808 23.9361 29.5734 25.9019V28.5984H35.0426V25.9019C40.2335 23.9368 41.7002 17.2193 37.7499 13.269ZM32.308 24.0594C32.3079 24.0594 32.3081 24.0594 32.308 24.0594C29.3457 24.0594 26.9595 21.6741 26.9595 18.7109C26.9595 15.7485 29.3448 13.3625 32.3079 13.3625C35.2703 13.3625 37.6564 15.7478 37.6564 18.7109C37.6564 21.6731 35.2711 24.0594 32.308 24.0594Z" fill="#042181"/>
<path d="M29.5732 35.6264C29.5732 37.1343 30.8 38.361 32.3079 38.361C33.8157 38.361 35.0425 37.1342 35.0425 35.6264V30.9424H29.5732V35.6264Z" fill="#042181"/>
</g>
<defs>
<clipPath id="clip0_442_6271">
<rect width="40" height="40" fill="white"/>
</clipPath>
</defs>
</svg>
