<svg width="38" height="38" viewBox="0 0 38 38" fill="none" xmlns="http://www.w3.org/2000/svg">
<path d="M32.0625 14.25H22.7666C20.6892 14.25 19 12.5608 19 10.4834V1.1875C19 0.76 19.1128 0.353281 19.3169 0H7.3291C5.90707 0 4.75 1.15707 4.75 2.5791V35.4209C4.75 36.8429 5.90707 38 7.3291 38H30.6709C32.0929 38 33.25 36.8429 33.25 35.4209V13.9331C32.8967 14.1372 32.49 14.25 32.0625 14.25ZM14.5981 21.7231C15.062 21.2592 15.813 21.2592 16.2769 21.7231L17.8125 23.2579V16.0312C17.8125 15.3752 18.3439 14.8438 19 14.8438C19.6561 14.8438 20.1875 15.3752 20.1875 16.0312V23.2579L21.7231 21.7231C22.1862 21.2592 22.9388 21.2592 23.4019 21.7231C23.8658 22.1862 23.8658 22.9388 23.4019 23.4019L19.8394 26.9644C19.5891 27.2212 19.2285 27.3371 18.8857 27.3073C18.2911 27.2279 18.4786 27.2824 14.5981 23.4019C14.1342 22.9388 14.1342 22.1862 14.5981 21.7231ZM24.9375 32.0625H13.0625C12.4064 32.0625 11.875 31.5311 11.875 30.875C11.875 30.2189 12.4064 29.6875 13.0625 29.6875H24.9375C25.5936 29.6875 26.125 30.2189 26.125 30.875C26.125 31.5311 25.5936 32.0625 24.9375 32.0625ZM22.7666 11.875H32.0625L21.375 1.1875V10.4834C21.375 11.2508 21.9992 11.875 22.7666 11.875Z" fill="#042181"/>
</svg>
