<svg width="32" height="32" viewBox="0 0 32 32" fill="none" xmlns="http://www.w3.org/2000/svg">
<path d="M13.8006 27.8894H4.84375C4.56196 27.8894 4.29171 27.7774 4.09245 27.5782C3.89319 27.3789 3.78125 27.1087 3.78125 26.8269C3.78125 26.5451 3.89319 26.2748 4.09245 26.0756C4.29171 25.8763 4.56196 25.7644 4.84375 25.7644H13.0675C12.8959 25.0007 12.8104 24.2202 12.8125 23.4375C12.8108 22.5481 12.9251 21.6623 13.1525 20.8025H4.84375C4.56196 20.8025 4.29171 20.6906 4.09245 20.4913C3.89319 20.292 3.78125 20.0218 3.78125 19.74C3.78125 19.4582 3.89319 19.188 4.09245 18.9887C4.29171 18.7894 4.56196 18.6775 4.84375 18.6775H13.9494C15.0632 16.4632 16.9161 14.708 19.1875 13.7156H4.84375C4.56196 13.7156 4.29171 13.6037 4.09245 13.4044C3.89319 13.2052 3.78125 12.9349 3.78125 12.6531C3.78125 12.3713 3.89319 12.1011 4.09245 11.9018C4.29171 11.7026 4.56196 11.5906 4.84375 11.5906H19.7188C20.0005 11.5906 20.2708 11.7026 20.4701 11.9018C20.6693 12.1011 20.7812 12.3713 20.7812 12.6531C20.7812 12.8438 20.7298 13.031 20.6325 13.195C21.5452 12.938 22.4893 12.8093 23.4375 12.8125C23.7987 12.8125 24.1494 12.8125 24.5 12.8656V3.25C24.5 2.40462 24.1642 1.59387 23.5664 0.996097C22.9686 0.398325 22.1579 0.0625 21.3125 0.0625H3.25C2.40462 0.0625 1.59387 0.398325 0.996097 0.996097C0.398325 1.59387 0.0625 2.40462 0.0625 3.25V28.75C0.0625 29.5954 0.398325 30.4061 0.996097 31.0039C1.59387 31.6017 2.40462 31.9375 3.25 31.9375H17.0625C15.6568 30.8791 14.5359 29.488 13.8006 27.8894ZM4.84375 4.51438H19.7188C20.0005 4.51438 20.2708 4.62632 20.4701 4.82557C20.6693 5.02483 20.7812 5.29508 20.7812 5.57688C20.7812 5.85867 20.6693 6.12892 20.4701 6.32818C20.2708 6.52743 20.0005 6.63938 19.7188 6.63938H4.84375C4.56196 6.63938 4.29171 6.52743 4.09245 6.32818C3.89319 6.12892 3.78125 5.85867 3.78125 5.57688C3.78125 5.29508 3.89319 5.02483 4.09245 4.82557C4.29171 4.62632 4.56196 4.51438 4.84375 4.51438Z" fill="#042181"/>
<path d="M23.4375 14.9375C21.7564 14.9375 20.113 15.436 18.7152 16.37C17.3173 17.304 16.2279 18.6315 15.5845 20.1847C14.9412 21.7379 14.7729 23.4469 15.1008 25.0958C15.4288 26.7446 16.2383 28.2592 17.4271 29.4479C18.6158 30.6367 20.1304 31.4462 21.7792 31.7742C23.4281 32.1021 25.1371 31.9338 26.6903 31.2905C28.2435 30.6471 29.571 29.5577 30.505 28.1598C31.439 26.762 31.9375 25.1186 31.9375 23.4375C31.9375 21.1832 31.042 19.0212 29.4479 17.4271C27.8539 15.833 25.6918 14.9375 23.4375 14.9375ZM26.795 22.6406L23.1188 25.8281C22.9278 25.9966 22.6827 26.0908 22.4281 26.0938C22.1699 26.0934 21.9206 25.999 21.7269 25.8281L20.08 24.4044C19.9747 24.3123 19.8885 24.2003 19.8264 24.075C19.7643 23.9496 19.7275 23.8132 19.7182 23.6736C19.7088 23.534 19.727 23.3939 19.7718 23.2613C19.8165 23.1287 19.887 23.0063 19.9791 22.9009C20.0712 22.7956 20.1831 22.7094 20.3085 22.6473C20.4339 22.5852 20.5703 22.5485 20.7099 22.5391C20.8495 22.5297 20.9896 22.5479 21.1221 22.5927C21.2547 22.6375 21.3772 22.7079 21.4825 22.8L22.4281 23.6181L25.3925 21.0469C25.4959 20.9475 25.6184 20.8701 25.7526 20.8194C25.8867 20.7686 26.0298 20.7456 26.1731 20.7516C26.3164 20.7576 26.457 20.7926 26.5864 20.8544C26.7158 20.9162 26.8314 21.0036 26.9262 21.1112C27.0209 21.2189 27.0929 21.3447 27.1377 21.4809C27.1826 21.6171 27.1994 21.761 27.1871 21.9039C27.1749 22.0468 27.1338 22.1858 27.0664 22.3124C26.999 22.439 26.9067 22.5507 26.795 22.6406Z" fill="#042181"/>
</svg>
