<svg width="20" height="21" viewBox="0 0 20 21" fill="none" xmlns="http://www.w3.org/2000/svg">
<path d="M11.25 14.5625H14.0625M14.0625 14.5625H16.875M14.0625 14.5625V11.75M14.0625 14.5625V17.375M5 9.25H6.875C7.37228 9.25 7.84919 9.05246 8.20082 8.70082C8.55246 8.34919 8.75 7.87228 8.75 7.375V5.5C8.75 5.00272 8.55246 4.52581 8.20082 4.17417C7.84919 3.82254 7.37228 3.625 6.875 3.625H5C4.50272 3.625 4.02581 3.82254 3.67417 4.17417C3.32254 4.52581 3.125 5.00272 3.125 5.5V7.375C3.125 7.87228 3.32254 8.34919 3.67417 8.70082C4.02581 9.05246 4.50272 9.25 5 9.25V9.25ZM5 17.375H6.875C7.37228 17.375 7.84919 17.1775 8.20082 16.8258C8.55246 16.4742 8.75 15.9973 8.75 15.5V13.625C8.75 13.1277 8.55246 12.6508 8.20082 12.2992C7.84919 11.9475 7.37228 11.75 6.875 11.75H5C4.50272 11.75 4.02581 11.9475 3.67417 12.2992C3.32254 12.6508 3.125 13.1277 3.125 13.625V15.5C3.125 15.9973 3.32254 16.4742 3.67417 16.8258C4.02581 17.1775 4.50272 17.375 5 17.375ZM13.125 9.25H15C15.4973 9.25 15.9742 9.05246 16.3258 8.70082C16.6775 8.34919 16.875 7.87228 16.875 7.375V5.5C16.875 5.00272 16.6775 4.52581 16.3258 4.17417C15.9742 3.82254 15.4973 3.625 15 3.625H13.125C12.6277 3.625 12.1508 3.82254 11.7992 4.17417C11.4475 4.52581 11.25 5.00272 11.25 5.5V7.375C11.25 7.87228 11.4475 8.34919 11.7992 8.70082C12.1508 9.05246 12.6277 9.25 13.125 9.25V9.25Z" stroke="#4F556A" stroke-width="1.5" stroke-linecap="round" stroke-linejoin="round"/>
</svg>
