<svg width="34" height="34" viewBox="0 0 34 34" fill="none" xmlns="http://www.w3.org/2000/svg">
<path d="M33.9931 22.691C33.92 19.5367 32.9571 15.3266 31.4165 11.4285C30.7126 9.64222 29.9489 8.10823 29.2118 6.99925C28.229 5.51175 27.3458 4.82112 26.4161 4.82112C25.8915 4.82112 25.42 4.8012 24.9685 4.78128C23.8263 4.73479 22.8368 4.69495 21.9802 5.0469C21.097 5.41214 20.5857 6.09612 20.2736 6.78011H13.7259C13.4138 6.08948 12.9025 5.4055 12.0193 5.04026C11.156 4.68831 10.1732 4.72815 9.03097 4.77464C8.57277 4.79456 8.10129 4.81448 7.58332 4.81448C6.65363 4.81448 5.77043 5.50511 4.78761 6.99261C4.05051 8.10823 3.29347 9.64222 2.58293 11.4285C1.0423 15.32 0.0794114 19.5301 0.00636455 22.691C-0.119807 28.2293 2.48996 29.1723 4.05715 29.2453H4.1966C5.76379 29.2453 7.48371 28.0434 9.44269 25.5864C10.3657 24.4309 11.1095 23.2754 11.5146 22.6246H22.4849C22.8833 23.2754 23.6337 24.4242 24.5568 25.5864C26.5821 28.1164 28.3419 29.3184 29.9423 29.2453C31.5095 29.1789 34.1193 28.2293 33.9931 22.691V22.691ZM23.7798 15.2735C23.7798 15.8578 23.3017 16.336 22.7173 16.336H22.4583C21.8739 16.336 21.3958 15.8578 21.3958 15.2735C21.3958 14.6891 21.8739 14.211 22.4583 14.211H22.7173C23.3017 14.2176 23.7798 14.6825 23.7798 15.2735ZM12.6036 15.2735C12.6036 15.8578 12.1255 16.336 11.5411 16.336H10.1997V17.6774C10.1997 18.2617 9.7216 18.7399 9.13722 18.7399C8.55285 18.7399 8.07472 18.2617 8.07472 17.6774V16.336H6.73332C6.14894 16.336 5.67082 15.8578 5.67082 15.2735C5.67082 14.6891 6.14894 14.211 6.73332 14.211H8.07472V12.8696C8.07472 12.2852 8.55285 11.8071 9.13722 11.8071C9.7216 11.8071 10.1997 12.2852 10.1997 12.8696V14.211H11.5411C12.1321 14.2176 12.6036 14.6825 12.6036 15.2735ZM25.9247 12.8629V13.1285C25.9247 13.7129 25.4466 14.191 24.8622 14.191C24.2778 14.191 23.7997 13.7129 23.7997 13.1285V12.8629C23.7997 12.2785 24.2778 11.8004 24.8622 11.8004C25.4466 11.8004 25.9247 12.2785 25.9247 12.8629ZM25.9247 17.425V17.684C25.9247 18.2684 25.4466 18.7465 24.8622 18.7465C24.2778 18.7465 23.7997 18.2684 23.7997 17.684V17.425C23.7997 16.8407 24.2778 16.3625 24.8622 16.3625C25.4466 16.3559 25.9247 16.834 25.9247 17.425ZM28.3286 15.2735C28.3286 15.8578 27.8505 16.336 27.2661 16.336H27.0005C26.4161 16.336 25.938 15.8578 25.938 15.2735C25.938 14.6891 26.4161 14.211 27.0005 14.211H27.2661C27.8571 14.2176 28.3286 14.6825 28.3286 15.2735ZM19.4169 8.89847C18.7595 9.95433 17.8032 10.3528 16.9997 10.3528C16.1962 10.3528 15.24 9.94768 14.5825 8.89847H19.4169Z" fill="#042181"/>
</svg>
