<svg width="38" height="38" viewBox="0 0 38 38" fill="none" xmlns="http://www.w3.org/2000/svg">
<path d="M2.375 26.8494V32.0625C2.37777 33.0065 2.75399 33.911 3.42149 34.5785C4.08899 35.246 4.99352 35.6222 5.9375 35.625H11.9225V26.8494H2.375Z" fill="#042181"/>
<path d="M14.2974 2.375H23.7024V35.625H14.2974V2.375Z" fill="#042181"/>
<path d="M2.375 5.9375V24.4744H11.9225V2.375H5.9375C4.99351 2.37775 4.08898 2.75397 3.42147 3.42147C2.75397 4.08898 2.37775 4.99351 2.375 5.9375Z" fill="#042181"/>
<path d="M32.0626 2.375H26.0776V13.0625H35.6251V5.9375C35.6224 4.99351 35.2462 4.08898 34.5787 3.42147C33.9112 2.75397 33.0066 2.37775 32.0626 2.375Z" fill="#042181"/>
<path d="M26.0776 15.4375V35.625H32.0626C33.0066 35.6222 33.9112 35.246 34.5787 34.5785C35.2462 33.911 35.6224 33.0065 35.6251 32.0625V15.4375H26.0776Z" fill="#042181"/>
</svg>
