<svg width="34" height="34" viewBox="0 0 34 34" fill="none" xmlns="http://www.w3.org/2000/svg">
<path d="M16.9803 1.05979C16.9036 1.06381 16.8285 1.08351 16.7603 1.11905C16.7603 1.11905 10.4512 4.26605 2.58363 5.31507C2.3193 5.35161 2.12305 5.57846 2.12501 5.84528V16.9974C2.12501 23.8293 5.86535 27.8818 9.55317 30.1355C13.241 32.3891 16.9212 32.9318 16.9212 32.9318C16.9734 32.9398 17.0266 32.9398 17.0789 32.9318C17.0789 32.9318 20.759 32.3891 24.4468 30.1355C28.1347 27.8818 31.875 23.8293 31.875 16.9974V5.84528C31.8772 5.57846 31.6807 5.35157 31.4164 5.31507C23.5488 4.26605 17.2397 1.11905 17.2397 1.11905C17.1596 1.07768 17.0704 1.05718 16.9803 1.05979H16.9803ZM17 7.43691C22.2749 7.43691 26.5604 11.7224 26.5604 16.9973C26.5604 22.2722 22.2749 26.5629 17 26.5629C11.7251 26.5629 7.43955 22.2722 7.43955 16.9973C7.43955 11.7224 11.7251 7.43691 17 7.43691V7.43691ZM14.8739 12.2171V14.8765H12.2198C11.9264 14.8754 11.6876 15.1123 11.6864 15.4057V18.5942C11.6875 18.8876 11.9264 19.1245 12.2198 19.1234H14.8739V21.7827C14.875 22.0765 15.1145 22.3136 15.4083 22.3119H18.5916C18.885 22.313 19.1238 22.0761 19.125 21.7827V19.1234H21.7802C22.0736 19.1244 22.3123 18.8876 22.3135 18.5942V15.4057C22.3124 15.1123 22.0736 14.8754 21.7802 14.8765H19.125V12.2171C19.1239 11.9237 18.885 11.6868 18.5916 11.688H15.3808C15.0811 11.7147 14.8737 11.9437 14.8739 12.2171H14.8739Z" fill="#042181"/>
</svg>
