<svg width="120" height="120" viewBox="0 0 120 120" fill="none" xmlns="http://www.w3.org/2000/svg">
<path d="M115.847 22.7363H111.572C110.625 22.7374 109.717 23.1142 109.047 23.7839C108.378 24.4536 108.001 25.3616 108 26.3087L108.002 93.3683C108.001 93.4949 108.018 93.621 108.051 93.7433L112.354 109.302C112.436 109.598 112.613 109.86 112.858 110.046C113.103 110.232 113.402 110.333 113.71 110.333C114.017 110.333 114.316 110.232 114.561 110.046C114.806 109.86 114.983 109.598 115.065 109.302L119.368 93.7433C119.401 93.6211 119.418 93.4949 119.417 93.3683L119.419 26.3087C119.418 25.3616 119.041 24.4536 118.372 23.7839C117.702 23.1142 116.794 22.7374 115.847 22.7363Z" fill="#C0F8E8"/>
<path d="M81.2687 0.81707C81.005 0.553415 80.6473 0.405291 80.2745 0.405273H10.925C9.48458 0.406886 8.10363 0.97982 7.08512 1.99837C6.06661 3.01692 5.49374 4.3979 5.49219 5.83832V114.162C5.49374 115.602 6.06661 116.983 7.08512 118.002C8.10363 119.02 9.48458 119.593 10.925 119.595H94.4919C95.9323 119.593 97.3133 119.02 98.3319 118.002C99.3505 116.983 99.9235 115.602 99.9252 114.162V20.0557C99.9251 19.6828 99.7769 19.3252 99.5131 19.0615L81.2687 0.81707ZM81.6671 5.19402L95.1228 18.6495H81.6681L81.6671 5.19402ZM94.4909 116.782H10.925C10.2303 116.781 9.5642 116.505 9.07297 116.014C8.58173 115.523 8.30543 114.856 8.30469 114.162V5.83832C8.30543 5.14358 8.58173 4.4775 9.07297 3.98622C9.5642 3.49494 10.2303 3.21858 10.925 3.21777H78.8556V20.0557C78.8556 20.4287 79.0037 20.7864 79.2674 21.0501C79.5312 21.3138 79.8888 21.462 80.2618 21.462H97.1134V114.162C97.1125 114.857 96.8361 115.523 96.3446 116.014C95.8531 116.506 95.1859 116.782 94.4909 116.782ZM110.938 18.7364H106.663C105.716 18.7376 104.808 19.1143 104.138 19.784C103.469 20.4537 103.092 21.3617 103.091 22.3088L103.093 89.3684C103.092 89.495 103.108 89.6212 103.141 89.7434L107.445 105.302C107.527 105.598 107.704 105.86 107.949 106.046C108.194 106.232 108.493 106.333 108.8 106.333C109.108 106.333 109.407 106.232 109.652 106.046C109.897 105.86 110.074 105.598 110.156 105.302L114.459 89.7434C114.492 89.6212 114.509 89.495 114.508 89.3684L114.51 22.3088C114.509 21.3617 114.132 20.4537 113.462 19.784C112.793 19.1143 111.885 18.7376 110.938 18.7364ZM105.903 22.3088C105.904 22.1074 105.984 21.9142 106.126 21.7718C106.268 21.6293 106.462 21.5492 106.663 21.5489H110.938C111.139 21.5492 111.332 21.6293 111.475 21.7718C111.617 21.9142 111.697 22.1074 111.697 22.3088V27.3432H105.903V22.3088ZM111.697 87.9624H105.903V30.1557H111.697V87.9624ZM108.8 99.6516L106.345 90.7749H111.256L108.8 99.6516ZM33.6596 42.8672V66.6329C33.6596 67.0058 33.8078 67.3635 34.0715 67.6272C34.3352 67.8909 34.6929 68.0391 35.0659 68.0391H70.351C70.724 68.0391 71.0817 67.8909 71.3454 67.6272C71.6091 67.3635 71.7573 67.0058 71.7573 66.6329V42.961C72.2891 43.0237 72.8282 42.9707 73.3377 42.8056C73.9983 42.5943 74.592 42.2134 75.0593 41.7009C75.5267 41.1885 75.8514 40.5623 76.0011 39.885C76.3114 38.4687 75.8075 37.0343 74.6183 35.9504C74.611 35.9436 74.6038 35.937 74.5963 35.9307L56.5259 20.1338C55.4381 19.1754 54.0368 18.6488 52.587 18.6534C51.1372 18.6581 49.7394 19.1937 48.6577 20.1591L31.0107 35.9262C28.8821 37.6664 28.9639 40.0582 30.1508 41.5278C30.5643 42.0422 31.1072 42.4374 31.7238 42.6728C32.3404 42.9081 33.0085 42.9753 33.6596 42.8672ZM56.9776 65.2266H48.44V46.6308C48.44 46.5648 48.4662 46.5016 48.5128 46.4549C48.5594 46.4082 48.6227 46.382 48.6887 46.3819H56.7277C56.7937 46.382 56.857 46.4082 56.9037 46.4549C56.9503 46.5016 56.9766 46.5648 56.9766 46.6308L56.9776 65.2266ZM59.7901 65.2266V46.6308C59.7889 45.8192 59.4659 45.0413 58.8919 44.4675C58.3179 43.8938 57.5398 43.5712 56.7282 43.5704H48.6891C47.8775 43.5713 47.0994 43.8941 46.5255 44.4681C45.9516 45.042 45.6288 45.8201 45.628 46.6318V65.2266H36.4721V41.2735L52.6067 26.6182L68.9448 41.475V65.2266H59.7901ZM32.807 38.0909C32.8252 38.0761 32.843 38.0609 32.8606 38.0452L50.5325 22.2561C51.1017 21.7486 51.8372 21.4675 52.5998 21.4658C53.3624 21.4641 54.0991 21.742 54.6706 22.2469L72.7332 38.0372C73.0379 38.3168 73.3686 38.7575 73.2535 39.2829C73.2075 39.477 73.1129 39.6562 72.9785 39.8035C72.8442 39.9509 72.6745 40.0616 72.4855 40.1253C71.9668 40.2893 71.4936 39.9919 71.1856 39.7116L53.5529 23.6778C53.2941 23.4426 52.9569 23.3123 52.6072 23.3123C52.2575 23.3123 51.9203 23.4426 51.6615 23.6778L34.0423 39.6816C33.2455 40.3083 32.6417 40.1365 32.3396 39.7622C32.0342 39.3828 31.9965 38.745 32.807 38.0909Z" fill="#042181"/>
<path d="M80.7518 78.9153C81.0155 78.6515 81.1637 78.2939 81.1637 77.9209C81.1637 77.5479 81.0155 77.1903 80.7518 76.9265C80.4881 76.6628 80.1304 76.5146 79.7574 76.5146H25.6602C25.2872 76.5146 24.9295 76.6628 24.6658 76.9265C24.4021 77.1903 24.2539 77.5479 24.2539 77.9209C24.2539 78.2939 24.4021 78.6515 24.6658 78.9153C24.9295 79.179 25.2872 79.3271 25.6602 79.3271H79.7574C80.1304 79.3271 80.4881 79.179 80.7518 78.9153Z" fill="#3AC19B"/>
<path d="M80.7518 87.4786C81.0155 87.2149 81.1637 86.8572 81.1637 86.4843C81.1637 86.2996 81.1274 86.1169 81.0567 85.9463C80.986 85.7756 80.8825 85.6206 80.7519 85.49C80.6213 85.3594 80.4663 85.2558 80.2956 85.1851C80.125 85.1144 79.9421 85.078 79.7574 85.078H25.6602C25.2872 85.078 24.9295 85.2262 24.6658 85.4899C24.4021 85.7536 24.2539 86.1113 24.2539 86.4843C24.2539 86.8572 24.4021 87.2149 24.6658 87.4786C24.9295 87.7423 25.2872 87.8905 25.6602 87.8905H79.7574C80.1304 87.8905 80.4881 87.7423 80.7518 87.4786Z" fill="#3AC19B"/>
<path d="M80.7518 96.042C81.0155 95.7783 81.1637 95.4206 81.1637 95.0476C81.1637 94.6747 81.0155 94.317 80.7518 94.0532C80.4881 93.7895 80.1304 93.6414 79.7574 93.6414H25.6602C25.2872 93.6414 24.9295 93.7895 24.6658 94.0532C24.4021 94.317 24.2539 94.6747 24.2539 95.0476C24.2539 95.4206 24.4021 95.7783 24.6658 96.042C24.9295 96.3057 25.2872 96.4539 25.6602 96.4539H79.7574C80.1304 96.4539 80.4881 96.3057 80.7518 96.042Z" fill="#3AC19B"/>
<path d="M80.7518 104.605C81.0155 104.341 81.1637 103.984 81.1637 103.611C81.1637 103.238 81.0155 102.88 80.7518 102.616C80.4881 102.353 80.1304 102.204 79.7574 102.204H25.6602C25.2872 102.204 24.9295 102.353 24.6658 102.616C24.4021 102.88 24.2539 103.238 24.2539 103.611C24.2539 103.984 24.4021 104.341 24.6658 104.605C24.9295 104.869 25.2872 105.017 25.6602 105.017H79.7574C80.1304 105.017 80.4881 104.869 80.7518 104.605Z" fill="#3AC19B"/>
</svg>
