<svg width="34" height="34" viewBox="0 0 34 34" fill="none" xmlns="http://www.w3.org/2000/svg">
<path d="M5.20066 4.01221C5.19975 4.01221 5.19872 4.01221 5.1978 4.01221C4.87623 4.01221 4.57378 4.13756 4.34539 4.36537C4.11449 4.5957 3.9873 4.90239 3.9873 5.22888V23.4728C3.9873 24.1418 4.53371 24.6874 5.20547 24.6891C8.03744 24.6958 12.7821 25.2861 16.0553 28.7114V9.61868C16.0553 9.3919 15.9974 9.17885 15.888 9.00255C13.2016 4.67618 8.03904 4.01885 5.20066 4.01221Z" fill="#042181"/>
<path d="M30.0122 23.4729V5.22888C30.0122 4.90239 29.885 4.5957 29.6541 4.36537C29.4257 4.13756 29.123 4.01221 28.8018 4.01221C28.8008 4.01221 28.7998 4.01221 28.7988 4.01221C25.9606 4.01896 20.7981 4.6763 18.1115 9.00267C18.0021 9.17897 17.9443 9.39201 17.9443 9.61879V28.7114C21.2175 25.2861 25.9622 24.6958 28.7941 24.6891C29.4658 24.6874 30.0122 24.1418 30.0122 23.4729Z" fill="#042181"/>
<path d="M32.7834 8.21973H31.9012V23.473C31.9012 25.1811 30.5095 26.5739 28.7988 26.5782C26.3967 26.5839 22.4359 27.0536 19.6309 29.7085C24.4822 28.5207 29.5964 29.2928 32.5111 29.957C32.875 30.0399 33.2511 29.9543 33.5426 29.7219C33.8332 29.4901 33.9999 29.1435 33.9999 28.7716V9.43617C34 8.76545 33.4541 8.21973 32.7834 8.21973Z" fill="#042181"/>
<path d="M2.09862 23.473V8.21973H1.21645C0.545834 8.21973 0 8.76545 0 9.43617V28.7712C0 29.1433 0.166681 29.4897 0.457227 29.7215C0.748575 29.9538 1.12429 30.0398 1.48879 29.9567C4.40342 29.2924 9.51774 28.5203 14.3689 29.7081C11.5639 27.0534 7.6032 26.5838 5.2011 26.5781C3.49045 26.5739 2.09862 25.1811 2.09862 23.473Z" fill="#042181"/>
</svg>
