<svg width="120" height="120" viewBox="0 0 120 120" fill="none" xmlns="http://www.w3.org/2000/svg">
<path d="M90.5179 13.2481C88.7773 11.5044 86.7099 10.1211 84.434 9.17733C82.1581 8.23357 79.7185 7.74787 77.2547 7.74805C74.7909 7.74822 72.3514 8.23426 70.0756 9.17835C67.7999 10.1224 65.7327 11.506 63.9923 13.25C62.2521 11.506 60.1849 10.1224 57.9093 9.17834C55.6336 8.2343 53.1941 7.74837 50.7304 7.74837C48.2667 7.74837 45.8272 8.2343 43.5515 9.17834C41.2759 10.1224 39.2088 11.506 37.4685 13.25C33.9592 16.7669 31.9883 21.5323 31.9883 26.5006C31.9883 31.4689 33.9592 36.2343 37.4685 39.7512L62.6685 64.9512C63.0202 65.3027 63.497 65.5002 63.9942 65.5002C64.4913 65.5002 64.9682 65.3027 65.3198 64.9512L90.5198 39.7512C94.029 36.2337 95.9996 31.4679 95.9993 26.4993C95.9989 21.5306 94.0276 16.7651 90.5179 13.2481Z" fill="#C0F8E8"/>
<path d="M71.25 24.375H65.625V18.75C65.625 18.2527 65.4275 17.7758 65.0758 17.4242C64.7242 17.0725 64.2473 16.875 63.75 16.875H56.25C55.7527 16.875 55.2758 17.0725 54.9242 17.4242C54.5725 17.7758 54.375 18.2527 54.375 18.75V24.375H48.75C48.2527 24.375 47.7758 24.5725 47.4242 24.9242C47.0725 25.2758 46.875 25.7527 46.875 26.25V33.75C46.875 34.2473 47.0725 34.7242 47.4242 35.0758C47.7758 35.4275 48.2527 35.625 48.75 35.625H54.375V41.25C54.375 41.7473 54.5725 42.2242 54.9242 42.5758C55.2758 42.9275 55.7527 43.125 56.25 43.125H63.75C64.2473 43.125 64.7242 42.9275 65.0758 42.5758C65.4275 42.2242 65.625 41.7473 65.625 41.25V35.625H71.25C71.7473 35.625 72.2242 35.4275 72.5758 35.0758C72.9275 34.7242 73.125 34.2473 73.125 33.75V26.25C73.125 25.7527 72.9275 25.2758 72.5758 24.9242C72.2242 24.5725 71.7473 24.375 71.25 24.375ZM69.375 31.875H63.75C63.2527 31.875 62.7758 32.0725 62.4242 32.4242C62.0725 32.7758 61.875 33.2527 61.875 33.75V39.375H58.125V33.75C58.125 33.2527 57.9275 32.7758 57.5758 32.4242C57.2242 32.0725 56.7473 31.875 56.25 31.875H50.625V28.125H56.25C56.7473 28.125 57.2242 27.9275 57.5758 27.5758C57.9275 27.2242 58.125 26.7473 58.125 26.25V20.625H61.875V26.25C61.875 26.7473 62.0725 27.2242 62.4242 27.5758C62.7758 27.9275 63.2527 28.125 63.75 28.125H69.375V31.875Z" fill="#042181" stroke="#C0F8E8"/>
<path d="M111.994 34.425C112.032 34.0951 112.05 33.7633 112.05 33.4312C112.041 31.7126 111.445 30.0486 110.36 28.7152C109.276 27.3818 107.768 26.4591 106.088 26.1C104.186 25.7381 102.219 26.1119 100.583 27.1457C98.9465 28.1796 97.7643 29.7963 97.275 31.6687L89.025 55.4062C88.9027 55.4548 88.7838 55.5111 88.6688 55.575L72.0938 65.2875C69.5574 66.7773 67.4537 68.9031 65.9904 71.4549C64.5271 74.0066 63.7549 76.896 63.75 79.8375V97.5C63.2527 97.5 62.7758 97.6975 62.4242 98.0492C62.0725 98.4008 61.875 98.8777 61.875 99.375V114.375C61.875 114.872 62.0725 115.349 62.4242 115.701C62.7758 116.052 63.2527 116.25 63.75 116.25H90C90.4973 116.25 90.9742 116.052 91.3258 115.701C91.6775 115.349 91.875 114.872 91.875 114.375V99.375C91.875 98.8777 91.6775 98.4008 91.3258 98.0492C90.9742 97.6975 90.4973 97.5 90 97.5V93.375C90.0035 92.5831 90.1721 91.8006 90.4949 91.0774C90.8177 90.3542 91.2878 89.7063 91.875 89.175L104.55 77.9062C105.936 76.6931 106.929 75.0935 107.4 73.3125L115.537 42.8812C115.711 42.2458 115.799 41.59 115.8 40.9312C115.793 39.6081 115.437 38.3101 114.769 37.168C114.101 36.0259 113.144 35.0798 111.994 34.425ZM100.856 32.775C101.086 31.8053 101.674 30.958 102.501 30.402C103.328 29.846 104.334 29.6221 105.319 29.775C106.159 29.951 106.914 30.4101 107.456 31.0756C107.999 31.7411 108.297 32.5726 108.3 33.4312V33.4687C106.625 33.4998 105.006 34.0771 103.69 35.1128C102.373 36.1485 101.431 37.5858 101.006 39.2062L95.775 55.35C94.983 54.9743 94.1338 54.7335 93.2625 54.6375L100.856 32.775ZM88.125 112.5H65.625V101.25H88.125V112.5ZM111.919 41.9062L103.763 72.3562C103.48 73.4144 102.894 74.3663 102.075 75.0937L89.3812 86.3625C88.399 87.2483 87.613 88.3298 87.0737 89.5375C86.5344 90.7452 86.2539 92.0524 86.25 93.375V97.5H67.5V79.8375C67.5093 77.5499 68.112 75.3038 69.2491 73.3188C70.3862 71.3338 72.0188 69.6777 73.9875 68.5125L90.5438 58.8187C90.9706 58.57 91.4425 58.4081 91.9321 58.3423C92.4218 58.2765 92.9196 58.3081 93.397 58.4353C93.8744 58.5625 94.322 58.7828 94.714 59.0835C95.106 59.3842 95.4347 59.7594 95.6812 60.1875C96.1683 61.0539 96.3026 62.0746 96.0562 63.0375C95.926 63.5129 95.7033 63.958 95.4009 64.3473C95.0985 64.7366 94.7222 65.0625 94.2938 65.3062L83.55 71.5125C83.1419 71.7719 82.8498 72.179 82.7347 72.6488C82.6197 73.1185 82.6906 73.6145 82.9326 74.0332C83.1746 74.4519 83.569 74.7608 84.0335 74.8956C84.4979 75.0303 84.9965 74.9804 85.425 74.7562L96.1688 68.55C97.0275 68.0628 97.7801 67.4086 98.3823 66.6262C98.9844 65.8437 99.424 64.9487 99.675 63.9937C100.185 62.0753 99.9158 60.0328 98.925 58.3125L98.8125 58.1437L104.606 40.275C104.836 39.3053 105.424 38.458 106.251 37.902C107.078 37.346 108.084 37.1221 109.069 37.275C109.909 37.451 110.664 37.9101 111.206 38.5756C111.749 39.2411 112.047 40.0726 112.05 40.9312C112.056 41.261 112.012 41.5899 111.919 41.9062Z" fill="#042181" stroke="white"/>
<path d="M56.2492 97.5001V79.8376C56.2444 76.8961 55.4721 74.0068 54.0088 71.455C52.5455 68.9033 50.4418 66.7775 47.9055 65.2876L31.3305 55.5564C31.218 55.5001 31.0867 55.4626 30.9742 55.4064L22.7805 31.8001C22.3042 29.9004 21.122 28.2535 19.4744 27.1945C17.8268 26.1356 15.8377 25.7443 13.9117 26.1001C12.231 26.4592 10.7234 27.382 9.63894 28.7154C8.5545 30.0488 7.95831 31.7127 7.94922 33.4314C7.94873 33.7634 7.96751 34.0953 8.00547 34.4251C6.85565 35.08 5.89854 36.026 5.23038 37.1681C4.56222 38.3103 4.20658 39.6082 4.19922 40.9314C4.20286 41.5888 4.28469 42.2434 4.44297 42.8814L12.5992 73.2939C13.0653 75.0823 14.0583 76.6894 15.4492 77.9064L28.1055 89.1751C28.6986 89.7028 29.1738 90.3495 29.5001 91.0732C29.8264 91.7969 29.9965 92.5813 29.9992 93.3751V97.5001C29.5019 97.5001 29.025 97.6977 28.6734 98.0493C28.3218 98.4009 28.1242 98.8779 28.1242 99.3751V114.375C28.1242 114.872 28.3218 115.349 28.6734 115.701C29.025 116.053 29.5019 116.25 29.9992 116.25H56.2492C56.7465 116.25 57.2234 116.053 57.575 115.701C57.9267 115.349 58.1242 114.872 58.1242 114.375V99.3751C58.1242 98.8779 57.9267 98.4009 57.575 98.0493C57.2234 97.6977 56.7465 97.5001 56.2492 97.5001ZM11.6992 33.4314C11.7015 32.5753 11.9967 31.7459 12.5356 31.0807C13.0745 30.4156 13.8248 29.9549 14.6617 29.7751C15.6736 29.6283 16.7036 29.8694 17.5451 30.4501C18.3866 31.0308 18.9775 31.9082 19.1992 32.9064L26.7367 54.6376C25.8654 54.7336 25.0162 54.9745 24.2242 55.3501L19.0305 39.3001C18.6078 37.6637 17.6637 36.2095 16.3409 35.1574C15.0182 34.1052 13.3888 33.5125 11.6992 33.4689V33.4314ZM30.5992 86.3626L17.9242 75.0939C17.1012 74.3625 16.5139 73.4032 16.2367 72.3376L8.06172 41.9064C7.98411 41.5873 7.94632 41.2598 7.94922 40.9314C7.95153 40.0753 8.24666 39.2459 8.78558 38.5807C9.3245 37.9156 10.0748 37.4549 10.9117 37.2751C11.9165 37.1243 12.941 37.3596 13.7794 37.9336C14.6177 38.5075 15.2076 39.3776 15.4305 40.3689L21.1867 58.1439L21.0742 58.3126C20.0835 60.0329 19.8138 62.0754 20.3242 63.9939C20.5753 64.9488 21.0148 65.8438 21.6169 66.6263C22.2191 67.4088 22.9717 68.0629 23.8305 68.5501L34.5742 74.7564C35.0027 74.9806 35.5013 75.0305 35.9657 74.8957C36.4302 74.761 36.8246 74.452 37.0666 74.0333C37.3087 73.6146 37.3795 73.1186 37.2645 72.6489C37.1494 72.1792 36.8573 71.7721 36.4492 71.5126L25.7055 65.3064C25.277 65.0626 24.9008 64.7368 24.5983 64.3475C24.2959 63.9582 24.0732 63.5131 23.943 63.0376C23.6966 62.0748 23.831 61.054 24.318 60.1876C24.563 59.7604 24.8897 59.3856 25.2795 59.0847C25.6694 58.7838 26.1146 58.5626 26.59 58.4337C27.0653 58.3049 27.5613 58.2709 28.0498 58.3338C28.5382 58.3967 29.0095 58.5551 29.4367 58.8001L46.0117 68.5126C47.9804 69.6779 49.613 71.3339 50.7502 73.3189C51.8873 75.3039 52.4899 77.55 52.4992 79.8376V97.5001H33.7492V93.3751C33.746 92.0506 33.4639 90.7416 32.9211 89.5334C32.3784 88.3251 31.5873 87.2448 30.5992 86.3626ZM54.3742 112.5H31.8742V101.25H54.3742V112.5Z" fill="#042181" stroke="white"/>
<path d="M86.5257 9.6226C84.7851 7.87892 82.7177 6.49561 80.4418 5.55184C78.166 4.60808 75.7263 4.12238 73.2625 4.12256C70.7987 4.12273 68.3592 4.60877 66.0834 5.55286C63.8077 6.49695 61.7405 7.88055 60.0001 9.62448C58.2599 7.8805 56.1928 6.49689 53.9171 5.55285C51.6414 4.60881 49.2019 4.12288 46.7382 4.12288C44.2745 4.12288 41.835 4.60881 39.5593 5.55285C37.2837 6.49689 35.2166 7.8805 33.4763 9.62448C29.967 13.1414 27.9961 17.9068 27.9961 22.8751C27.9961 27.8434 29.967 32.6088 33.4763 36.1257L58.6763 61.3257C59.028 61.6772 59.5048 61.8747 60.002 61.8747C60.4992 61.8747 60.976 61.6772 61.3276 61.3257L86.5276 36.1257C90.0368 32.6083 92.0074 27.8424 92.0071 22.8738C92.0067 17.9052 90.0354 13.1396 86.5257 9.6226ZM60.0001 57.3489L36.1257 33.4745C34.0297 31.3756 32.603 28.7024 32.0261 25.7929C31.4491 22.8833 31.7477 19.868 32.8841 17.1281C34.0206 14.3883 35.9438 12.0468 38.4108 10.3998C40.8778 8.75285 43.7776 7.87425 46.7438 7.8751C48.7142 7.86833 50.6663 8.25397 52.4861 9.00951C54.3059 9.76505 55.957 10.8754 57.3432 12.2757L58.6745 13.607C59.0261 13.9585 59.5029 14.156 60.0001 14.156C60.4973 14.156 60.9741 13.9585 61.3257 13.607L62.6607 12.272C64.0527 10.8775 65.7061 9.77111 67.5261 9.01626C69.3462 8.2614 71.2972 7.87286 73.2676 7.87286C75.238 7.87286 77.189 8.2614 79.0091 9.01626C80.8291 9.77111 82.4825 10.8775 83.8745 12.272C86.6831 15.0844 88.2607 18.8966 88.2607 22.8714C88.2607 26.8461 86.6831 30.6583 83.8745 33.4707L60.0001 57.3489Z" fill="#042181" stroke="white"/>
<rect x="69" y="105" width="16" height="4" rx="1" fill="#3AC19B"/>
<rect x="35" y="105" width="16" height="4" rx="1" fill="#3AC19B"/>
</svg>
