<svg width="24" height="24" viewBox="0 0 24 24" fill="none" xmlns="http://www.w3.org/2000/svg">
<g clip-path="url(#clip0_655_3541)">
<path d="M18 12C16.2003 12 14.5899 12.7959 13.4904 14.0508L9.68191 11.7069C9.87691 11.1717 10.0002 10.6022 10.0002 9.99984C10.0002 9.60627 9.94377 9.22764 9.8577 8.85926L14.9202 6.52318C15.6534 7.41779 16.7529 7.9998 18.0003 7.9998C20.2083 7.9998 22.0002 6.20883 22.0002 3.9999C22.0002 1.79098 20.208 0 18 0C15.7902 0 14.0001 1.79098 14.0001 3.9999C14.0001 4.24383 14.0304 4.47932 14.0712 4.71182L9.01465 7.04584C8.10357 5.81039 6.65133 4.9998 5.0001 4.9998C2.23828 5.0001 0 7.23809 0 9.9999C0 12.7617 2.23828 15 5.0001 15C6.4374 15 7.72471 14.3847 8.63672 13.4121L12.4395 15.7521C12.1581 16.4472 12 17.2041 12 18C12 21.3144 14.6856 24 18 24C21.3126 24 24 21.3144 24 18C24 14.6856 21.3126 12 18 12Z" fill="#042181"/>
</g>
<defs>
<clipPath id="clip0_655_3541">
<rect width="24" height="24" fill="white"/>
</clipPath>
</defs>
</svg>
