<svg width="34" height="34" viewBox="0 0 34 34" fill="none" xmlns="http://www.w3.org/2000/svg">
<path d="M7.96875 8.5H1.67883L8.5 1.67883V7.96875C8.5 8.25513 8.25565 8.5 7.96875 8.5ZM20.8355 22.3125L18.7105 26.5625L22.9605 24.4375L29.6436 17.7543L27.5186 15.6293L20.8355 22.3125ZM32.523 12.75C31.9388 12.1658 30.9505 12.198 30.3238 12.8133L29.0169 14.1207L31.1419 16.2457L32.4488 14.9383C33.0755 14.323 33.1077 13.3342 32.523 12.75ZM16.8086 25.6172C16.4049 26.4349 16.5642 27.4227 17.2127 28.0608C17.6163 28.4748 18.158 28.6875 18.7105 28.6875C19.0295 28.6875 19.359 28.6128 19.6562 28.4644L23.9062 26.3394C24.119 26.2336 24.2995 26.106 24.4588 25.9358L26.5625 23.8315V30.2812C26.5625 31.7474 25.3724 32.9375 23.9062 32.9375H3.71875C2.25262 32.9375 1.0625 31.7474 1.0625 30.2812V10.625H7.96875C9.43488 10.625 10.625 9.43488 10.625 7.96875V1.0625H23.9062C25.3724 1.0625 26.5625 2.25262 26.5625 3.71875V13.5676L19.3268 20.8142C19.1675 20.974 19.0399 21.1545 18.9336 21.3672L16.8086 25.6172ZM9.25433 24.7457C8.83981 24.3317 8.16019 24.3317 7.74567 24.7457L6.375 26.1267L6.06683 25.8082C5.65231 25.3942 4.97269 25.3942 4.55817 25.8082C4.14365 26.2222 4.14365 26.9028 4.55817 27.3168L5.62067 28.3793C5.83337 28.5817 6.099 28.6875 6.375 28.6875C6.651 28.6875 6.91663 28.5817 7.12933 28.3793L9.25433 26.2543C9.66885 25.8403 9.66885 25.1597 9.25433 24.7457ZM9.25433 19.4332C8.83981 19.0192 8.16019 19.0192 7.74567 19.4332L6.375 20.8142L6.06683 20.4957C5.65231 20.0817 4.97269 20.0817 4.55817 20.4957C4.14365 20.9097 4.14365 21.5903 4.55817 22.0043L5.62067 23.0668C5.83337 23.2692 6.099 23.375 6.375 23.375C6.651 23.375 6.91663 23.2692 7.12933 23.0668L9.25433 20.9418C9.66885 20.5278 9.66885 19.8472 9.25433 19.4332ZM9.25433 14.1207C8.83981 13.7067 8.16019 13.7067 7.74567 14.1207L6.375 15.5017L6.06683 15.1832C5.65231 14.7692 4.97269 14.7692 4.55817 15.1832C4.14365 15.5972 4.14365 16.2778 4.55817 16.6918L5.62067 17.7543C5.83337 17.9567 6.099 18.0625 6.375 18.0625C6.651 18.0625 6.91663 17.9567 7.12933 17.7543L9.25433 15.6293C9.66885 15.2153 9.66885 14.5347 9.25433 14.1207ZM11.6875 15.9375C11.6875 16.5217 12.1658 17 12.75 17H22.3125C22.8967 17 23.375 16.5217 23.375 15.9375C23.375 15.3533 22.8967 14.875 22.3125 14.875H12.75C12.1658 14.875 11.6875 15.3533 11.6875 15.9375ZM15.9375 26.5625C15.9375 25.9783 15.4592 25.5 14.875 25.5H12.75C12.1658 25.5 11.6875 25.9783 11.6875 26.5625C11.6875 27.1467 12.1658 27.625 12.75 27.625H14.875C15.4592 27.625 15.9375 27.1467 15.9375 26.5625ZM17 21.25C17 20.6658 16.5217 20.1875 15.9375 20.1875H12.75C12.1658 20.1875 11.6875 20.6658 11.6875 21.25C11.6875 21.8342 12.1658 22.3125 12.75 22.3125H15.9375C16.5217 22.3125 17 21.8342 17 21.25Z" fill="#042181"/>
</svg>
