<svg width="36" height="36" viewBox="0 0 36 36" fill="none" xmlns="http://www.w3.org/2000/svg">
<path fill-rule="evenodd" clip-rule="evenodd" d="M9.2257 0H21.2617L31.4626 10.6327V31.3134C31.4626 33.9041 29.3666 36 26.7849 36H9.2257C6.63501 36 4.53906 33.9041 4.53906 31.3134V4.68664C4.53902 2.09594 6.63496 0 9.2257 0V0Z" fill="#E5252A"/>
<path opacity="0.302" fill-rule="evenodd" clip-rule="evenodd" d="M21.252 0V10.5517H31.4619L21.252 0Z" fill="white"/>
<path d="M9.74609 26.8606V20.2849H12.5437C13.2364 20.2849 13.7851 20.4738 14.1989 20.8606C14.6127 21.2384 14.8196 21.7512 14.8196 22.3899C14.8196 23.0285 14.6127 23.5413 14.1989 23.9191C13.7851 24.3059 13.2364 24.4948 12.5437 24.4948H11.4283V26.8606H9.74609ZM11.4283 23.0646H12.3548C12.6067 23.0646 12.8046 23.0106 12.9395 22.8847C13.0744 22.7677 13.1464 22.6058 13.1464 22.3899C13.1464 22.174 13.0745 22.0121 12.9395 21.8952C12.8046 21.7692 12.6067 21.7153 12.3548 21.7153H11.4283V23.0646ZM15.5122 26.8606V20.2849H17.842C18.3008 20.2849 18.7326 20.3479 19.1374 20.4828C19.5422 20.6177 19.911 20.8067 20.2348 21.0675C20.5587 21.3194 20.8195 21.6612 21.0084 22.093C21.1883 22.5248 21.2873 23.0196 21.2873 23.5773C21.2873 24.126 21.1884 24.6208 21.0084 25.0525C20.8195 25.4843 20.5587 25.8261 20.2348 26.078C19.911 26.3389 19.5422 26.5278 19.1374 26.6627C18.7326 26.7976 18.3008 26.8606 17.842 26.8606H15.5122ZM17.1584 25.4304H17.6441C17.905 25.4304 18.1479 25.4034 18.3728 25.3404C18.5886 25.2774 18.7956 25.1785 18.9935 25.0436C19.1824 24.9086 19.3353 24.7197 19.4432 24.4678C19.5512 24.216 19.6052 23.9191 19.6052 23.5773C19.6052 23.2264 19.5512 22.9296 19.4432 22.6777C19.3353 22.4259 19.1824 22.237 18.9935 22.102C18.7956 21.9671 18.5887 21.8681 18.3728 21.8052C18.1479 21.7422 17.905 21.7152 17.6441 21.7152H17.1584V25.4304ZM22.1329 26.8606V20.2849H26.8106V21.7152H23.8151V22.7677H26.2079V24.189H23.8151V26.8606H22.1329Z" fill="white"/>
</svg>
