<svg width="34" height="34" viewBox="0 0 34 34" fill="none" xmlns="http://www.w3.org/2000/svg">
<g clip-path="url(#clip0_455_10571)">
<path d="M31.8648 21.7195H30.7248C30.3607 21.7195 30.0184 21.5453 29.8042 21.2508L23.4173 12.4723C22.9069 11.8045 22.1143 11.4127 21.2737 11.4127H19.8695C19.5662 11.4127 19.3202 11.1668 19.3202 10.8634V9.56216C19.3202 9.30525 19.4516 9.06765 19.6663 8.92658C21.0015 8.04942 21.8781 6.53111 21.858 4.80945C21.827 2.15813 19.634 0.00230675 16.9825 0.0144554C14.3127 0.0267368 12.1522 2.19477 12.1522 4.86747C12.1522 6.56443 13.0231 8.05799 14.3425 8.92545C14.5578 9.06699 14.6903 9.30465 14.6903 9.56236V10.8634C14.6903 11.1667 14.4444 11.4127 14.141 11.4127H12.3643C11.5237 11.4127 10.7311 11.8045 10.2207 12.4723L3.84395 21.3212C3.62999 21.6181 3.28631 21.7941 2.92025 21.7941H2.13511C0.955959 21.7941 0 22.75 0 23.9292C0 25.1084 0.955892 26.0643 2.13511 26.0643H4.23257C2.93851 26.7873 2.06295 28.1698 2.06295 29.7574C2.06295 32.0926 3.95601 33.9856 6.2912 33.9856H24.2039L10.1321 26.1887C9.0135 25.7548 7.82187 25.5291 6.61583 25.5291H6.53292C6.69822 25.3971 6.84798 25.2436 6.97624 25.0695L11.0306 19.0322V24.3537C11.0503 24.363 11.0701 24.3718 11.0894 24.3824L17.0477 27.6848L22.6074 24.3495V19.0322L26.6722 24.9949C26.8063 25.1769 26.9637 25.3365 27.138 25.4724C25.6008 25.4954 23.9775 25.9178 22.6074 26.6787V26.672L19.06 28.8001L28.1645 33.8462C30.1083 33.4652 31.5751 31.753 31.5751 29.6977V29.6774C31.5751 28.0825 30.6918 26.7039 29.388 25.9898H31.8649C33.0441 25.9898 34 25.0339 34 23.8547C34 22.6754 33.044 21.7195 31.8648 21.7195V21.7195Z" fill="#042181"/>
</g>
<defs>
<clipPath id="clip0_455_10571">
<rect width="34" height="34" fill="white"/>
</clipPath>
</defs>
</svg>
