<svg width="34" height="34" viewBox="0 0 34 34" fill="none" xmlns="http://www.w3.org/2000/svg">
<path d="M16.8001 14.0675H16.8143L23.756 11.7017C23.7843 11.5742 23.7843 11.4467 23.7843 11.3333C23.7843 11.2058 23.7701 11.0925 23.7276 10.9792C23.6143 10.6533 23.4018 10.2992 23.1043 10.0442V6.94167C23.1043 4.64667 22.2826 3.74 21.4326 3.21583C20.9935 1.88417 19.166 0 15.5818 0C11.3318 0 8.13012 4.2075 8.13012 6.94167C8.13012 8.075 8.08762 8.9675 8.04512 9.6475C8.04512 9.78917 8.03096 9.91667 8.03096 10.03C7.71929 10.3133 7.50679 10.6958 7.40762 11.0642C7.39346 11.1492 7.37929 11.2342 7.37929 11.3333C7.37929 12.4383 8.00262 14.0392 8.08762 14.2233C8.17262 14.4642 8.35679 14.6625 8.59762 14.7758C8.61179 14.8325 8.62596 14.9175 8.62596 15.0875C8.62596 16.5892 9.91512 18.0058 10.6235 18.6858C10.5526 20.2442 10.1135 21.3208 9.49012 21.59L3.93679 23.4317C2.36429 23.9558 1.18845 25.2308 0.777621 26.8458L0.0267881 29.8492C-0.0440452 30.1608 0.0267881 30.5008 0.225121 30.7558C0.423455 31.0108 0.735121 31.1667 1.06095 31.1667H16.9418C16.5168 30.6283 16.1201 30.0333 15.7518 29.3958C14.8168 27.7383 14.1651 25.7267 14.1651 23.4458V17.765C14.1651 16.0933 15.2276 14.62 16.8001 14.0675Z" fill="#042181"/>
<path d="M33.2789 16.7536L25.8414 14.2234C25.6204 14.1469 25.3796 14.1469 25.1586 14.2234L17.7211 16.7536C17.289 16.8995 17 17.3032 17 17.7594V23.4516C17 30.3989 24.7548 33.7762 25.0849 33.9165C25.3513 34.0284 25.6487 34.0284 25.9151 33.9165C26.2452 33.7748 34 30.3989 34 23.4516V17.7594C34 17.3032 33.711 16.8995 33.2789 16.7536ZM30.1552 22.1256L26.2593 27.0839C25.7635 27.7171 24.8342 27.8092 24.2236 27.2851L21.7444 25.1601C21.1494 24.6515 21.08 23.7561 21.5914 23.1626C22.1 22.569 22.9953 22.501 23.5875 23.0096L24.9447 24.1726L27.9267 20.3774C28.4098 19.7626 29.2995 19.6535 29.9158 20.1394C30.532 20.6196 30.6397 21.5107 30.1552 22.1256Z" fill="#042181"/>
</svg>
