<svg width="34" height="34" viewBox="0 0 34 34" fill="none" xmlns="http://www.w3.org/2000/svg">
<g clip-path="url(#clip0_333_834)">
<path d="M32.5731 10.0167L29.102 7.93987L28.3199 4.70257C27.9727 3.2668 26.6429 2.30962 25.1847 2.42437L21.213 2.73176L18.9378 0.717262C17.8171 -0.238921 16.1868 -0.238921 15.0624 0.716266L12.7871 2.7317L8.81532 2.4243C7.3737 2.32316 6.02645 3.26766 5.71614 4.58476C5.65192 4.78438 4.492 8.38991 4.56731 8.15569L1.42749 10.0156C0.169752 10.788 -0.334138 12.3385 0.229053 13.7023L1.58407 16.9863L0.230049 20.2694C-0.334138 21.6342 0.170682 23.1838 1.42749 23.9551L4.89509 26.0174L5.68008 29.2693C6.02539 30.7041 7.34933 31.6564 8.81525 31.5475L12.7442 31.244L15.0622 33.2822C15.6235 33.7607 16.3113 34 17 34C17.6877 34 18.3765 33.7607 18.9378 33.2821L21.2558 31.2439L25.1847 31.5474C26.6692 31.6651 27.9746 30.705 28.3199 29.2692L29.102 26.0319L32.5731 23.9551C33.8289 23.1838 34.3328 21.6342 33.7705 20.2694L32.4155 16.9864L33.7715 13.7014C34.3338 12.3386 33.8299 10.788 32.5731 10.0167ZM17 27.957C10.9583 27.957 6.04299 23.0417 6.04299 17C6.04299 10.9583 10.9583 6.04298 17 6.04298C23.0417 6.04298 27.9571 10.9583 27.9571 17C27.9571 23.0417 23.0417 27.957 17 27.957Z" fill="#042181"/>
<path d="M17 8.03516C12.0565 8.03516 8.03516 12.0565 8.03516 17C8.03516 21.9435 12.0565 25.9648 17 25.9648C21.9435 25.9648 25.9648 21.9435 25.9648 17C25.9648 12.0565 21.9435 8.03516 17 8.03516ZM22.6847 14.716L16.7081 20.6925C16.5136 20.8871 16.2587 20.9844 16.0039 20.9844C15.7491 20.9844 15.4942 20.8871 15.2997 20.6925L11.3153 16.7081C10.9262 16.3191 10.9262 15.6887 11.3153 15.2996C11.7044 14.9105 12.3348 14.9105 12.7238 15.2996L16.0039 18.5797L21.2762 13.3074C21.6653 12.9183 22.2957 12.9183 22.6848 13.3074C23.0738 13.6965 23.0738 14.3269 22.6847 14.716Z" fill="#042181"/>
</g>
<defs>
<clipPath id="clip0_333_834">
<rect width="34" height="34" fill="white"/>
</clipPath>
</defs>
</svg>
