<svg width="20" height="26" viewBox="0 0 20 26" fill="none" xmlns="http://www.w3.org/2000/svg">
<path d="M18.6279 7.1675L14.4625 4.0065C14.1377 3.7596 13.7411 3.62563 13.3331 3.625H6.6669C6.25958 3.62564 5.86359 3.75915 5.53902 4.00525L1.37215 7.1675C1.14022 7.3451 0.952227 7.57364 0.822681 7.83546C0.693136 8.09729 0.625509 8.38538 0.625024 8.6775V11.7525C0.621394 13.3474 1.02865 14.9164 1.80755 16.3082C2.58645 17.7 3.71073 18.8677 5.07202 19.6987L9.03327 22.1041C9.32474 22.2816 9.65941 22.3754 10.0006 22.3754C10.3419 22.3754 10.6766 22.2816 10.968 22.1041L14.928 19.6994C16.2893 18.8683 17.4136 17.7006 18.1925 16.3088C18.9714 14.9169 19.3787 13.3479 19.375 11.753V8.6775C19.3745 8.38538 19.3069 8.09729 19.1774 7.83546C19.0478 7.57364 18.8598 7.3451 18.6279 7.1675ZM18.125 11.753C18.1289 13.1334 17.7771 14.4914 17.1033 15.6962C16.4296 16.901 15.4568 17.9118 14.2786 18.6311L10.3199 21.0352C10.2236 21.0936 10.1132 21.1245 10.0006 21.1245C9.88807 21.1245 9.77765 21.0936 9.6814 21.0352L5.7214 18.6305C4.54338 17.9112 3.5706 16.9005 2.89687 15.6958C2.22315 14.4912 1.87122 13.1332 1.87502 11.753V8.6775C1.87488 8.5782 1.89759 8.4802 1.94139 8.39109C1.9852 8.30198 2.04893 8.22415 2.12765 8.16362L6.29577 5C6.40261 4.91911 6.53289 4.87522 6.6669 4.875H13.3331C13.4677 4.87531 13.5985 4.9197 13.7055 5.00137L17.8724 8.16388C17.9511 8.22438 18.0148 8.30217 18.0586 8.39123C18.1024 8.4803 18.1251 8.57825 18.125 8.6775V11.753Z" fill="#3AC19B"/>
<path d="M6.46359 8.83926C5.52758 9.77792 5.00195 11.0494 5.00195 12.375C5.00195 13.7006 5.52758 14.9721 6.46359 15.9108C6.52124 15.9705 6.59021 16.0181 6.66646 16.0508C6.74271 16.0836 6.82473 16.1008 6.90771 16.1015C6.9907 16.1023 7.073 16.0865 7.14981 16.055C7.22662 16.0236 7.2964 15.9772 7.35508 15.9185C7.41377 15.8598 7.46018 15.79 7.4916 15.7132C7.52303 15.6364 7.53884 15.5541 7.53812 15.4711C7.5374 15.3881 7.52016 15.3061 7.4874 15.2299C7.45465 15.1536 7.40703 15.0847 7.34734 15.027C6.70445 14.3836 6.31738 13.5285 6.25825 12.6209C6.19911 11.7132 6.47194 10.8151 7.0259 10.0937C7.57986 9.37235 8.37718 8.87697 9.26931 8.69986C10.1614 8.52276 11.0875 8.67601 11.875 9.13107C12.6625 9.58613 13.2578 10.312 13.5498 11.1733C13.8418 12.0347 13.8108 12.9729 13.4624 13.813C13.114 14.6532 12.4721 15.3381 11.6562 15.7401C10.8404 16.1421 9.90617 16.2337 9.02771 15.998C8.86904 15.9595 8.70159 15.9846 8.5612 16.068C8.42082 16.1514 8.31863 16.2864 8.27651 16.4442C8.23439 16.6019 8.25568 16.7699 8.33582 16.9122C8.41596 17.0544 8.54859 17.1597 8.70534 17.2054C9.55308 17.4323 10.4456 17.4322 11.2933 17.2049C12.1409 16.9776 12.9139 16.5313 13.5343 15.9106C14.1548 15.29 14.601 14.517 14.8281 13.6693C15.0552 12.8216 15.0552 11.9291 14.828 11.0814C14.6009 10.2337 14.1546 9.4607 13.5341 8.84011C12.9136 8.21953 12.1407 7.7732 11.293 7.54598C10.4453 7.31876 9.55276 7.31866 8.70504 7.54567C7.85731 7.77269 7.08426 8.21883 6.46359 8.83926Z" fill="#3AC19B"/>
<path d="M9.45326 14.0939C9.53535 14.094 9.61665 14.0779 9.69248 14.0464C9.76832 14.015 9.83719 13.9689 9.89513 13.9108L12.0826 11.7233C12.1965 11.6054 12.2595 11.4475 12.2581 11.2836C12.2566 11.1198 12.1909 10.963 12.075 10.8471C11.9591 10.7312 11.8024 10.6655 11.6385 10.6641C11.4746 10.6627 11.3168 10.7257 11.1989 10.8395L9.45326 12.5851L8.80138 11.9333C8.68351 11.8194 8.52563 11.7564 8.36176 11.7578C8.19788 11.7593 8.04113 11.825 7.92525 11.9409C7.80937 12.0568 7.74364 12.2135 7.74221 12.3774C7.74079 12.5413 7.80378 12.6991 7.91763 12.817L9.01138 13.9108C9.06933 13.9689 9.1382 14.015 9.21403 14.0464C9.28987 14.0779 9.37117 14.094 9.45326 14.0939Z" fill="#3AC19B"/>
</svg>
