<svg width="30" height="34" viewBox="0 0 30 34" fill="none" xmlns="http://www.w3.org/2000/svg">
<path d="M14.9978 10.5226C11.4256 10.5226 8.51953 13.4286 8.51953 17.0006C8.51953 20.5728 11.4256 23.4788 14.9978 23.4788C18.5697 23.4788 21.4758 20.5728 21.4758 17.0006C21.4758 13.4286 18.5697 10.5226 14.9978 10.5226ZM18.8439 15.7806L14.203 20.4215C14.0082 20.6163 13.7527 20.7139 13.4974 20.7139C13.2422 20.7139 12.9869 20.6166 12.7921 20.4215L11.0186 18.648C10.629 18.2587 10.629 17.627 11.0186 17.2374C11.4079 16.8478 12.0396 16.8478 12.4292 17.2374L13.4974 18.3056L17.4333 14.37C17.8226 13.9804 18.4543 13.9804 18.8439 14.37C19.2335 14.7594 19.2335 15.391 18.8439 15.7806Z" fill="#042181"/>
<path d="M29.4425 9.22506L29.4415 9.1986C29.4267 8.87202 29.4168 8.5265 29.4108 8.14207C29.3831 6.2674 27.8928 4.71671 26.0179 4.61191C22.1088 4.39376 19.0847 3.11907 16.5008 0.600573L16.4788 0.579561C15.636 -0.193187 14.3647 -0.193187 13.5216 0.579561L13.4996 0.600573C10.9157 3.11907 7.89164 4.39376 3.98251 4.61217C2.10783 4.71671 0.617328 6.2674 0.589572 8.14233C0.583865 8.52417 0.573749 8.86968 0.558963 9.1986L0.557407 9.26008C0.481403 13.2463 0.386982 18.2073 2.04661 22.7102C2.95918 25.1864 4.34126 27.3389 6.15419 29.1082C8.21901 31.1232 10.9235 32.7229 14.1924 33.8627C14.2988 33.8998 14.4093 33.9299 14.5219 33.9525C14.6806 33.9841 14.8404 34 15.0002 34C15.16 34 15.32 33.9841 15.4785 33.9525C15.5911 33.9299 15.7024 33.8996 15.8093 33.8622C19.0743 32.7204 21.776 31.1199 23.839 29.1051C25.6511 27.3352 27.0332 25.1822 27.9465 22.7055C29.6124 18.1891 29.5182 13.2188 29.4425 9.22506ZM14.9997 25.4738C10.3274 25.4738 6.52643 21.6728 6.52643 17.0005C6.52643 12.3282 10.3274 8.52728 14.9997 8.52728C19.6717 8.52728 23.4729 12.3282 23.4729 17.0005C23.4729 21.6728 19.6717 25.4738 14.9997 25.4738Z" fill="#042181"/>
</svg>
