<svg width="34" height="34" viewBox="0 0 34 34" fill="none" xmlns="http://www.w3.org/2000/svg">
<path d="M17 2.125C11.135 2.125 6.375 6.8855 6.375 12.75C6.375 17.7336 10.2639 20.7613 11.9635 23.375H22.0365C23.7361 20.7613 27.625 17.7336 27.625 12.75C27.625 6.8855 22.8645 2.125 17 2.125ZM21.25 12.3142C21.0798 12.2504 20.9102 12.2188 20.7188 12.2188C19.8368 12.2188 19.125 12.9305 19.125 13.8125C19.125 14.6945 19.8368 15.4062 20.7188 15.4062C20.9102 15.4062 21.0798 15.3746 21.25 15.3108V18.0625H18.4983C18.5512 18.2327 18.5938 18.4023 18.5938 18.5938C18.5938 19.4757 17.882 20.1875 17 20.1875C16.118 20.1875 15.4062 19.4757 15.4062 18.5938C15.4062 18.4023 15.4488 18.2327 15.5017 18.0625H12.75V15.3108C12.9202 15.3746 13.0898 15.4062 13.2812 15.4062C14.1632 15.4062 14.875 14.6945 14.875 13.8125C14.875 12.9305 14.1632 12.2188 13.2812 12.2188C13.0898 12.2188 12.9202 12.2504 12.75 12.3142V9.5625H15.5017C15.4488 9.39233 15.4062 9.22269 15.4062 9.03125C15.4062 8.14929 16.118 7.4375 17 7.4375C17.882 7.4375 18.5938 8.14929 18.5938 9.03125C18.5938 9.22269 18.5512 9.39233 18.4983 9.5625H21.25V12.3142ZM4.25 12.75C4.25 12.1627 3.77426 11.6875 3.1875 11.6875H2.125C1.53824 11.6875 1.0625 12.1627 1.0625 12.75C1.0625 13.3373 1.53824 13.8125 2.125 13.8125H3.1875C3.77426 13.8125 4.25 13.3373 4.25 12.75ZM7.9838 3.73431C8.39883 3.32031 8.39883 2.64691 7.98431 2.23187L7.12674 1.37378C6.7117 0.95874 6.03882 0.95874 5.62378 1.37378C5.20874 1.78778 5.20874 2.46118 5.62326 2.87622L6.48083 3.73431C6.68835 3.94183 6.96072 4.04559 7.23257 4.04559C7.50443 4.04559 7.77628 3.94183 7.9838 3.73431ZM27.5171 3.73535L28.3762 2.87726C28.7913 2.46222 28.7913 1.78882 28.3773 1.37378C27.9622 0.95874 27.2888 0.959778 26.8738 1.37274L26.0146 2.23083C25.5996 2.64587 25.5996 3.31927 26.0136 3.73431C26.2211 3.94183 26.494 4.04559 26.7659 4.04559C27.0377 4.04559 27.3096 3.94183 27.5171 3.73535ZM32.9375 12.75C32.9375 12.1627 32.4623 11.6875 31.875 11.6875H30.8125C30.2252 11.6875 29.75 12.1627 29.75 12.75C29.75 13.3373 30.2252 13.8125 30.8125 13.8125H31.875C32.4623 13.8125 32.9375 13.3373 32.9375 12.75ZM28.3762 24.1273C28.7913 23.7122 28.7913 23.0399 28.3773 22.6238L27.5192 21.7646C27.1041 21.3496 26.4307 21.3506 26.0157 21.7636C25.6006 22.1786 25.6006 22.851 26.0146 23.2671L26.8727 24.1262C27.0803 24.3337 27.3531 24.4375 27.625 24.4375C27.8969 24.4375 28.1687 24.3337 28.3762 24.1273ZM7.12622 24.1262L7.98483 23.2681C8.39987 22.8541 8.39987 22.1807 7.98535 21.7657C7.57031 21.3506 6.89743 21.3506 6.48239 21.7657L5.62378 22.6238C5.20874 23.0378 5.20874 23.7112 5.62326 24.1262C5.83078 24.3337 6.10315 24.4375 6.375 24.4375C6.64685 24.4375 6.9187 24.3337 7.12622 24.1262ZM22.3125 28.6875V27.625C22.8998 27.625 23.375 27.1498 23.375 26.5625C23.375 25.9752 22.8998 25.5 22.3125 25.5H11.6875C11.1007 25.5 10.625 25.9752 10.625 26.5625C10.625 27.1498 11.1007 27.625 11.6875 27.625V28.6875C11.1007 28.6875 10.625 29.1627 10.625 29.75C10.625 30.3373 11.1007 30.8125 11.6875 30.8125H12.0932L12.8621 32.3502C13.0421 32.7103 13.4099 32.9375 13.8125 32.9375H20.1875C20.5901 32.9375 20.9574 32.7103 21.1379 32.3502L21.9068 30.8125H22.3125C22.8998 30.8125 23.375 30.3373 23.375 29.75C23.375 29.1627 22.8998 28.6875 22.3125 28.6875Z" fill="#042181"/>
</svg>
