<svg width="34" height="34" viewBox="0 0 34 34" fill="none" xmlns="http://www.w3.org/2000/svg">
<path d="M9.6582 14.875C9.96948 16.7157 11.0693 18.2877 12.5998 19.2339C12.109 17.9743 11.8143 16.449 11.722 14.875H9.6582Z" fill="#042181"/>
<path d="M15.9377 20.1875C16.6163 20.1875 17.7982 18.188 18.0171 14.875H13.8584C14.0773 18.188 15.2592 20.1875 15.9377 20.1875Z" fill="#042181"/>
<path d="M9.6582 12.7501H11.722C11.8143 11.176 12.109 9.65076 12.5998 8.39111C11.0693 9.3374 9.96948 10.9094 9.6582 12.7501Z" fill="#042181"/>
<path d="M15.9377 7.4375C15.2592 7.4375 14.0773 9.43695 13.8584 12.75H18.0171C17.7982 9.43695 16.6163 7.4375 15.9377 7.4375Z" fill="#042181"/>
<path d="M22.3125 32.9375V30.8125H25.5C27.377 30.8125 28.6875 29.3422 28.6875 27.238V24.4375H30.8125C30.8198 24.4365 30.827 24.4365 30.8333 24.4375C31.4205 24.4375 31.8958 23.9623 31.8958 23.375C31.8958 23.1322 31.8148 22.9081 31.6779 22.7296L28.6875 16.7489V14.875C28.6875 7.12933 23.0025 1.0625 15.7445 1.0625C8.23438 1.0625 2.125 7.25903 2.125 14.875C2.125 17.7657 3.24042 20.0837 4.28632 22.0282L4.40564 22.2502C6.34802 25.8455 7.36902 28.3866 7.4375 29.75V32.9375H22.3125ZM15.9375 22.3125C11.2507 22.3125 7.4375 18.4993 7.4375 13.8125C7.4375 9.12567 11.2507 5.3125 15.9375 5.3125C20.6243 5.3125 24.4375 9.12567 24.4375 13.8125C24.4375 18.4993 20.6243 22.3125 15.9375 22.3125Z" fill="#042181"/>
<path d="M19.2754 8.39111C19.7662 9.65076 20.0609 11.176 20.1532 12.7501H22.217C21.9057 10.9094 20.8058 9.3374 19.2754 8.39111Z" fill="#042181"/>
<path d="M19.2754 19.2339C20.8058 18.2877 21.9057 16.7157 22.217 14.875H20.1532C20.0609 16.449 19.7662 17.9743 19.2754 19.2339Z" fill="#042181"/>
</svg>
