<svg width="120" height="120" viewBox="0 0 120 120" fill="none" xmlns="http://www.w3.org/2000/svg">
<path d="M98.0859 73.4765L79.9219 68.9062L75.2344 73.4765L89.2969 81.2109L70.5469 101.367C67.7344 101.055 61.7578 101.273 60.3516 104.648C67.9687 104.648 68.3203 106.875 66.5625 112.734L72.1875 111.328L73.125 119.648L76.9922 118.359L78.0469 108.164L100.664 93.164L106.172 108.164L110.859 104.648L109.805 84.7265C114.023 79.4531 121.266 68.5312 116.484 67.0312C111.703 65.5312 102.227 70.7031 98.0859 73.4765Z" fill="#C0F8E8"/>
<path d="M116.648 63.1764C114.354 60.7058 111.001 60.3529 106.236 62.2941C106.236 62.1176 106.236 22.9411 106.236 22.7646C106.236 21.1764 104.824 19.7646 103.236 19.7646H75.3539V13.5882C75.3539 7.05877 70.0597 1.76465 63.5303 1.76465H44.4715C37.9421 1.76465 32.648 7.05877 32.648 13.5882V19.5882H4.76562C3.17739 19.5882 1.76562 20.9999 1.76562 22.5882V100.588C1.76562 102.176 3.17739 103.588 4.76562 103.588H62.1186L64.4127 104.294C63.1774 106.941 62.1186 108.706 63.3539 110.118C63.8833 110.647 64.4127 110.823 65.1186 110.823C66.1774 110.823 67.5892 110.294 69.1774 109.765L70.2362 116.647C70.2362 117.176 70.5892 117.706 71.1186 117.882C71.648 118.059 72.1774 118.059 72.7068 117.882L76.2362 116.118C76.7656 115.941 77.1186 115.412 77.1186 114.706L78.3539 105.529C79.4127 105 80.4715 104.294 81.7068 103.412H102.177L102.883 105.353C103.06 105.882 103.589 106.235 104.119 106.412C104.648 106.588 105.177 106.412 105.707 106.059L110.472 102.353C111.001 102 111.177 101.471 111.177 100.765L109.413 81.5294C117.707 73.4117 120.177 67.0588 116.648 63.1764ZM36.1774 13.5882C36.1774 8.99994 39.8833 5.29406 44.4715 5.29406H63.5303C68.1186 5.29406 71.8244 8.99994 71.8244 13.5882V19.5882H36.1774V13.5882ZM102.707 23.2941V40.9411H5.29504V23.2941H102.707ZM5.29504 44.2941H102.707V64.0588C100.942 65.1176 99.0009 66.3529 97.0597 67.7646L78.1774 63.5294C77.648 63.3529 76.9421 63.5294 76.5892 64.0588L72.3539 68.4705C72.0009 68.8235 71.8244 69.3529 71.8244 70.0588C71.8244 70.7646 72.1774 71.1176 72.7068 71.2941L85.2362 77.8235C78.1774 85.0588 72.5303 91.5882 69.3539 95.8235H60.0009C59.4715 95.8235 58.9421 96.1764 58.5892 96.5294L56.4715 99.7058V100.235H5.29504V44.2941ZM87.3539 100.235C90.7068 97.9411 94.4127 95.2941 98.295 92.2941L101.119 100.235H87.3539ZM105.53 102.176L100.766 88.9411C100.589 88.5882 100.236 88.2352 99.8833 88.0588C99.3539 87.7058 98.4715 87.8823 97.9421 88.2352C88.9421 95.2941 80.648 100.588 75.8833 103.412C75.5303 103.588 75.0009 104.294 75.0009 104.647L73.7656 113.823L73.2362 114L72.3539 107.294C72.3539 106.941 72.0009 106.588 71.8244 106.235C71.295 105.706 70.5892 105.706 70.0597 105.882C69.5303 106.059 68.8244 106.235 68.1186 106.588C67.7656 106.765 67.4127 106.765 66.8833 106.941C67.0597 106.588 67.2362 106.235 67.4127 105.882C67.7656 105.176 68.1186 104.647 68.295 103.941C68.4715 103.588 68.4715 102.882 68.295 102.529C68.1186 102 67.5891 101.647 67.2362 101.647L60.8833 99.8823L61.2362 99.3529H70.4127C70.9421 99.3529 71.4715 98.9999 71.8244 98.647C75.1774 94.2352 81.5303 86.8235 89.648 78.7058C90.0009 78.3529 90.1774 77.8235 90.1774 77.1176C90.0009 76.5882 89.8244 76.0588 89.295 75.8823L76.7656 69.3529L78.7068 67.4117L97.0597 71.4705C97.4127 71.647 97.9421 71.4705 98.4715 71.1176C106.413 65.2941 112.06 63.1764 114.001 65.4705C116.119 67.7646 113.295 73.2352 106.413 80.2941C106.06 80.647 105.883 81.1764 105.883 81.7058L107.648 100.588L105.53 102.176Z" fill="#042181"/>
<path d="M61.5884 69C62.6472 69 63.3531 68.2941 63.3531 67.2353V51.8824C63.3531 50.8236 62.6472 50.1177 61.5884 50.1177H46.2354C45.1766 50.1177 44.4707 50.8236 44.4707 51.8824V67.2353C44.4707 68.2941 45.1766 69 46.2354 69H61.5884ZM48.1766 53.6471H60.0001V65.4706H48.1766V53.6471Z" fill="#3AC19B"/>
</svg>
