<svg width="34" height="34" viewBox="0 0 34 34" fill="none" xmlns="http://www.w3.org/2000/svg">
<g clip-path="url(#clip0_455_10587)">
<path d="M15.7663 21.1445V17.1572H13.7466V21.2329L10.9902 22.8303C11.2704 23.4767 11.4286 24.175 11.4527 24.8967L14.8327 22.9377L18.0622 24.8098C18.097 24.0925 18.2659 23.4002 18.5538 22.76L15.7663 21.1445Z" fill="#042181"/>
<path d="M8.59829 27.4286C9.14147 26.7723 9.43719 25.9552 9.43719 25.0924C9.43719 24.1119 9.05535 23.19 8.36198 22.4966C6.93061 21.0653 4.60147 21.0653 3.17036 22.4966C1.82252 23.8445 1.74418 25.9876 2.93431 27.4283C1.8936 27.9591 1.00178 28.7767 0.389857 29.8088C-0.122457 30.6729 -0.130239 31.712 0.368846 32.5883C0.872599 33.4721 1.77946 33.9999 2.79501 33.9999H8.73707C9.75262 33.9999 10.6597 33.4721 11.1632 32.5883C11.6626 31.712 11.6545 30.6729 11.1422 29.8088C10.5306 28.7769 9.63874 27.9591 8.59829 27.4286V27.4286Z" fill="#042181"/>
<path d="M26.5788 27.4286C27.1219 26.7723 27.4179 25.9552 27.4179 25.0924C27.4179 24.1119 27.0358 23.19 26.3424 22.4966C25.6491 21.8032 24.7272 21.4214 23.7466 21.4214C22.7661 21.4214 21.8442 21.8032 21.1508 22.4966C20.4575 23.19 20.0754 24.1119 20.0754 25.0927C20.0754 25.9552 20.3713 26.7723 20.9145 27.4286C19.8738 27.9593 18.982 28.7769 18.3703 29.8088C17.858 30.6729 17.8502 31.712 18.3493 32.5883C18.8528 33.4723 19.7599 34.0002 20.7757 34.0002H26.7175C27.7331 34.0002 28.6402 33.4723 29.1437 32.5883C29.643 31.712 29.6353 30.6731 29.1227 29.8088C28.5113 28.7769 27.6195 27.959 26.5788 27.4286V27.4286Z" fill="#042181"/>
<path d="M15.9239 10.7505C16.5677 10.1067 16.5677 9.0592 15.9239 8.41512C15.602 8.09346 15.1789 7.93237 14.7561 7.93237C14.3333 7.93237 13.9104 8.09346 13.5885 8.41512C12.9444 9.0592 12.9444 10.1067 13.5885 10.7507C14.2324 11.3946 15.2798 11.3946 15.9239 10.7505Z" fill="#042181"/>
<path d="M7.00097 17.1535H13.7456V13.111C13.1645 12.9458 12.6164 12.6356 12.1596 12.1788C10.7283 10.7474 10.7283 8.41826 12.1596 6.98689C13.591 5.55553 15.9201 5.55553 17.3515 6.98689C18.7826 8.41826 18.7826 10.7474 17.3515 12.1788C16.8947 12.6356 16.3466 12.9458 15.7653 13.111V17.1535H22.5104C25.4465 17.1535 27.8356 14.7647 27.8356 11.8283C27.8356 8.97726 25.5838 6.64241 22.7651 6.50908C22.4199 4.84816 21.5644 3.33145 20.2998 2.16546C18.7857 0.769116 16.8166 0 14.7557 0C12.6948 0 10.7257 0.769116 9.21156 2.16546C7.947 3.33171 7.0915 4.84816 6.74624 6.50908C3.92788 6.64267 1.67578 8.97752 1.67578 11.8283C1.67578 14.7647 4.06458 17.1535 7.00097 17.1535V17.1535Z" fill="#042181"/>
</g>
<defs>
<clipPath id="clip0_455_10587">
<rect width="34" height="34" fill="white"/>
</clipPath>
</defs>
</svg>
