<svg width="16" height="16" viewBox="0 0 16 16" fill="none" xmlns="http://www.w3.org/2000/svg">
<path fill-rule="evenodd" clip-rule="evenodd" d="M13 6.49999C13 6.6326 12.9473 6.75978 12.8536 6.85354C12.7598 6.94731 12.6326 6.99999 12.5 6.99999H9.5C9.36739 6.99999 9.24022 6.94731 9.14645 6.85354C9.05268 6.75978 9 6.6326 9 6.49999V3.49999C9 3.36738 9.05268 3.24021 9.14645 3.14644C9.24022 3.05267 9.36739 2.99999 9.5 2.99999C9.63261 2.99999 9.75978 3.05267 9.85355 3.14644C9.94732 3.24021 10 3.36738 10 3.49999V5.29332L13.1467 2.14666C13.1924 2.09753 13.2476 2.05813 13.309 2.0308C13.3703 2.00348 13.4365 1.98878 13.5037 1.9876C13.5708 1.98641 13.6375 1.99876 13.6997 2.02391C13.762 2.04906 13.8185 2.08649 13.866 2.13396C13.9135 2.18144 13.9509 2.238 13.9761 2.30026C14.0012 2.36252 14.0136 2.4292 14.0124 2.49634C14.0112 2.56347 13.9965 2.62968 13.9692 2.69102C13.9419 2.75235 13.9025 2.80755 13.8533 2.85332L10.7067 5.99999H12.5C12.6326 5.99999 12.7598 6.05267 12.8536 6.14644C12.9473 6.24021 13 6.36738 13 6.49999Z" fill="#C0F8E8"/>
<path fill-rule="evenodd" clip-rule="evenodd" d="M1 3C1 2.46957 1.21071 1.96086 1.58579 1.58579C1.96086 1.21071 2.46957 1 3 1H3.91467C4.488 1 4.988 1.39067 5.12733 1.94667L5.864 4.89533C5.9237 5.134 5.91164 5.38497 5.82934 5.61682C5.74704 5.84866 5.59815 6.05106 5.40133 6.19867L4.53933 6.84533C4.44933 6.91267 4.43 7.01133 4.45533 7.08C4.83159 8.10323 5.42573 9.03247 6.19663 9.80337C6.96753 10.5743 7.89677 11.1684 8.92 11.5447C8.98867 11.57 9.08667 11.5507 9.15467 11.4607L9.80133 10.5987C9.94894 10.4018 10.1513 10.253 10.3832 10.1707C10.615 10.0884 10.866 10.0763 11.1047 10.136L14.0533 10.8727C14.6093 11.012 15 11.512 15 12.086V13C15 13.5304 14.7893 14.0391 14.4142 14.4142C14.0391 14.7893 13.5304 15 13 15H11.5C5.70133 15 1 10.2987 1 4.5V3Z" fill="#C0F8E8"/>
</svg>
